<?xml version="1.0" standalone="no"?>
<!DOCTYPE svg PUBLIC "-//W3C//DTD SVG 1.1//EN" "http://www.w3.org/Graphics/SVG/1.1/DTD/svg11.dtd">
<svg xmlns="http://www.w3.org/2000/svg">
<defs >
<font id="DarkerGrotesque" horiz-adv-x="456" ><font-face
    font-family="Darker Grotesque SemiBold"
    units-per-em="1000"
    panose-1="0 0 0 0 0 0 0 0 0 0"
    ascent="1060"
    descent="-296"
    alphabetic="0" />
<glyph unicode=" " glyph-name="space" horiz-adv-x="228" />
<glyph unicode="!" glyph-name="exclam" horiz-adv-x="205" d="M82 152Q75 260 67 338T57 465T66 539T110 563Q141 563 152 539T162 465T152 337T138 152Q138 152 130 154T110 156Q99 156 91 154T82 152ZM111 -9Q81 -9 71 6T61 43Q61 63 71 78T111 93Q139 93 149
79T160 43Q160 21 150 6T111 -9Z" />
<glyph unicode="&quot;" glyph-name="quotedbl" horiz-adv-x="315" d="M37 369V426H58Q83 426 91 435T99 463Q67 461 54 475T40 514Q40 534 50 548T90 563Q113 563 125 549T138 495Q138 441 121 405T59 369H37ZM184 369V426H205Q230 426 238 435T246 463Q214 461
201 475T187 514Q187 534 197 548T237 563Q260 563 272 549T285 495Q285 441 268 405T206 369H184Z" />
<glyph unicode="#" glyph-name="numbersign" horiz-adv-x="691" d="M87 0L148 152H28V224H177L225 343H83V415H249L298 563H377L316 415H450L499 563H578L518 415H636V343H489L441 224H584V152H417L367 0H288L350 152H215L165 0H87ZM239 225V224H379L427 343H287L239
225Z" />
<glyph unicode="$" glyph-name="dollar" horiz-adv-x="544" d="M247 -109L251 -10Q202 -6 157 15T82 77T46 180L128 192Q128 190 129 176T138 143T163 106T209 75T286 62Q333 62 360 76T400 110T412 144Q413 176 394 195T343 225T273 246T198 268T129 298T80 347T64
426Q68 487 117 526T251 572L247 672H330L325 570Q373 563 412 541T473 479T495 385L416 374Q416 415 400 439T360 476T311 493T271 497Q223 497 188 476T151 417Q150 385 169 366T221 336T291 315T367 295T436 266T485 216T501 136Q499 95 475 65T412 16T325 -9L330
-109H247Z" />
<glyph unicode="%" glyph-name="percent" horiz-adv-x="592" d="M132 332Q78 332 53 364T28 452Q28 507 52 540T132 573Q186 573 211 540T237 452Q237 399 212 366T132 332ZM116 0L58 41L286 299L477 563L534 523L315 276L116 0ZM131 385Q159 385 170 404T182
453Q182 483 171 502T131 522Q103 522 92 503T80 453Q80 423 91 404T131 385ZM460 -10Q406 -10 382 23T357 112Q357 166 381 199T460 232Q514 232 539 199T564 112Q564 58 539 24T460 -10ZM459 43Q487 43 499 62T511 111Q511 141 499 161T459 181Q431 181 420 162T408
111Q408 82 419 63T459 43Z" />
<glyph unicode="&amp;" glyph-name="ampersand" horiz-adv-x="641" d="M593 -2Q556 13 524 30T455 72Q414 32 361 12T254 -9T153 8T79 64T50 158Q50 197 65 224T102 268T146 297T181 316Q173 327 159 346T133 390T121 448Q121 488 142 515T197 557T269 571T341
559T396 520T418 453Q418 419 401 393T359 347T314 317T287 303Q298 289 319 267T369 220T428 173Q439 190 449 218T459 275T438 325L508 372Q516 360 525 334T538 273T534 200T501 127Q530 107 557 92T624 61L593 -2ZM241 342Q248 345 265 354T300 376T331 405T346
441Q348 467 333 482T296 503T250 504T212 483T196 440Q197 397 241 342ZM390 119Q345 153 301 195T226 276Q189 258 161 234T133 168Q133 124 160 99T230 66T315 72T390 119Z" />
<glyph unicode="&apos;" glyph-name="quotesingle" horiz-adv-x="192" d="M52 369V426H73Q98 426 106 435T114 463Q82 461 69 475T55 514Q55 534 65 548T105 563Q128 563 140 549T153 495Q153 441 136 405T74 369H52Z" />
<glyph unicode="(" glyph-name="parenleft" horiz-adv-x="309" d="M233 -199Q233 -199 214 -184T166 -136T110 -57T62 55T43 200Q42 281 61 345T109 458T166 539T213 587T233 603L297 538Q293 535 272 521T222 481T165 416T118 323T99 200Q99 129 119 75T168 -18T227
-83T277 -120T297 -132L233 -199Z" />
<glyph unicode=")" glyph-name="parenright" horiz-adv-x="299" d="M67 -199L3 -132Q3 -132 22 -120T71 -83T130 -19T180 75T200 200Q200 269 181 323T134 416T77 481T27 521T3 538L67 603Q66 603 85 587T133 539T190 459T237 346T257 200Q257 119 238 55T190
-56T134 -136T86 -183T67 -199Z" />
<glyph unicode="*" glyph-name="asterisk" horiz-adv-x="380" d="M353 418L221 395L314 300L252 255L190 372L128 255L66 300L160 395L28 418L52 490L171 430L152 563H229L210 430L329 490L353 418Z" />
<glyph unicode="+" glyph-name="plus" horiz-adv-x="355" d="M148 84V194H38V254H148V364H208V254H318V194H208V84H148Z" />
<glyph unicode="," glyph-name="comma" horiz-adv-x="206" d="M53 -95V-37H74Q99 -37 107 -28T115 0Q83 -2 70 12T56 50Q56 71 66 85T106 100Q129 100 141 86T154 32Q154 -22 137 -58T75 -95H53Z" />
<glyph unicode="-" glyph-name="hyphen" horiz-adv-x="317" d="M40 195V255H262V195H40Z" />
<glyph unicode="." glyph-name="period" horiz-adv-x="192" d="M87 0Q56 0 46 15T35 54Q35 75 45 90T87 106Q116 106 126 91T137 54Q137 31 127 16T87 0Z" />
<glyph unicode="/" glyph-name="slash" horiz-adv-x="369" d="M25 0L279 563H359L105 0H25Z" />
<glyph unicode="0" glyph-name="zero" horiz-adv-x="529" d="M265 -14Q143 -14 86 65T28 280Q28 369 52 434T129 536T265 573Q346 573 398 537T476 435T502 280Q502 193 477 127T399 23T265 -14ZM264 56Q347 56 385 114T424 280Q424 387 386 445T264 504Q183 504
145 448T106 280Q106 173 143 115T264 56Z" />
<glyph unicode="1" glyph-name="one" horiz-adv-x="354" d="M314 72V0H63V72H154V454Q145 420 127 402T89 375T54 365T33 363V452Q39 451 58 453T101 467T142 501T161 563H235V72H314Z" />
<glyph unicode="2" glyph-name="two" horiz-adv-x="506" d="M40 0V69Q41 70 66 85T132 126T215 186T296 258T352 333Q375 381 367 418T327 477T249 499Q192 498 158 462T130 354L53 364Q48 428 73 473T147 543T258 568Q312 568 354 549T421 495T450 416T429 323Q410
286 377 251T303 184T226 129T161 90T126 72H461V0H40Z" />
<glyph unicode="3" glyph-name="three" horiz-adv-x="504" d="M259 -10Q197 -10 146 12T64 79T33 192L112 202Q115 133 158 98T260 63Q316 63 354 92T393 169Q393 207 374 228T327 258T277 267H204V312H279Q324 312 353 332T383 394Q383 445 348 474T254 504Q207
504 178 484T134 437T119 385L44 396Q45 412 55 441T88 500T151 552T252 573Q348 573 403 530T458 412Q458 362 431 329T355 287Q404 278 437 242T471 153Q471 103 444 66T368 10T259 -10Z" />
<glyph unicode="4" glyph-name="four" horiz-adv-x="511" d="M28 115V187Q77 209 118 251T190 346T236 455T253 563H342Q342 495 313 425T233 293T114 187H319V281H402V187H476V115H402V0H319V115H28Z" />
<glyph unicode="5" glyph-name="five" horiz-adv-x="517" d="M257 -10Q165 -10 111 35T43 145L126 156Q127 150 133 135T154 103T194 73T259 61Q302 61 331 78T377 123T395 181Q398 214 384 244T340 295T264 315Q220 315 194 301T157 271T145 255L61 270L90 563H450V491H150L130
301Q130 301 138 311T165 336T213 362T286 373Q354 373 397 345T460 272T477 180Q473 132 447 89T372 18T257 -10Z" />
<glyph unicode="6" glyph-name="six" horiz-adv-x="537" d="M277 -10Q196 -10 145 28T69 129T45 268Q45 325 60 380T107 478T185 547T295 573Q351 573 387 557T442 518T470 480T478 463L397 446Q397 446 387 459T354 486T291 500Q241 500 200 467T138 373T128
224Q129 239 140 263T172 310T228 349T312 364Q376 363 417 336T478 266T494 176T465 86T392 17T277 -10ZM281 60Q332 59 364 84T409 145T414 219T375 282T294 310Q245 311 211 290T158 234T140 163Q151 113 190 87T281 60Z" />
<glyph unicode="7" glyph-name="seven" horiz-adv-x="495" d="M199 0H116Q116 115 149 208T241 371T375 491H42V563H455V493Q431 477 398 451T331 387T266 294T218 167T199 0Z" />
<glyph unicode="8" glyph-name="eight" horiz-adv-x="550" d="M273 -10Q206 -10 154 8T71 63T40 153Q40 208 77 248T179 298Q134 307 111 329T81 377T73 422Q73 467 98 501T169 554T273 573Q334 573 379 554T449 500T474 422Q474 403 467 378T436 330T368 298Q433
286 470 248T508 153Q508 99 477 63T392 8T273 -10ZM273 319Q330 319 365 340T400 406Q400 455 364 481T273 508Q216 508 182 481T147 406Q147 360 183 340T273 319ZM273 56Q344 56 385 87T426 167Q426 222 385 249T273 277Q203 277 162 250T121 167Q121 118 162
87T273 56Z" />
<glyph unicode="9" glyph-name="nine" horiz-adv-x="538" d="M259 -10Q196 -10 156 7T94 48T62 90T53 109L134 128Q134 127 140 118T160 96T199 74T259 64Q337 64 375 132T410 331Q408 316 397 294T364 249T311 212T235 197Q168 197 125 224T61 293T42 382T70
472T143 541T261 568Q346 568 398 528T472 420T491 274Q488 195 465 131T393 28T259 -10ZM252 249Q317 249 354 288T399 387Q385 444 348 472T260 500Q207 500 175 475T130 413T127 338T168 275T252 249Z" />
<glyph unicode=":" glyph-name="colon" horiz-adv-x="212" d="M106 268Q76 268 66 283T55 321Q55 342 65 357T106 373Q136 373 146 357T156 321Q156 298 146 283T106 268ZM106 38Q76 38 66 53T55 91Q55 112 65 127T106 143Q136 143 146 128T156 91Q156 69 146 54T106 38Z" />
<glyph unicode=";" glyph-name="semicolon" horiz-adv-x="211" d="M110 305Q79 305 69 320T59 358Q59 379 69 394T110 410Q139 410 149 395T160 358Q160 335 150 320T110 305ZM58 -95V-37H79Q104 -37 112 -28T121 0Q88 -2 75 12T61 50Q61 71 72 85T111 100Q134
100 146 86T159 32Q159 -22 142 -58T81 -95H58Z" />
<glyph unicode="&lt;" glyph-name="less" horiz-adv-x="411" d="M363 395V327L110 231L363 135V65L43 231L363 395Z" />
<glyph unicode="=" glyph-name="equal" horiz-adv-x="401" d="M40 261V318H346V261H40ZM40 128V185H346V128H40Z" />
<glyph unicode="&gt;" glyph-name="greater" horiz-adv-x="408" d="M43 395L363 231L43 65V135L296 231L43 327V395Z" />
<glyph unicode="?" glyph-name="question" horiz-adv-x="442" d="M251 155H176Q176 188 191 214T229 262T274 306T312 351T330 404Q331 445 305 470T231 496Q188 496 166 476T135 428T127 374H48Q42 422 58 466T116 540T227 569Q278 569 320 550T387 496T412 414Q412
374 396 346T356 296T308 254T268 211T251 155ZM214 -9Q184 -9 174 6T164 43Q164 64 174 78T214 93Q242 93 252 79T262 43Q262 20 252 6T214 -9Z" />
<glyph unicode="@" glyph-name="at" horiz-adv-x="784" d="M358 39Q296 39 267 82T248 191Q254 234 276 268T330 321T399 341Q438 341 464 324T502 276L509 328H573L541 148Q538 129 538 112T545 83T573 71Q610 71 635 96T673 161T683 245T660 328Q634 376 588
406T486 449T374 454T272 420Q211 386 174 324T133 183Q128 112 154 60T228 -24T338 -67T468 -66T604 -19L646 -90Q574 -130 491 -145T329 -150T184 -100T81 6T46 173Q48 277 98 358T233 481Q295 511 368 518T511 508T635 450T716 345Q736 295 733 241T707 140T644
63T549 33Q507 33 491 53T477 104Q456 73 425 56T358 39ZM378 86Q409 86 428 98T457 127T473 162T480 191Q487 236 473 264T412 293Q373 293 343 265T306 189Q300 144 318 115T378 86Z" />
<glyph unicode="A" glyph-name="A" horiz-adv-x="554" d="M19 0L208 563H345L538 0H449L395 168H161L107 0H19ZM278 528L183 234H373L278 528Z" />
<glyph unicode="B" glyph-name="B" horiz-adv-x="549" d="M58 0V563H271Q304 563 342 559T413 540T467 495T488 414Q488 382 476 355T430 310T336 291V287Q407 286 445 267T499 218T514 150Q514 97 491 67T432 23T356 4T279 0H58ZM140 323H261Q302 323 334 327T386
350T405 406Q405 447 385 465T332 489T262 494H140V323ZM140 68H272Q315 68 350 73T406 98T428 160Q428 203 406 224T346 251T264 258H140V68Z" />
<glyph unicode="C" glyph-name="C" horiz-adv-x="599" d="M300 -10Q222 -10 159 22T59 119T22 280Q23 375 59 440T158 539T304 573Q413 573 480 515T563 363H477Q469 411 443 440T380 482T304 495Q209 495 157 441T105 285Q105 179 156 124T301 68Q366 68 417
99T480 202H567Q550 108 483 49T300 -10Z" />
<glyph unicode="D" glyph-name="D" horiz-adv-x="597" d="M562 282Q562 171 519 110T399 24T217 0H65V563H217Q321 563 398 532T519 438T562 282ZM148 70H239Q310 70 363 86T445 149T474 283Q474 388 410 439T239 491H148V70Z" />
<glyph unicode="E" glyph-name="E" horiz-adv-x="490" d="M137 68H455V0H55V563H445V491H137V320H377V251H137V68Z" />
<glyph unicode="F" glyph-name="F" horiz-adv-x="477" d="M150 0H68V563H463V491H150V332H393V263H150V0Z" />
<glyph unicode="G" glyph-name="G" horiz-adv-x="616" d="M291 -12Q209 -12 149 22T55 120T23 279Q24 373 59 438T158 538T305 573Q415 573 479 524T563 379L483 368Q467 436 418 465T305 495Q203 495 155 439T104 284Q104 181 158 125T312 68Q380 68 430 102T492
209H353V272H574V0H517L498 111H496Q486 85 462 57T395 8T291 -12Z" />
<glyph unicode="H" glyph-name="H" horiz-adv-x="585" d="M146 0H63V563H146V321H440V563H522V0H440V256H146V0Z" />
<glyph unicode="I" glyph-name="I" horiz-adv-x="360" d="M294 72V0H59V72H136V491H59V563H294V491H218V72H294Z" />
<glyph unicode="J" glyph-name="J" horiz-adv-x="451" d="M215 -10Q169 -10 129 7T65 62T40 160H118Q118 137 126 115T154 77T213 62Q260 62 283 88T306 182V498H193V563H389V194Q389 130 374 85T321 15T215 -10Z" />
<glyph unicode="K" glyph-name="K" horiz-adv-x="566" d="M68 0V563H151V284L424 563H532V552L301 331L544 11V0H448L240 274L151 188V0H68Z" />
<glyph unicode="L" glyph-name="L" horiz-adv-x="469" d="M65 0V563H148V72H443V0H65Z" />
<glyph unicode="M" glyph-name="M" horiz-adv-x="719" d="M58 0V563H202L360 37H362L517 563H661V0H576L581 524H579L421 0H298L141 524H139L143 0H58Z" />
<glyph unicode="N" glyph-name="N" horiz-adv-x="594" d="M451 563H536V0H379L142 526H140V0H55V563H202L449 37H451V563Z" />
<glyph unicode="O" glyph-name="O" horiz-adv-x="608" d="M297 -14Q162 -14 91 65T20 280Q20 369 50 434T142 536T297 573Q432 573 502 494T573 280Q573 193 542 127T449 23T297 -14ZM296 66Q393 66 442 126T491 280Q491 374 443 434T296 495Q200 495 151 437T101
280Q101 218 122 170T186 94T296 66Z" />
<glyph unicode="P" glyph-name="P" horiz-adv-x="494" d="M143 0H60V563H280Q373 563 424 517T475 379Q475 296 423 250T280 204H143V0ZM270 494H143V267H270Q330 267 364 295T399 380Q399 439 365 466T270 494Z" />
<glyph unicode="Q" glyph-name="Q" horiz-adv-x="619" d="M379 -121Q357 -121 335 -115T296 -86T278 -13Q159 -2 97 76T34 280Q34 368 64 434T157 536T312 573Q402 573 463 537T556 435T588 281Q588 161 529 82T356 -11Q357 -33 364 -44T401 -56Q410 -56 424 -50T449
-44L452 -107Q450 -107 435 -110T403 -117T379 -121ZM311 68Q407 68 455 126T504 283Q504 380 456 439T311 498Q216 498 167 442T118 283Q118 185 165 127T311 68Z" />
<glyph unicode="R" glyph-name="R" horiz-adv-x="543" d="M59 0V563H256Q364 563 423 528T483 400Q483 336 451 293T353 250Q392 250 411 233T437 191T446 138T452 89T468 58T509 59V9Q495 -3 473 -7T428 -5T391 26T375 95Q375 148 369 178T341 222T272 238T143
238V0H59ZM143 300H259Q310 300 343 306T392 333T409 394Q409 441 389 462T331 488T237 494H143V300Z" />
<glyph unicode="S" glyph-name="S" horiz-adv-x="540" d="M273 -12Q212 -12 156 7T65 69T28 180H112Q112 176 115 158T134 118T184 80T279 64Q328 64 356 78T396 111T409 145Q409 176 390 195T337 225T265 246T186 267T115 298T64 347T48 426Q51 495 113 534T275
573Q333 573 383 552T463 489T493 384H412Q412 419 397 440T359 474T311 490T266 495Q209 495 173 474T136 417Q135 385 155 366T208 336T280 316T359 296T431 267T482 217T499 137Q496 90 467 57T387 6T273 -12Z" />
<glyph unicode="T" glyph-name="T" horiz-adv-x="457" d="M10 491V563H440V491H267V0H184V491H10Z" />
<glyph unicode="U" glyph-name="U" horiz-adv-x="586" d="M292 -14Q176 -14 115 52T53 240V563H140V241Q140 176 161 138T216 82T292 65Q337 65 371 81T425 136T445 241V563H532V240Q532 117 472 52T292 -14Z" />
<glyph unicode="V" glyph-name="V" horiz-adv-x="536" d="M435 563H526L334 0H195L3 563H93L264 37L435 563Z" />
<glyph unicode="W" glyph-name="W" horiz-adv-x="830" d="M721 563H810L659 0H525L410 455L293 0H158L10 563H99L226 37L365 562V563H454L592 37L721 563Z" />
<glyph unicode="X" glyph-name="X" horiz-adv-x="560" d="M23 0L227 298L41 563H141L281 349L422 563H520L337 298L541 0H443L281 244L120 0H23Z" />
<glyph unicode="Y" glyph-name="Y" horiz-adv-x="439" d="M175 0V202L-17 563H76L218 277L359 563H452L258 203V0H175Z" />
<glyph unicode="Z" glyph-name="Z" horiz-adv-x="554" d="M40 0V70L402 491H69V563H508V492L150 73H506V0H40Z" />
<glyph unicode="[" glyph-name="bracketleft" horiz-adv-x="270" d="M255 -199H35V603H255V526H116V-121L255 -122V-199Z" />
<glyph unicode="\" glyph-name="backslash" horiz-adv-x="349" d="M262 0L8 563H88L342 0H262Z" />
<glyph unicode="]" glyph-name="bracketright" horiz-adv-x="280" d="M35 -199V-122L179 -121V526H40V603H260V-199H35Z" />
<glyph unicode="^" glyph-name="asciicircum" horiz-adv-x="423" d="M28 320V343L211 562L395 343V320H315L212 489H210L108 320H28Z" />
<glyph unicode="_" glyph-name="underscore" horiz-adv-x="547" d="M30 0V60H492V0H30Z" />
<glyph unicode="`" glyph-name="grave" horiz-adv-x="600" d="M117 632L36 729V745H108L156 644V632H117Z" />
<glyph unicode="a" glyph-name="a" horiz-adv-x="440" d="M180 -9Q123 -9 88 17T37 91T20 200Q20 293 58 352T180 412Q225 412 253 396T296 360T318 325H320V409H405V0H334L320 73H318Q312 58 296 39T252 5T180 -9ZM213 62Q272 62 295 100T319 199Q319 263 295
300T213 337Q171 337 147 319T113 269T102 200Q102 141 127 102T213 62Z" />
<glyph unicode="b" glyph-name="b" horiz-adv-x="485" d="M276 -10Q238 -10 211 2T167 32T142 63T132 82H130L117 0H45V563H130L131 313H133Q134 317 141 332T165 365T208 396T276 409Q365 409 407 350T450 198Q450 106 408 48T276 -10ZM252 62Q296 62 321 81T357
132T368 199Q368 233 357 264T319 314T248 334Q190 334 161 297T132 199Q132 137 162 100T252 62Z" />
<glyph unicode="c" glyph-name="c" horiz-adv-x="461" d="M230 -10Q172 -10 126 14T54 84T27 196Q28 261 55 309T127 383T232 410Q290 410 331 388T397 331T426 255H349Q341 294 311 316T235 338Q175 338 142 300T108 202Q108 138 140 101T234 63Q277 63 309 85T349
149H426Q421 107 397 71T330 12T230 -10Z" />
<glyph unicode="d" glyph-name="d" horiz-adv-x="496" d="M218 -10Q128 -10 86 48T44 198Q44 292 86 350T218 409Q258 409 285 396T328 365T352 332T361 313H363L364 563H449V0H377L364 82H362Q360 78 352 64T327 32T283 3T218 -10ZM242 62Q300 62 331 99T362
199Q362 259 333 296T246 334Q202 334 176 315T138 264T126 199Q126 164 136 133T172 82T242 62Z" />
<glyph unicode="e" glyph-name="e" horiz-adv-x="457" d="M226 -10Q157 -10 113 20T48 99T27 200Q26 259 49 307T117 383T224 411Q277 411 319 388T387 322T414 221Q414 218 414 210T415 195H106Q106 131 137 96T225 60Q267 60 296 81T333 139H414Q405 75 356
33T226 -10ZM109 236H331Q330 247 325 265T309 300T276 330T222 342Q181 342 158 325T123 283T109 236Z" />
<glyph unicode="f" glyph-name="f" horiz-adv-x="278" d="M75 -2V349H15V409H75V488Q75 532 94 554T157 576H271V510H158V409H266V349H158V-2H75Z" />
<glyph unicode="g" glyph-name="g" horiz-adv-x="465" d="M145 -175V-97H337V82H335Q333 78 325 64T301 32T257 3T192 -10Q102 -10 60 48T18 199Q18 293 61 351T193 409Q233 409 259 396T302 365T325 332T334 313H336L337 409H422V-52Q422 -118 397 -146T314 -175H145ZM215
62Q273 62 304 99T335 199Q335 259 306 296T219 334Q175 334 149 315T111 264T99 199Q99 164 109 133T145 82T215 62Z" />
<glyph unicode="h" glyph-name="h" horiz-adv-x="466" d="M43 0V563H128V314H130Q131 318 138 333T160 365T202 396T268 409Q321 409 352 388T398 334T417 266T421 200V0H340V201Q340 239 332 269T303 317T240 335Q198 335 173 315T138 263T128 195V0H43Z" />
<glyph unicode="i" glyph-name="i" horiz-adv-x="192" d="M97 454Q70 453 61 467T52 502Q52 520 61 534T97 548Q123 548 132 534T142 502Q142 481 133 468T97 454ZM55 0V409H138V0H55Z" />
<glyph unicode="j" glyph-name="j" horiz-adv-x="215" d="M121 448Q93 448 84 462T74 498Q74 517 83 531T121 546Q148 546 157 532T167 498Q167 477 158 463T121 448ZM78 409H162V-87Q162 -132 142 -153T80 -175H9V-109H78V409Z" />
<glyph unicode="k" glyph-name="k" horiz-adv-x="439" d="M129 0H45V563H129V201L327 411H431L257 236L434 0H334L199 176L129 106V0Z" />
<glyph unicode="l" glyph-name="l" horiz-adv-x="182" d="M50 0V563H132V0H50Z" />
<glyph unicode="m" glyph-name="m" horiz-adv-x="660" d="M38 0V409H110L112 314H114Q116 319 122 334T143 366T182 396T241 409Q294 409 319 381T356 314H358Q359 319 367 334T390 366T431 396T492 409Q531 409 555 393T593 352T612 298T619 243T620 200V0H549V201Q549
216 548 238T539 283T514 320T464 335Q426 335 405 315T375 263T366 195V0H295V201Q295 216 294 238T285 283T260 320T210 335Q172 335 151 315T121 263T112 195V0H38Z" />
<glyph unicode="n" glyph-name="n" d="M38 0V408H109L123 314H125Q126 318 133 333T156 365T199 396T267 409Q321 409 351 389T395 336T412 267T416 200V0H335V201Q335 239 327 269T298 317T235 335Q193 335 168 315T133 263T123 195V0H38Z" />
<glyph unicode="o" glyph-name="o" horiz-adv-x="465" d="M227 -10Q125 -10 75 49T25 199Q24 291 75 350T227 410Q325 410 376 352T427 199Q427 140 406 93T340 18T227 -10ZM227 61Q275 61 300 82T336 135T346 202Q346 236 336 268T301 322T227 344Q178 344 152
323T116 269T106 202Q106 168 116 136T152 82T227 61Z" />
<glyph unicode="p" glyph-name="p" horiz-adv-x="484" d="M279 -10Q240 -10 214 2T171 32T147 63T137 82H135V-175H50V409H122L136 313H138Q139 317 146 332T169 365T211 396T278 409Q368 409 411 350T454 198Q454 105 411 48T279 -10ZM257 62Q301 62 326 81T362
132T373 199Q373 233 362 264T324 314T253 334Q195 334 166 297T137 199Q137 137 167 100T257 62Z" />
<glyph unicode="q" glyph-name="q" horiz-adv-x="484" d="M205 -10Q116 -10 73 48T30 198Q30 291 73 350T206 409Q246 409 272 396T314 365T337 332T346 313H348L362 409H434V-175H349V82H347Q345 78 337 64T313 32T270 3T205 -10ZM227 62Q285 62 316 99T347 199Q347
259 318 296T231 334Q187 334 161 315T123 264T111 199Q111 164 121 133T157 82T227 62Z" />
<glyph unicode="r" glyph-name="r" horiz-adv-x="320" d="M45 0V409H122L129 298Q135 325 152 350T201 392T282 409H299V317H281Q220 317 187 302T141 257T128 184V0H45Z" />
<glyph unicode="s" glyph-name="s" horiz-adv-x="409" d="M205 -10Q159 -10 119 10T54 63T29 136H107Q107 134 108 121T117 92T145 64T204 52Q246 52 272 67T298 109Q298 134 279 148T230 170T167 187T104 208T56 245T38 309Q38 363 83 392T199 422Q244 422 285
408T352 361T378 275H301Q302 309 286 326T245 350T200 357Q160 357 137 343T114 304Q114 278 133 265T182 243T245 226T309 205T358 168T378 104Q378 45 329 18T205 -10Z" />
<glyph unicode="t" glyph-name="t" horiz-adv-x="291" d="M156 0Q113 0 94 22T74 89V349H11V409Q42 409 57 414T78 442T84 514H153V409H247V349H153V66H248V0H156Z" />
<glyph unicode="u" glyph-name="u" horiz-adv-x="453" d="M185 -10Q133 -10 103 9T58 61T39 129T34 199V409H116V199Q116 163 123 132T151 83T217 64Q259 64 282 83T314 132T325 195L326 409H411V0H340L326 85H324Q320 72 305 50T261 9T185 -10Z" />
<glyph unicode="v" glyph-name="v" horiz-adv-x="430" d="M325 409H407V394L260 0H143L-5 393V409H76L202 69H204L325 409Z" />
<glyph unicode="w" glyph-name="w" horiz-adv-x="620" d="M107 0L5 394V410H86L166 70H168L264 410H337L436 70H438L517 410H598V394L495 0H378L302 266H300L225 0H107Z" />
<glyph unicode="x" glyph-name="x" horiz-adv-x="432" d="M5 0L155 211L13 409H105L207 261L309 409H402L260 211L411 0H318L207 160L97 0H5Z" />
<glyph unicode="y" glyph-name="y" horiz-adv-x="424" d="M-2 -186V-121H57Q78 -121 92 -112T126 -61L161 16L1 409H87L202 102L325 409H412L202 -70Q180 -121 162 -146T122 -178T67 -186H-2Z" />
<glyph unicode="z" glyph-name="z" horiz-adv-x="438" d="M35 0V61L298 347H49V411H398V350L138 65H398V0H35Z" />
<glyph unicode="{" glyph-name="braceleft" horiz-adv-x="320" d="M295 -196Q200 -213 154 -194T99 -118T104 38Q110 85 104 111T86 148T59 161T33 164V245Q44 245 58 247T85 260T104 297T104 370Q90 468 99 524T154 598T295 603V526Q240 538 214 532T180 504T175
448T185 372Q193 324 190 290T165 235T97 203Q144 192 165 172T190 118T185 36Q179 -7 176 -41T179 -96T213 -124T295 -119V-196Z" />
<glyph unicode="|" glyph-name="bar" horiz-adv-x="204" d="M60 -151V601H144V-151H60Z" />
<glyph unicode="}" glyph-name="braceright" horiz-adv-x="333" d="M38 -196V-119Q92 -131 119 -125T153 -97T157 -41T148 36Q140 84 143 117T167 171T236 203Q189 214 168 235T143 290T148 372Q153 414 157 448T154 503T119 531T38 526V603Q115 609 158 601T220
567T239 492T229 370Q223 323 228 297T247 260T274 247T300 245V164Q289 164 275 162T247 148T229 111T229 38Q240 -36 240 -84T221 -159T159 -194T38 -196Z" />
<glyph unicode="~" glyph-name="asciitilde" horiz-adv-x="338" d="M225 195Q199 195 185 205T161 228T142 251T118 261Q99 261 95 245T92 203H40Q40 221 43 246T61 291T114 310Q139 310 153 300T177 277T196 255T221 245Q240 245 243 262T247 304H298Q299 282
295 257T275 213T225 195Z" />
<glyph unicode="&#xa0;" glyph-name="uni00A0" horiz-adv-x="228" />
<glyph unicode="&#xa1;" glyph-name="exclamdown" horiz-adv-x="192" d="M98 373Q125 373 134 359T144 323Q144 304 135 290T98 276Q69 276 60 290T50 323Q50 344 59 358T98 373ZM67 211Q67 211 76 209T97 207Q112 207 119 209T127 211Q133 90 139 11T146 -115T136
-180T97 -199Q69 -199 58 -180T47 -116T53 9T67 211Z" />
<glyph unicode="&#xa2;" glyph-name="cent" horiz-adv-x="457" d="M186 -94L190 -7Q117 3 70 55T23 196Q25 283 71 339T190 407L186 494H269L264 408Q334 398 373 356T422 260L346 248Q336 292 308 315T229 338Q169 338 137 300T105 202Q105 138 136 101T228 63Q326
63 346 156L422 144Q412 88 373 46T264 -7L269 -94H186Z" />
<glyph unicode="&#xa3;" glyph-name="sterling" horiz-adv-x="641" d="M104 -13L65 49Q106 81 131 121T144 217L42 218V280H120Q94 334 94 386T116 480T186 547T299 573Q370 573 416 547T486 477T512 378L433 367Q429 387 420 410T394 455T350 490T284 503Q234
501 203 472T169 395T196 285Q197 282 198 280H407V217H220Q230 167 214 135T172 73Q206 89 239 89T303 80T362 63T416 56T465 75Q486 92 489 120T482 179L562 194Q583 112 558 67T483 12Q444 -7 408 -6T337 4T267 22T192 25T110 -9Q109 -10 108 -11T104 -13Z"
/>
<glyph unicode="&#xa4;" glyph-name="currency" horiz-adv-x="550" d="M444 4H410L369 63Q330 36 276 36Q218 36 180 64L138 4H107L161 81Q120 127 120 207Q120 297 170 342L123 407H157L192 357Q225 377 276 377Q324 377 358 358L392 407H427L380 342Q431 296
431 207Q431 128 390 81L444 4ZM276 57Q300 57 320 63T357 80Q360 83 363 86T370 92Q360 82 360 82T364 86T372 94T377 99Q409 139 409 207Q409 285 368 325Q360 333 346 340Q315 356 276 356Q234 356 204 340Q203 339 193 332T183 324Q142 286 142 207Q142 174
154 140T193 81Q208 70 228 64T276 57Z" />
<glyph unicode="&#xa5;" glyph-name="yen" horiz-adv-x="495" d="M87 98V148H204V194H87V243H182L13 563H106L247 277L389 563H481L308 243H407V196L287 195V148H407V98H287V0H204V98H87Z" />
<glyph unicode="&#xa6;" glyph-name="brokenbar" horiz-adv-x="204" d="M60 294V601H144V294H60ZM60 -151V156H144V-151H60Z" />
<glyph unicode="&#xa7;" glyph-name="section" horiz-adv-x="600" d="M418 223V221Q441 206 457 181T472 121Q469 65 421 33T304 1Q257 1 214 17T142 67T112 153H143Q143 151 144 138T153 107T178 72T226 43T306 31Q351 31 378 42T418 69T436 100T441 122Q442
160 420 181T362 215T286 236T209 260T151 300T131 371Q132 399 151 419T199 451V452Q168 469 149 494T131 556Q133 592 156 617T217 657T302 671Q349 671 386 655T446 606T466 525H436Q437 561 423 584T387 619T342 637T300 642Q241 642 203 617T162 554Q162 517
184 496T242 464T318 443T394 420T452 379T472 306Q471 278 456 258T418 223ZM162 369Q162 334 179 314T227 282T292 262T362 244Q373 242 377 241T383 239Q391 237 395 238T401 241Q427 258 434 278T441 307Q442 340 425 361T378 395T313 416T244 434Q230 437
223 438T202 432Q163 406 162 369Z" />
<glyph unicode="&#xa8;" glyph-name="dieresis" horiz-adv-x="600" d="M100 677Q67 677 56 693T45 732Q45 753 56 769T100 785Q133 785 143 769T154 732Q154 709 144 693T100 677ZM269 677Q236 677 225 693T214 732Q214 753 225 769T269 785Q302 785 312 769T323
732Q323 709 313 693T269 677Z" />
<glyph unicode="&#xa9;" glyph-name="copyright" horiz-adv-x="627" d="M328 -10Q267 -10 214 12T121 75T58 169T35 283Q35 342 57 394T120 487T214 550T328 573Q387 573 439 550T532 487T595 395T618 283Q618 222 595 169T532 76T440 13T328 -10ZM328 39Q398
39 452 70T538 156T570 282Q570 352 539 406T453 492T328 524Q257 524 202 493T116 407T84 282Q84 211 115 156T202 70T328 39ZM328 115Q260 115 214 157T167 281Q168 361 214 405T330 449Q395 449 433 414T481 326L427 317Q419 356 397 377T330 398Q278 398 251
368T223 285Q223 228 250 197T329 166Q411 166 428 253L483 239Q473 186 435 151T328 115Z" />
<glyph unicode="&#xaa;" glyph-name="ordfeminine" horiz-adv-x="297" d="M127 404Q73 404 49 441T25 538Q25 598 49 636T127 675Q157 675 175 665T202 641T216 619L217 673H275V410H227L218 456H216Q211 442 191 423T127 404ZM150 452Q187 452 202 475T217 538Q217
578 202 601T150 625Q110 625 95 600T79 538Q79 501 95 477T150 452Z" />
<glyph unicode="&#xab;" glyph-name="guillemotleft" horiz-adv-x="530" d="M317 519V452L96 295L317 133V68L22 295L317 519ZM487 519V447L266 295L487 138V68L192 295L487 519Z" />
<glyph unicode="&#xac;" glyph-name="logicalnot" horiz-adv-x="317" d="M40 196V252H262V113H205V196H40Z" />
<glyph unicode="&#xad;" glyph-name="uni00AD" horiz-adv-x="280" d="M285 195V255H507V195H285Z" />
<glyph unicode="&#xae;" glyph-name="registered" horiz-adv-x="408" d="M203 229Q155 229 116 252T54 314T30 400Q30 448 53 487T116 549T203 572Q250 572 288 549T350 487T373 400Q373 353 350 314T289 252T203 229ZM203 261Q244 261 275 280T323 330T341 400Q341
439 324 470T275 521T203 540Q162 540 130 521T81 471T63 400Q63 362 80 331T130 280T203 261ZM138 317V492H201Q236 492 255 481T274 440Q274 419 263 405T227 391Q246 391 252 382T260 360T265 341T282 340V321Q274 315 263 314T242 321T233 350Q233 367 230
376T213 387T169 389V317H138ZM169 412H201Q223 412 234 416T245 437Q245 457 232 461T194 466H169V412Z" />
<glyph unicode="&#xaf;" glyph-name="overscore" horiz-adv-x="342" d="M40 730V790H302V730H40Z" />
<glyph unicode="&#xb0;" glyph-name="degree" horiz-adv-x="296" d="M135 363Q80 363 55 391T30 467Q30 515 54 544T135 573Q189 573 215 544T242 467Q242 422 216 393T135 363ZM134 417Q164 417 175 432T187 469Q187 491 176 507T134 523Q105 523 93 507T81 469Q81
446 94 432T134 417Z" />
<glyph unicode="&#xb1;" glyph-name="plusminus" horiz-adv-x="317" d="M129 143V220H40V271H129V349H180V271H262V220H180V143H129ZM40 46V97H262V46H40Z" />
<glyph unicode="&#xb2;" glyph-name="uni00B2" horiz-adv-x="240" d="M15 409V449Q15 449 34 459T79 486T129 525T165 570Q181 603 166 624T119 646Q93 646 77 629T65 575L21 581Q16 630 46 658T124 686Q159 686 184 669T217 625T209 565Q197 541 176 521T130
486T87 461T63 450H225V409H15Z" />
<glyph unicode="&#xb3;" glyph-name="uni00B3" horiz-adv-x="243" d="M126 399Q79 399 47 423T15 497L60 504Q61 472 79 456T127 440Q151 440 167 453T184 487Q184 510 166 519T131 528H99V553H132Q152 553 166 561T180 589Q180 611 165 624T123 637Q92 637 78
619T63 584L21 590Q21 600 30 620T61 658T122 676Q169 676 195 656T222 600Q222 577 209 561T172 540Q196 536 212 519T228 477Q228 440 199 420T126 399Z" />
<glyph unicode="&#xb4;" glyph-name="acute" horiz-adv-x="600" d="M75 632H36V644L84 745H156V729L75 632Z" />
<glyph unicode="&#xb5;" glyph-name="uni00B5" horiz-adv-x="515" d="M67 -155V409H149V198Q149 162 156 132T184 83T250 65Q291 65 314 83T346 132T358 194V409H443V1H372L363 68H360Q348 41 324 16T252 -10Q212 -10 189 3T151 38H149V-155H67Z" />
<glyph unicode="&#xb6;" glyph-name="paragraph" horiz-adv-x="516" d="M236 -91V312H217Q162 313 116 331T43 391T16 505Q16 575 43 616T115 677T215 698H307V698H500V628H437V-91H366L365 628H307V-91H236Z" />
<glyph unicode="&#xb7;" glyph-name="middot" horiz-adv-x="229" d="M110 193Q71 193 58 212T45 258Q45 283 58 302T110 321Q149 321 161 302T174 258Q174 231 162 212T110 193Z" />
<glyph unicode="&#xb8;" glyph-name="cedilla" horiz-adv-x="284" d="M35 -118L62 -77Q74 -89 95 -96T139 -105T177 -99T192 -73Q191 -57 176 -51T141 -48T106 -65L70 -44L111 43L152 27L113 -34Q127 -22 149 -17T195 -15T233 -33T249 -75Q249 -106 228 -125T173
-151T103 -150T35 -118Z" />
<glyph unicode="&#xb9;" glyph-name="uni00B9" horiz-adv-x="175" d="M30 408V450H75V635Q70 611 57 600T31 584T15 580V632Q19 631 34 633T64 647T80 685H122V450H160V408H30Z" />
<glyph unicode="&#xba;" glyph-name="ordmasculine" horiz-adv-x="306" d="M154 410Q84 410 50 450T15 554Q15 616 49 656T154 697Q221 697 256 658T291 554Q291 492 258 451T154 410ZM154 458Q186 458 204 472T229 509T236 555Q236 578 229 600T204 638T154 653Q120
653 102 638T78 601T71 555Q71 532 77 510T102 473T154 458Z" />
<glyph unicode="&#xbb;" glyph-name="guillemotright" horiz-adv-x="495" d="M185 519L480 295L185 68V133L406 295L185 452V519ZM15 519L310 295L15 68V138L236 295L15 447V519Z" />
<glyph unicode="&#xbc;" glyph-name="onequarter" horiz-adv-x="695" d="M38 290V332H83V517Q78 494 65 482T39 466T23 462V515Q27 514 42 516T72 529T88 567H130V332H168V290H38ZM166 0L108 41L336 299L527 563L584 523L365 276L166 0ZM434 55V96Q468 111 492
142T529 209T543 277H595Q595 229 565 179T483 96H575V138H623V96H658V55H623V0H575V55H434Z" />
<glyph unicode="&#xbd;" glyph-name="onehalf" horiz-adv-x="722" d="M38 290V332H83V517Q78 494 65 482T39 466T23 462V515Q27 514 42 516T72 529T88 567H130V332H168V290H38ZM166 0L108 41L336 299L527 563L584 523L365 276L166 0ZM475 0V40Q475 40 494 50T539
77T589 116T625 161Q641 194 626 215T579 237Q553 237 537 220T525 166L481 172Q476 221 506 249T584 277Q619 277 644 260T677 216T669 156Q657 132 636 112T590 77T547 52T523 41H685V0H475Z" />
<glyph unicode="&#xbe;" glyph-name="threequarters" horiz-adv-x="695" d="M134 296Q87 296 55 320T23 394L68 401Q69 369 87 353T135 337Q159 337 175 350T192 384Q192 407 174 416T139 425H107V450H140Q160 450 174 458T188 486Q188 508 173 521T131 534Q100
534 86 516T71 481L29 487Q29 497 38 517T69 555T130 573Q177 573 203 553T230 497Q230 474 217 458T180 437Q204 433 220 416T236 374Q236 337 207 317T134 296ZM166 0L108 41L336 299L527 563L584 523L365 276L166 0ZM434 55V96Q468 111 492 142T529 209T543
277H595Q595 229 565 179T483 96H575V138H623V96H658V55H623V0H575V55H434Z" />
<glyph unicode="&#xbf;" glyph-name="questiondown" horiz-adv-x="439" d="M240 379Q269 379 279 364T289 327Q289 306 279 292T240 277Q211 277 201 291T191 327Q191 349 201 364T240 379ZM203 215H277Q277 182 262 156T224 107T179 64T141 19T124 -34Q122 -75
148 -100T222 -126Q265 -126 287 -107T318 -59T327 -4H406Q411 -52 395 -97T337 -170T227 -199Q175 -199 133 -180T66 -127T41 -44Q41 -4 57 24T97 73T145 115T185 159T203 215Z" />
<glyph unicode="&#xc0;" glyph-name="Agrave" horiz-adv-x="554" d="M19 0L208 563H345L538 0H449L395 168H161L107 0H19ZM278 528L183 234H373L278 528ZM254 610L173 707V723H245L293 622V610H254Z" />
<glyph unicode="&#xc1;" glyph-name="Aacute" horiz-adv-x="554" d="M19 0L208 563H345L538 0H449L395 168H161L107 0H19ZM278 528L183 234H373L278 528ZM295 610H256V622L304 723H376V707L295 610Z" />
<glyph unicode="&#xc2;" glyph-name="Acircumflex" horiz-adv-x="554" d="M19 0L208 563H345L538 0H449L395 168H161L107 0H19ZM278 528L183 234H373L278 528ZM147 876V884L261 990H297L410 884V876H335L281 935H277L225 876H147Z" />
<glyph unicode="&#xc3;" glyph-name="Atilde" horiz-adv-x="554" d="M19 0L208 563H345L538 0H449L395 168H161L107 0H19ZM278 528L183 234H373L278 528ZM332 620Q308 620 294 628T270 648T251 667T229 676Q212 676 209 662T206 623H154Q154 641 157 665T174 707T224
725Q248 725 262 717T286 697T305 678T328 670Q345 670 348 684T351 724H402Q403 700 399 676T380 636T332 620Z" />
<glyph unicode="&#xc4;" glyph-name="Adieresis" horiz-adv-x="554" d="M19 0L208 563H345L538 0H449L395 168H161L107 0H19ZM278 528L183 234H373L278 528ZM195 879Q162 879 151 895T140 934Q140 955 151 971T195 987Q228 987 238 971T249 934Q249 911 239 895T195
879ZM364 879Q331 879 320 895T309 934Q309 955 320 971T364 987Q397 987 407 971T418 934Q418 911 408 895T364 879Z" />
<glyph unicode="&#xc5;" glyph-name="Aring" horiz-adv-x="554" d="M19 0L208 563H345L538 0H449L395 168H161L107 0H19ZM278 528L183 234H373L278 528ZM272 607Q225 607 201 632T177 700Q177 744 200 770T272 796Q319 796 344 770T369 700Q369 660 344 634T272
607ZM271 656Q294 656 306 669T318 702Q318 722 306 735T271 749Q249 749 237 735T225 702Q225 682 237 669T271 656Z" />
<glyph unicode="&#xc6;" glyph-name="AE" horiz-adv-x="847" d="M19 0L353 563H801V491H494V320H734V251H494V68H811V0H412V168H205L108 0H19ZM243 234H412V524L243 234Z" />
<glyph unicode="&#xc7;" glyph-name="Ccedilla" horiz-adv-x="599" d="M300 -10Q222 -10 159 22T59 119T22 280Q23 375 59 440T158 539T304 573Q413 573 480 515T563 363H477Q469 411 443 440T380 482T304 495Q209 495 157 441T105 285Q105 179 156 124T301 68Q366
68 417 99T480 202H567Q550 108 483 49T300 -10ZM200 -134L227 -93Q239 -105 260 -112T304 -121T342 -115T357 -89Q356 -73 341 -67T306 -64T271 -81L235 -60L276 27L317 11L278 -50Q292 -38 314 -33T360 -31T398 -49T414 -91Q414 -122 393 -141T338 -167T268 -166T200
-134Z" />
<glyph unicode="&#xc8;" glyph-name="Egrave" horiz-adv-x="490" d="M137 68H455V0H55V563H445V491H137V320H377V251H137V68ZM213 866L132 963V979H204L252 878V866H213Z" />
<glyph unicode="&#xc9;" glyph-name="Eacute" horiz-adv-x="490" d="M137 68H455V0H55V563H445V491H137V320H377V251H137V68ZM251 610H212V622L260 723H332V707L251 610Z" />
<glyph unicode="&#xca;" glyph-name="Ecircumflex" horiz-adv-x="490" d="M137 68H455V0H55V563H445V491H137V320H377V251H137V68ZM115 884V892L229 998H265L378 892V884H303L249 943H245L193 884H115Z" />
<glyph unicode="&#xcb;" glyph-name="Edieresis" horiz-adv-x="490" d="M137 68H455V0H55V563H445V491H137V320H377V251H137V68ZM169 879Q136 879 125 895T114 934Q114 955 125 971T169 987Q202 987 212 971T223 934Q223 911 213 895T169 879ZM338 879Q305 879
294 895T283 934Q283 955 294 971T338 987Q371 987 381 971T392 934Q392 911 382 895T338 879Z" />
<glyph unicode="&#xcc;" glyph-name="Igrave" horiz-adv-x="360" d="M294 72V0H59V72H136V491H59V563H294V491H218V72H294ZM144 866L63 963V979H135L183 878V866H144Z" />
<glyph unicode="&#xcd;" glyph-name="Iacute" horiz-adv-x="360" d="M294 72V0H59V72H136V491H59V563H294V491H218V72H294ZM187 866H148V878L196 979H268V963L187 866Z" />
<glyph unicode="&#xce;" glyph-name="Icircumflex" horiz-adv-x="360" d="M294 72V0H59V72H136V491H59V563H294V491H218V72H294ZM300 884V892L414 998H450L563 892V884H488L434 943H430L378 884H300Z" />
<glyph unicode="&#xcf;" glyph-name="Idieresis" horiz-adv-x="360" d="M294 72V0H59V72H136V491H59V563H294V491H218V72H294ZM349 879Q316 879 305 895T294 934Q294 955 305 971T349 987Q382 987 392 971T403 934Q403 911 393 895T349 879ZM518 879Q485 879 474
895T463 934Q463 955 474 971T518 987Q551 987 561 971T572 934Q572 911 562 895T518 879Z" />
<glyph unicode="&#xd0;" glyph-name="Eth" horiz-adv-x="600" d="M65 0V258H0V315H65V563H217Q321 563 398 532T519 438T562 282Q562 171 519 110T399 24T217 0H65ZM148 70H239Q310 70 363 86T445 149T474 283Q474 388 410 439T239 491H148V315H304V258H148V70Z" />
<glyph unicode="&#xd1;" glyph-name="Ntilde" horiz-adv-x="594" d="M451 563H536V0H379L142 526H140V0H55V563H202L449 37H451V563ZM346 620Q322 620 308 628T284 648T265 667T243 676Q226 676 223 662T220 623H168Q168 641 171 665T188 707T238 725Q262 725
276 717T300 697T319 678T342 670Q359 670 362 684T365 724H416Q417 700 413 676T394 636T346 620Z" />
<glyph unicode="&#xd2;" glyph-name="Ograve" horiz-adv-x="608" d="M297 -14Q162 -14 91 65T20 280Q20 369 50 434T142 536T297 573Q432 573 502 494T573 280Q573 193 542 127T449 23T297 -14ZM296 66Q393 66 442 126T491 280Q491 374 443 434T296 495Q200 495
151 437T101 280Q101 218 122 170T186 94T296 66ZM273 610L192 707V723H264L312 622V610H273Z" />
<glyph unicode="&#xd3;" glyph-name="Oacute" horiz-adv-x="608" d="M297 -14Q162 -14 91 65T20 280Q20 369 50 434T142 536T297 573Q432 573 502 494T573 280Q573 193 542 127T449 23T297 -14ZM296 66Q393 66 442 126T491 280Q491 374 443 434T296 495Q200 495
151 437T101 280Q101 218 122 170T186 94T296 66ZM320 610H281V622L329 723H401V707L320 610Z" />
<glyph unicode="&#xd4;" glyph-name="Ocircumflex" horiz-adv-x="608" d="M297 -14Q162 -14 91 65T20 280Q20 369 50 434T142 536T297 573Q432 573 502 494T573 280Q573 193 542 127T449 23T297 -14ZM296 66Q393 66 442 126T491 280Q491 374 443 434T296 495Q200
495 151 437T101 280Q101 218 122 170T186 94T296 66ZM167 884V892L281 998H317L430 892V884H355L301 943H297L245 884H167Z" />
<glyph unicode="&#xd5;" glyph-name="Otilde" horiz-adv-x="608" d="M297 -14Q162 -14 91 65T20 280Q20 369 50 434T142 536T297 573Q432 573 502 494T573 280Q573 193 542 127T449 23T297 -14ZM296 66Q393 66 442 126T491 280Q491 374 443 434T296 495Q200 495
151 437T101 280Q101 218 122 170T186 94T296 66ZM352 623Q328 623 314 631T290 651T271 670T249 679Q232 679 229 665T226 626H174Q174 644 177 668T194 710T244 728Q268 728 282 720T306 700T325 681T348 673Q365 673 368 687T371 727H422Q423 703 419 679T400
639T352 623Z" />
<glyph unicode="&#xd6;" glyph-name="Odieresis" horiz-adv-x="608" d="M297 -14Q162 -14 91 65T20 280Q20 369 50 434T142 536T297 573Q432 573 502 494T573 280Q573 193 542 127T449 23T297 -14ZM296 66Q393 66 442 126T491 280Q491 374 443 434T296 495Q200
495 151 437T101 280Q101 218 122 170T186 94T296 66ZM220 879Q187 879 176 895T165 934Q165 955 176 971T220 987Q253 987 263 971T274 934Q274 911 264 895T220 879ZM389 879Q356 879 345 895T334 934Q334 955 345 971T389 987Q422 987 432 971T443 934Q443 911
433 895T389 879Z" />
<glyph unicode="&#xd7;" glyph-name="multiply" horiz-adv-x="316" d="M281 300L200 218L281 136L241 94L158 177L77 95L35 137L117 218L36 299L77 341L158 260L240 341L281 300Z" />
<glyph unicode="&#xd8;" glyph-name="Oslash" horiz-adv-x="600" d="M86 -24L126 34Q74 71 47 134T20 280Q20 369 50 434T142 536T296 573Q348 573 390 561T466 526L512 592L537 578L488 508Q573 430 573 280Q573 193 542 127T449 23T297 -14Q212 -14 151 19L111
-39L86 -24ZM101 280Q101 223 119 177T174 103L419 457Q395 475 365 485T296 495Q200 495 151 437T101 280ZM296 66Q393 66 442 126T491 280Q491 328 479 368T440 438L198 87Q240 66 296 66Z" />
<glyph unicode="&#xd9;" glyph-name="Ugrave" horiz-adv-x="586" d="M292 -14Q176 -14 115 52T53 240V563H140V241Q140 176 161 138T216 82T292 65Q337 65 371 81T425 136T445 241V563H532V240Q532 117 472 52T292 -14ZM264 610L183 707V723H255L303 622V610H264Z" />
<glyph unicode="&#xda;" glyph-name="Uacute" horiz-adv-x="586" d="M292 -14Q176 -14 115 52T53 240V563H140V241Q140 176 161 138T216 82T292 65Q337 65 371 81T425 136T445 241V563H532V240Q532 117 472 52T292 -14ZM308 610H269V622L317 723H389V707L308 610Z" />
<glyph unicode="&#xdb;" glyph-name="Ucircumflex" horiz-adv-x="586" d="M292 -14Q176 -14 115 52T53 240V563H140V241Q140 176 161 138T216 82T292 65Q337 65 371 81T425 136T445 241V563H532V240Q532 117 472 52T292 -14ZM162 876V884L276 990H312L425 884V876H350L296
935H292L240 876H162Z" />
<glyph unicode="&#xdc;" glyph-name="Udieresis" horiz-adv-x="586" d="M292 -14Q176 -14 115 52T53 240V563H140V241Q140 176 161 138T216 82T292 65Q337 65 371 81T425 136T445 241V563H532V240Q532 117 472 52T292 -14ZM211 879Q178 879 167 895T156 934Q156
955 167 971T211 987Q244 987 254 971T265 934Q265 911 255 895T211 879ZM380 879Q347 879 336 895T325 934Q325 955 336 971T380 987Q413 987 423 971T434 934Q434 911 424 895T380 879Z" />
<glyph unicode="&#xdd;" glyph-name="Yacute" horiz-adv-x="439" d="M175 0V202L-17 563H76L218 277L359 563H452L258 203V0H175ZM230 610H191V622L239 723H311V707L230 610Z" />
<glyph unicode="&#xde;" glyph-name="Thorn" horiz-adv-x="487" d="M143 0H60V563H143V461H274Q367 461 417 415T468 277Q468 194 416 148T274 102H143V0ZM263 392H143V165H263Q323 165 358 193T393 278Q393 337 359 364T263 392Z" />
<glyph unicode="&#xdf;" glyph-name="germandbls" horiz-adv-x="555" d="M352 -10Q293 -10 256 10T199 62T175 130H247Q247 129 250 119T263 96T292 73T342 63Q392 63 422 91T452 157Q451 189 432 210T383 244T325 270T276 296T256 334Q256 354 268 365T297 383T332
399T362 422T375 461Q375 476 357 483T314 492T266 495H138V0H55V563H266Q290 563 321 562T383 555T433 530T453 478Q453 447 440 428T407 398T368 378T335 360T322 336Q321 318 342 308T395 286T458 259T511 216T533 143Q533 97 508 63T441 9T352 -10Z" />
<glyph unicode="&#xe0;" glyph-name="agrave" horiz-adv-x="440" d="M180 -9Q123 -9 88 17T37 91T20 200Q20 293 58 352T180 412Q225 412 253 396T296 360T318 325H320V409H405V0H334L320 73H318Q312 58 296 39T252 5T180 -9ZM213 62Q272 62 295 100T319 199Q319
263 295 300T213 337Q171 337 147 319T113 269T102 200Q102 141 127 102T213 62ZM204 453L123 550V566H195L243 465V453H204Z" />
<glyph unicode="&#xe1;" glyph-name="aacute" horiz-adv-x="440" d="M180 -9Q123 -9 88 17T37 91T20 200Q20 293 58 352T180 412Q225 412 253 396T296 360T318 325H320V409H405V0H334L320 73H318Q312 58 296 39T252 5T180 -9ZM213 62Q272 62 295 100T319 199Q319
263 295 300T213 337Q171 337 147 319T113 269T102 200Q102 141 127 102T213 62ZM240 453H201V465L249 566H321V550L240 453Z" />
<glyph unicode="&#xe2;" glyph-name="acircumflex" horiz-adv-x="440" d="M180 -9Q123 -9 88 17T37 91T20 200Q20 293 58 352T180 412Q225 412 253 396T296 360T318 325H320V409H405V0H334L320 73H318Q312 58 296 39T252 5T180 -9ZM213 62Q272 62 295 100T319
199Q319 263 295 300T213 337Q171 337 147 319T113 269T102 200Q102 141 127 102T213 62ZM85 463V471L199 577H235L348 471V463H273L219 522H215L163 463H85Z" />
<glyph unicode="&#xe3;" glyph-name="atilde" horiz-adv-x="440" d="M180 -9Q123 -9 88 17T37 91T20 200Q20 293 58 352T180 412Q225 412 253 396T296 360T318 325H320V409H405V0H334L320 73H318Q312 58 296 39T252 5T180 -9ZM213 62Q272 62 295 100T319 199Q319
263 295 300T213 337Q171 337 147 319T113 269T102 200Q102 141 127 102T213 62ZM270 471Q246 471 232 479T208 499T189 518T167 527Q150 527 147 513T144 474H92Q92 492 95 516T112 558T162 576Q186 576 200 568T224 548T243 529T266 521Q283 521 286 535T289
575H340Q341 551 337 527T318 487T270 471Z" />
<glyph unicode="&#xe4;" glyph-name="adieresis" horiz-adv-x="497" d="M148 456Q115 456 104 472T93 511Q93 532 104 548T148 565Q180 565 190 549T201 511Q201 489 191 473T148 456ZM317 456Q284 456 273 472T262 511Q262 532 273 548T317 565Q349 565 359 549T370
511Q370 489 360 473T317 456ZM201 -9Q140 -9 100 20T40 97T20 204Q20 263 40 311T101 388T201 417Q250 417 285 397T343 344V409H426V107Q426 67 443 58T484 61L487 13Q485 12 469 2T419 -9Q389 -9 373 3T351 33T343 70Q322 35 287 13T201 -9ZM223 58Q285 58 311
99T338 204Q338 268 311 310T223 352Q179 352 153 332T115 278T104 204Q104 164 115 131T153 78T223 58Z" />
<glyph unicode="&#xe5;" glyph-name="aring" horiz-adv-x="440" d="M180 -9Q123 -9 88 17T37 91T20 200Q20 293 58 352T180 412Q225 412 253 396T296 360T318 325H320V409H405V0H334L320 73H318Q312 58 296 39T252 5T180 -9ZM213 62Q272 62 295 100T319 199Q319
263 295 300T213 337Q171 337 147 319T113 269T102 200Q102 141 127 102T213 62ZM215 725Q168 725 144 750T120 818Q120 862 143 888T215 914Q262 914 287 888T312 818Q312 778 287 752T215 725ZM214 774Q237 774 249 787T261 820Q261 840 249 853T214 867Q192
867 180 853T168 820Q168 800 180 787T214 774Z" />
<glyph unicode="&#xe6;" glyph-name="ae" horiz-adv-x="730" d="M147 0Q91 0 58 29T24 106Q24 151 50 175T117 213T201 235Q245 245 267 252T297 267T305 290Q305 322 280 339T220 357Q197 357 176 349T140 322T125 273H47Q50 325 75 357T140 405T221 420Q264
420 302 403T358 353Q381 383 418 402T508 421Q559 421 600 397T665 329T693 231V205H386Q386 143 417 108T507 73Q551 73 578 94T615 153L695 140Q679 80 632 40T507 0Q451 0 411 20T347 74T313 148Q310 117 291 83T235 24T147 0ZM387 252H609Q609 263 605 281T589
317T558 347T505 360Q464 360 439 342T402 299T387 252ZM177 62Q216 63 244 87T287 151T303 235Q293 226 271 220T226 207Q194 199 167 188T124 160T108 115Q109 88 129 75T177 62Z" />
<glyph unicode="&#xe7;" glyph-name="ccedilla" horiz-adv-x="461" d="M230 -10Q172 -10 126 14T54 84T27 196Q28 261 55 309T127 383T232 410Q290 410 331 388T397 331T426 255H349Q341 294 311 316T235 338Q175 338 142 300T108 202Q108 138 140 101T234 63Q277
63 309 85T349 149H426Q421 107 397 71T330 12T230 -10ZM120 123L147 164Q159 152 180 145T224 136T262 142T277 168Q276 184 261 190T226 193T191 176L155 197L196 284L237 268L198 207Q212 219 234 224T280 226T318 208T334 166Q334 135 313 116T258 90T188 91T120
123Z" />
<glyph unicode="&#xe8;" glyph-name="egrave" horiz-adv-x="457" d="M226 -10Q157 -10 113 20T48 99T27 200Q26 259 49 307T117 383T224 411Q277 411 319 388T387 322T414 221Q414 218 414 210T415 195H106Q106 131 137 96T225 60Q267 60 296 81T333 139H414Q405
75 356 33T226 -10ZM109 236H331Q330 247 325 265T309 300T276 330T222 342Q181 342 158 325T123 283T109 236ZM204 453L123 550V566H195L243 465V453H204Z" />
<glyph unicode="&#xe9;" glyph-name="eacute" horiz-adv-x="457" d="M226 -10Q157 -10 113 20T48 99T27 200Q26 259 49 307T117 383T224 411Q277 411 319 388T387 322T414 221Q414 218 414 210T415 195H106Q106 131 137 96T225 60Q267 60 296 81T333 139H414Q405
75 356 33T226 -10ZM109 236H331Q330 247 325 265T309 300T276 330T222 342Q181 342 158 325T123 283T109 236ZM239 453H200V465L248 566H320V550L239 453Z" />
<glyph unicode="&#xea;" glyph-name="ecircumflex" horiz-adv-x="457" d="M226 -10Q157 -10 113 20T48 99T27 200Q26 259 49 307T117 383T224 411Q277 411 319 388T387 322T414 221Q414 218 414 210T415 195H106Q106 131 137 96T225 60Q267 60 296 81T333 139H414Q405
75 356 33T226 -10ZM109 236H331Q330 247 325 265T309 300T276 330T222 342Q181 342 158 325T123 283T109 236ZM91 459V467L205 573H241L354 467V459H279L225 518H221L169 459H91Z" />
<glyph unicode="&#xeb;" glyph-name="edieresis" horiz-adv-x="457" d="M226 -10Q157 -10 113 20T48 99T27 200Q26 259 49 307T117 383T224 411Q277 411 319 388T387 322T414 221Q414 218 414 210T415 195H106Q106 131 137 96T225 60Q267 60 296 81T333 139H414Q405
75 356 33T226 -10ZM109 236H331Q330 247 325 265T309 300T276 330T222 342Q181 342 158 325T123 283T109 236ZM138 457Q105 457 94 473T83 512Q83 533 94 549T138 565Q171 565 181 549T192 512Q192 489 182 473T138 457ZM307 457Q274 457 263 473T252 512Q252
533 263 549T307 565Q340 565 350 549T361 512Q361 489 351 473T307 457Z" />
<glyph unicode="&#xec;" glyph-name="igrave" horiz-adv-x="191" d="M79 457L-3 553V570H70L118 468V457H79ZM54 0V409H137V0H54Z" />
<glyph unicode="&#xed;" glyph-name="iacute" horiz-adv-x="185" d="M103 459H64V470L112 572H184V555L103 459ZM43 0V411H126V0H43Z" />
<glyph unicode="&#xee;" glyph-name="icircumflex" horiz-adv-x="225" d="M-20 459V467L93 573H129L243 467V459H167L113 518H109L57 459H-20ZM70 0V411H153V0H70Z" />
<glyph unicode="&#xef;" glyph-name="idieresis" horiz-adv-x="243" d="M35 456Q2 456 -9 472T-20 511Q-20 532 -9 548T35 565Q68 565 78 549T89 511Q89 489 79 473T35 456ZM204 456Q171 456 160 472T149 511Q149 532 160 548T204 565Q237 565 247 549T258 511Q258
489 248 473T204 456ZM78 0V411H161V0H78Z" />
<glyph unicode="&#xf0;" glyph-name="eth" horiz-adv-x="505" d="M251 -10Q183 -10 137 19T66 93T40 190T55 286T114 361T214 390Q263 390 297 371T353 327T383 282T393 263H394Q385 315 352 365T279 456L223 422L192 451L248 485Q202 525 171 537L228 606Q258
593 284 576T332 536L400 577L431 548L361 505Q410 449 436 380T464 243T445 117T375 25T251 -10ZM394 168Q393 217 373 251T320 303T251 325T184 315T135 271T120 194Q123 144 148 113T211 68T287 60T355 93T394 168Z" />
<glyph unicode="&#xf1;" glyph-name="ntilde" d="M38 0V408H109L123 314H125Q126 318 133 333T156 365T199 396T267 409Q321 409 351 389T395 336T412 267T416 200V0H335V201Q335 239 327 269T298 317T235 335Q193 335 168 315T133 263T123 195V0H38ZM293 471Q269
471 255 479T231 499T212 518T190 527Q173 527 170 513T167 474H115Q115 492 118 516T135 558T185 576Q209 576 223 568T247 548T266 529T289 521Q306 521 309 535T312 575H363Q364 551 360 527T341 487T293 471Z" />
<glyph unicode="&#xf2;" glyph-name="ograve" horiz-adv-x="465" d="M227 -10Q125 -10 75 49T25 199Q24 291 75 350T227 410Q325 410 376 352T427 199Q427 140 406 93T340 18T227 -10ZM227 61Q275 61 300 82T336 135T346 202Q346 236 336 268T301 322T227 344Q178
344 152 323T116 269T106 202Q106 168 116 136T152 82T227 61ZM204 453L123 550V566H195L243 465V453H204Z" />
<glyph unicode="&#xf3;" glyph-name="oacute" horiz-adv-x="465" d="M227 -10Q125 -10 75 49T25 199Q24 291 75 350T227 410Q325 410 376 352T427 199Q427 140 406 93T340 18T227 -10ZM227 61Q275 61 300 82T336 135T346 202Q346 236 336 268T301 322T227 344Q178
344 152 323T116 269T106 202Q106 168 116 136T152 82T227 61ZM239 453H200V465L248 566H320V550L239 453Z" />
<glyph unicode="&#xf4;" glyph-name="ocircumflex" horiz-adv-x="465" d="M227 -10Q125 -10 75 49T25 199Q24 291 75 350T227 410Q325 410 376 352T427 199Q427 140 406 93T340 18T227 -10ZM227 61Q275 61 300 82T336 135T346 202Q346 236 336 268T301 322T227
344Q178 344 152 323T116 269T106 202Q106 168 116 136T152 82T227 61ZM91 459V467L205 573H241L354 467V459H279L225 518H221L169 459H91Z" />
<glyph unicode="&#xf5;" glyph-name="otilde" horiz-adv-x="465" d="M227 -10Q125 -10 75 49T25 199Q24 291 75 350T227 410Q325 410 376 352T427 199Q427 140 406 93T340 18T227 -10ZM227 61Q275 61 300 82T336 135T346 202Q346 236 336 268T301 322T227 344Q178
344 152 323T116 269T106 202Q106 168 116 136T152 82T227 61ZM279 471Q255 471 241 479T217 499T198 518T176 527Q159 527 156 513T153 474H101Q101 492 104 516T121 558T171 576Q195 576 209 568T233 548T252 529T275 521Q292 521 295 535T298 575H349Q350 551
346 527T327 487T279 471Z" />
<glyph unicode="&#xf6;" glyph-name="odieresis" horiz-adv-x="465" d="M227 -10Q125 -10 75 49T25 199Q24 291 75 350T227 410Q325 410 376 352T427 199Q427 140 406 93T340 18T227 -10ZM227 61Q275 61 300 82T336 135T346 202Q346 236 336 268T301 322T227 344Q178
344 152 323T116 269T106 202Q106 168 116 136T152 82T227 61ZM138 457Q105 457 94 473T83 512Q83 533 94 549T138 565Q171 565 181 549T192 512Q192 489 182 473T138 457ZM307 457Q274 457 263 473T252 512Q252 533 263 549T307 565Q340 565 350 549T361 512Q361
489 351 473T307 457Z" />
<glyph unicode="&#xf7;" glyph-name="divide" horiz-adv-x="317" d="M151 291Q133 291 124 301T115 329Q114 345 123 356T151 367Q169 367 178 357T188 329Q188 312 179 302T151 291ZM40 195V255H262V195H40ZM151 81Q133 81 124 92T115 119Q114 136 123 146T151
157Q169 157 178 147T188 119Q188 103 179 92T151 81Z" />
<glyph unicode="&#xf8;" glyph-name="oslash" horiz-adv-x="458" d="M60 -24L94 31Q60 59 43 102T25 199Q24 291 75 350T226 410Q280 410 321 391L356 447L382 433L347 377Q386 350 406 305T427 199Q427 140 406 93T340 18T227 -10Q164 -10 119 15L85 -39L60 -24ZM106
202Q106 174 112 146T136 98L284 332Q260 344 227 344Q178 344 152 323T116 269T106 202ZM227 61Q275 61 300 82T336 135T346 202Q346 233 338 264T308 315L159 78Q186 61 227 61Z" />
<glyph unicode="&#xf9;" glyph-name="ugrave" horiz-adv-x="453" d="M185 -10Q133 -10 103 9T58 61T39 129T34 199V409H116V199Q116 163 123 132T151 83T217 64Q259 64 282 83T314 132T325 195L326 409H411V0H340L326 85H324Q320 72 305 50T261 9T185 -10ZM203
457L122 554V570H194L242 469V457H203Z" />
<glyph unicode="&#xfa;" glyph-name="uacute" horiz-adv-x="453" d="M185 -10Q133 -10 103 9T58 61T39 129T34 199V409H116V199Q116 163 123 132T151 83T217 64Q259 64 282 83T314 132T325 195L326 409H411V0H340L326 85H324Q320 72 305 50T261 9T185 -10ZM240
459H201V471L249 572H321V556L240 459Z" />
<glyph unicode="&#xfb;" glyph-name="ucircumflex" horiz-adv-x="453" d="M185 -10Q133 -10 103 9T58 61T39 129T34 199V409H116V199Q116 163 123 132T151 83T217 64Q259 64 282 83T314 132T325 195L326 409H411V0H340L326 85H324Q320 72 305 50T261 9T185 -10ZM89
459V467L203 573H239L352 467V459H277L223 518H219L167 459H89Z" />
<glyph unicode="&#xfc;" glyph-name="udieresis" horiz-adv-x="453" d="M185 -10Q133 -10 103 9T58 61T39 129T34 199V409H116V199Q116 163 123 132T151 83T217 64Q259 64 282 83T314 132T325 195L326 409H411V0H340L326 85H324Q320 72 305 50T261 9T185 -10ZM136
457Q103 457 92 473T81 512Q81 533 92 549T136 565Q169 565 179 549T190 512Q190 489 180 473T136 457ZM305 457Q272 457 261 473T250 512Q250 533 261 549T305 565Q338 565 348 549T359 512Q359 489 349 473T305 457Z" />
<glyph unicode="&#xfd;" glyph-name="yacute" horiz-adv-x="424" d="M-2 -186V-121H57Q78 -121 92 -112T126 -61L161 16L1 409H87L202 102L325 409H412L202 -70Q180 -121 162 -146T122 -178T67 -186H-2ZM215 459H176V471L224 572H296V556L215 459Z" />
<glyph unicode="&#xfe;" glyph-name="thorn" horiz-adv-x="485" d="M50 -199V563H136V296Q137 300 145 317T170 356T215 393T285 409Q342 409 378 379T433 302T451 203Q451 150 434 101T380 21T285 -10Q247 -10 220 4T175 37T148 72T136 92V-199H50ZM249 60Q291
60 315 80T349 131T360 198Q360 232 349 263T312 315T246 336Q199 336 171 307T136 230V165Q143 118 171 89T249 60ZM134 198Q134 182 136 168V228Q134 213 134 198ZM136 93V93Q135 93 136 93Z" />
<glyph unicode="&#xff;" glyph-name="ydieresis" horiz-adv-x="424" d="M-2 -186V-121H57Q78 -121 92 -112T126 -61L161 16L1 409H87L202 102L325 409H412L202 -70Q180 -121 162 -146T122 -178T67 -186H-2ZM125 457Q92 457 81 473T70 512Q70 533 81 549T125 565Q158
565 168 549T179 512Q179 489 169 473T125 457ZM294 457Q261 457 250 473T239 512Q239 533 250 549T294 565Q327 565 337 549T348 512Q348 489 338 473T294 457Z" />
<glyph unicode="&#x2013;" glyph-name="endash" horiz-adv-x="417" d="M40 195V255H362V195H40Z" />
<glyph unicode="&#x2014;" glyph-name="emdash" horiz-adv-x="557" d="M40 195V255H502V195H40Z" />
<glyph unicode="&#x2018;" glyph-name="quoteleft" horiz-adv-x="221" d="M87 349Q59 349 49 363T38 399V399Q38 399 38 399V400V400Q38 406 39 424T47 466T66 512T103 548T161 563V492Q124 492 106 479T79 449H85Q114 449 125 435T136 399Q136 378 125 364T87 349Z" />
<glyph unicode="&#x2019;" glyph-name="quoteright" horiz-adv-x="196" d="M30 349V420Q67 420 85 433T112 463H106Q78 463 67 477T56 513Q56 534 66 548T105 563Q132 563 142 549T153 513H154Q154 512 153 512H154H153Q153 505 152 487T144 445T125 400T88 363T30 349Z" />
<glyph unicode="&#x201a;" glyph-name="quotesinglbase" horiz-adv-x="221" d="M48 -87V-16Q85 -16 103 -3T129 27H124Q95 27 84 41T73 77Q73 98 84 112T122 127Q149 127 160 113T171 77V77Q171 76 171 76V76V76Q171 69 170 51T162 9T142 -36T106 -73T48 -87Z" />
<glyph unicode="&#x201c;" glyph-name="quotedblleft" horiz-adv-x="360" d="M38 349V420Q75 420 93 433T119 463H114Q85 463 74 477T63 513Q63 534 74 548T112 563Q139 563 150 549T161 513V513Q161 512 161 512V512V512Q161 505 160 487T152 445T132 400T96
363T38 349ZM181 349V420Q218 420 236 433T263 463H257Q229 463 218 477T207 513Q207 534 217 548T256 563Q283 563 293 549T304 513H305Q305 512 304 512H305H304Q304 505 303 487T295 445T276 400T239 363T181 349Z" />
<glyph unicode="&#x201d;" glyph-name="quotedblright" horiz-adv-x="360" d="M230 349Q203 349 192 363T181 399V399Q181 399 181 399V400V400Q181 406 182 424T190 466T210 512T246 548T305 563V492Q267 492 249 479T223 449H229Q257 449 268 435T279 399Q279
378 268 364T230 349ZM87 349Q59 349 49 363T38 399V399Q38 399 38 399V400V400Q38 406 39 424T47 466T66 512T103 548T161 563V492Q124 492 106 479T79 449H85Q114 449 125 435T136 399Q136 378 125 364T87 349Z" />
<glyph unicode="&#x201e;" glyph-name="quotedblbase" horiz-adv-x="348" d="M38 -87V-16Q75 -16 93 -3T119 27H114Q85 27 74 41T63 77Q63 98 74 112T112 127Q139 127 150 113T161 77V77Q161 76 161 76V76V76Q161 69 160 51T152 9T132 -36T96 -73T38 -87ZM181
-87V-16Q218 -16 236 -3T263 27H257Q229 27 218 41T207 77Q207 98 217 112T256 127Q283 127 293 113T304 77H305Q305 76 304 76H305H304Q304 69 303 51T295 9T276 -36T239 -73T181 -87Z" />
<glyph unicode="&#x2022;" glyph-name="bullet" horiz-adv-x="244" d="M110 193Q71 193 58 212T45 258Q45 283 58 302T110 321Q149 321 161 302T174 258Q174 231 162 212T110 193Z" />
<glyph unicode="&#x2039;" glyph-name="guilsinglleft" horiz-adv-x="401" d="M361 395V327L107 231L361 135V65L40 231L361 395Z" />
<glyph unicode="&#x203a;" glyph-name="guilsinglright" horiz-adv-x="408" d="M43 395L363 231L43 65V135L296 231L43 327V395Z" />
</font>
</defs>
</svg>
