<?xml version="1.0" standalone="no"?>
<!DOCTYPE svg PUBLIC "-//W3C//DTD SVG 1.1//EN" "http://www.w3.org/Graphics/SVG/1.1/DTD/svg11.dtd">
<svg xmlns="http://www.w3.org/2000/svg">
<defs >
<font id="DarkerGrotesque" horiz-adv-x="486" ><font-face
    font-family="Darker Grotesque Black"
    units-per-em="1000"
    panose-1="0 0 0 0 0 0 0 0 0 0"
    ascent="1060"
    descent="-296"
    alphabetic="0" />
<glyph unicode=" " glyph-name="space" horiz-adv-x="200" />
<glyph unicode="!" glyph-name="exclam" horiz-adv-x="255" d="M88 194Q79 248 69 301T53 401T51 485T75 542T134 563Q174 563 194 542T218 484T217 400T201 300T180 194Q180 194 169 197T134 200Q118 200 103 197T88 194ZM136 -9Q88 -9 72 14T56 69Q56 100 72
122T136 145Q181 145 197 123T214 69Q214 36 198 14T136 -9Z" />
<glyph unicode="&quot;" glyph-name="quotedbl" horiz-adv-x="415" d="M40 305V390H71Q98 390 111 395T124 421Q76 421 58 442T40 492Q40 522 57 542T114 563Q144 563 164 545T184 466Q184 425 173 388T137 328T71 305H40ZM241 305V390H272Q299 390 312 395T325
421Q277 421 259 442T241 492Q241 522 258 542T315 563Q345 563 365 545T385 466Q385 425 374 388T338 328T272 305H241Z" />
<glyph unicode="#" glyph-name="numbersign" horiz-adv-x="688" d="M52 0L102 118H15V237H152L183 309H70V428H220L263 563H393L336 428H421L464 563H594L538 428H623V309H488L458 237H571V118H421L384 0H253L303 118H217L180 0H52ZM255 238V237H353L384 309H285L255
238Z" />
<glyph unicode="$" glyph-name="dollar" horiz-adv-x="569" d="M230 -108L239 -6Q195 2 154 25T84 90T45 193L182 218Q182 216 185 200T199 163T232 128T294 113Q309 113 327 116T360 130T374 160Q374 185 350 198T289 219T211 239T133 269T76 324T59 417Q63 478
107 518T238 570L230 671H370L362 566Q428 550 474 502T521 371L389 350Q389 386 375 406T339 434T298 443T269 445Q250 445 228 435T204 399Q204 376 222 363T271 342T336 327T407 308T471 277T515 226T528 145Q524 86 476 48T361 -3L370 -108H230Z" />
<glyph unicode="%" glyph-name="percent" horiz-adv-x="643" d="M142 338Q81 338 54 370T26 454Q26 508 53 540T142 573Q203 573 232 541T261 454Q261 404 232 371T142 338ZM153 0L58 67L305 305L497 563L591 497L350 268L153 0ZM140 425Q159 425 166 434T174
457Q174 471 167 481T140 491Q123 491 115 481T107 457Q107 444 115 435T140 425ZM499 -10Q439 -10 412 22T384 109Q384 161 411 193T499 225Q561 225 589 193T617 109Q617 57 589 24T499 -10ZM497 77Q516 77 524 86T532 109Q532 123 524 133T497 143Q480 143 472
133T464 109Q464 96 472 87T497 77Z" />
<glyph unicode="&amp;" glyph-name="ampersand" horiz-adv-x="658" d="M592 -3Q556 13 524 29T462 62Q416 26 360 8T249 -9T147 11T73 68T45 162Q45 207 63 236T106 281T148 303T167 309Q167 309 151 324T120 367T104 437Q104 481 128 510T191 555T273 572T355
559T418 514T443 438Q443 401 428 374T391 329T355 303T339 294Q339 294 356 277T412 226Q412 225 417 231T426 248T428 271T410 296L528 371Q528 372 536 360T555 327T570 278T570 217T537 149Q554 140 578 127T643 97L592 -3ZM262 358Q291 374 306 388T325 417Q329
440 315 453T280 467T244 459T229 424Q231 391 262 358ZM354 141Q319 169 295 191T243 245Q221 234 201 221T181 179Q181 153 199 136T244 113T301 113T354 141Z" />
<glyph unicode="&apos;" glyph-name="quotesingle" horiz-adv-x="259" d="M70 305V390H101Q128 390 141 395T154 421Q106 421 88 442T70 492Q70 522 87 542T144 563Q174 563 194 545T214 466Q214 425 203 388T167 328T101 305H70Z" />
<glyph unicode="(" glyph-name="parenleft" horiz-adv-x="363" d="M233 -199Q233 -199 214 -183T166 -135T108 -55T60 56T40 200Q40 280 59 344T108 457T165 538T213 586T233 603L343 495Q339 492 317 479T263 443T202 386T151 305T131 200Q131 140 152 93T205
12T268 -44T321 -78T343 -89L233 -199Z" />
<glyph unicode=")" glyph-name="parenright" horiz-adv-x="353" d="M120 -199L10 -89Q10 -89 31 -78T84 -45T147 12T200 93T222 200Q222 258 202 304T152 385T90 443T37 479T10 495L120 603Q120 603 139 587T188 538T245 458T293 345T313 200Q313 120 294 57T246
-55T188 -135T140 -183T120 -199Z" />
<glyph unicode="*" glyph-name="asterisk" horiz-adv-x="387" d="M357 400L243 395L333 324L233 251L194 359L154 251L54 324L145 395L30 400L68 516L163 452L133 563H256L224 452L319 516L357 400Z" />
<glyph unicode="+" glyph-name="plus" horiz-adv-x="380" d="M144 76V178H40V272H144V376H238V272H340V178H238V76H144Z" />
<glyph unicode="," glyph-name="comma" horiz-adv-x="264" d="M60 -116V-31H91Q118 -31 131 -26T144 0Q96 0 78 21T60 71Q60 101 77 121T134 142Q164 142 184 124T204 45Q204 4 193 -33T157 -93T91 -116H60Z" />
<glyph unicode="-" glyph-name="hyphen" horiz-adv-x="317" d="M40 178V272H262V178H40Z" />
<glyph unicode="." glyph-name="period" horiz-adv-x="246" d="M114 0Q67 0 51 23T35 78Q35 109 51 131T114 153Q159 153 175 131T191 78Q191 45 175 23T114 0Z" />
<glyph unicode="/" glyph-name="slash" horiz-adv-x="419" d="M25 0L279 563H409L155 0H25Z" />
<glyph unicode="0" glyph-name="zero" horiz-adv-x="576" d="M288 -14Q158 -14 94 65T30 280Q30 369 57 434T141 536T288 573Q420 573 483 494T546 280Q546 193 518 127T433 23T288 -14ZM287 101Q354 101 385 144T417 280Q417 372 386 415T287 458Q222 458 191
417T159 280Q159 189 189 145T287 101Z" />
<glyph unicode="1" glyph-name="one" horiz-adv-x="424" d="M379 119V0H71V119H166V414Q160 373 143 352T105 322T67 313T45 312V467Q52 465 72 465T117 472T159 501T181 563H305V119H379Z" />
<glyph unicode="2" glyph-name="two" horiz-adv-x="547" d="M45 0V116Q46 117 70 126T131 152T210 195T287 251T341 321Q362 364 355 394T324 440T271 456Q222 456 195 420T183 304L53 323Q41 402 69 458T155 543T285 573Q339 573 384 553T459 496T493 413T472
312Q446 259 403 223T315 165T233 133T182 119H502V0H45Z" />
<glyph unicode="3" glyph-name="three" horiz-adv-x="541" d="M283 -10Q168 -10 101 45T35 212L169 232Q169 177 198 144T286 110Q328 110 351 133T375 187Q375 221 348 236T277 252H224V323H280Q301 323 322 327T358 342T373 378Q373 413 347 435T275 458Q226
458 198 427T170 358L46 380Q46 393 52 416T73 466T113 517T178 557T271 573Q381 573 439 530T497 414Q497 365 469 326T379 283Q438 280 472 243T506 154Q506 102 478 65T399 9T283 -10Z" />
<glyph unicode="4" glyph-name="four" horiz-adv-x="551" d="M35 101V220Q89 243 128 283T193 372T230 471T242 563H394Q394 507 369 444T294 323T171 220H309V281H448V220H511V101H448V0H309V101H35Z" />
<glyph unicode="5" glyph-name="five" horiz-adv-x="540" d="M269 -10Q192 -10 143 17T70 85T40 162L178 183Q180 171 190 153T221 120T273 106Q313 106 334 130T360 186Q364 221 342 251T273 282Q246 282 231 271T209 249T201 236L54 258L86 563H472V444H181L164
291Q164 291 172 303T198 332T245 360T316 373Q382 373 424 346T484 275T499 184Q495 136 466 92T387 19T269 -10Z" />
<glyph unicode="6" glyph-name="six" horiz-adv-x="566" d="M288 -10Q206 -10 151 28T69 133T41 281Q41 359 71 425T159 532T297 573Q354 573 392 559T455 523T491 479T508 443T513 428L374 405Q374 405 368 417T344 440T289 452Q279 452 259 446T217 421T184
364T176 262Q176 263 183 277T209 310T257 343T332 357Q399 357 442 331T504 262T520 174T489 85T411 17T288 -10ZM297 105Q334 105 356 122T386 164T387 214T359 257T300 276Q255 276 224 246T193 174Q199 148 216 133T255 112T297 105Z" />
<glyph unicode="7" glyph-name="seven" horiz-adv-x="551" d="M240 0H101Q101 115 139 206T240 359T380 442H49V563H506V444Q482 435 448 417T378 366T310 284T260 164T240 0Z" />
<glyph unicode="8" glyph-name="eight" horiz-adv-x="581" d="M289 -11Q218 -11 162 8T73 65T40 156Q40 212 78 251T187 298Q149 303 126 318T92 353T76 391T72 422Q72 490 132 531T289 573Q390 573 449 531T508 422Q508 410 504 392T489 354T454 319T393 298Q464
290 502 252T541 156Q541 102 508 65T418 8T289 -11ZM289 330Q335 330 360 347T385 395Q385 434 359 451T289 468Q246 468 221 451T195 395Q195 365 220 348T289 330ZM290 95Q343 95 374 118T405 179Q405 225 374 245T290 266Q238 266 207 246T175 179Q175 141
206 118T290 95Z" />
<glyph unicode="9" glyph-name="nine" horiz-adv-x="564" d="M265 -10Q206 -10 166 4T101 40T63 84T46 120T41 135L180 162Q180 162 186 151T211 127T265 115Q278 115 297 120T335 144T366 199T378 301Q378 301 371 287T345 253T297 220T222 205Q155 205 112 231T50
300T34 389T65 478T143 546T266 573Q335 573 383 549T460 484T503 392T517 286Q517 228 503 175T459 80T381 14T265 -10ZM256 285Q303 285 332 314T361 387Q352 430 324 445T265 461Q230 461 208 444T176 400T173 348T199 304T256 285Z" />
<glyph unicode=":" glyph-name="colon" horiz-adv-x="266" d="M134 242Q88 242 72 264T55 320Q55 351 71 373T134 395Q180 395 195 373T211 320Q211 288 196 265T134 242ZM134 19Q87 19 71 42T55 97Q55 128 71 150T134 172Q180 172 195 150T211 97Q211 65 196 42T134 19Z" />
<glyph unicode=";" glyph-name="semicolon" horiz-adv-x="279" d="M147 264Q100 264 84 287T68 342Q68 373 84 395T147 417Q192 417 208 395T224 342Q224 309 208 287T147 264ZM76 -116V-31H107Q134 -31 147 -26T160 0Q112 0 94 21T76 71Q76 101 93 121T150 142Q180
142 200 124T220 45Q220 4 209 -33T173 -93T107 -116H76Z" />
<glyph unicode="&lt;" glyph-name="less" horiz-adv-x="445" d="M390 427V321L141 238L390 156V49L45 238L390 427Z" />
<glyph unicode="=" glyph-name="equal" horiz-adv-x="445" d="M40 256V346H390V256H40ZM40 99V189H390V99H40Z" />
<glyph unicode="&gt;" glyph-name="greater" horiz-adv-x="435" d="M45 427L390 238L45 49V156L294 238L45 321V427Z" />
<glyph unicode="?" glyph-name="question" horiz-adv-x="460" d="M284 194H157Q157 220 177 247T223 302T270 354T294 404Q296 424 285 438T244 453Q217 453 205 442T188 415T185 386T186 368H55Q46 400 50 435T75 502T135 553T235 573Q293 573 338 554T409 502T435
424Q435 389 420 362T382 312T338 271T300 234T284 194ZM219 -9Q172 -9 156 14T139 68Q139 100 156 122T219 145Q265 145 281 123T297 68Q297 35 281 13T219 -9Z" />
<glyph unicode="@" glyph-name="at" horiz-adv-x="895" d="M412 47Q348 47 318 91T297 201Q304 244 326 278T382 332T455 352Q496 352 523 335T563 286L570 339H674L645 198Q641 177 639 154T643 115T674 98Q706 98 728 118T760 171T767 242T745 316Q719 368 669
400T558 444T435 448T325 410Q269 376 234 319T194 188Q190 120 216 70T292 -10T405 -50T540 -48T681 1L752 -121Q689 -154 613 -173T457 -192T304 -174T172 -111T80 0T45 166Q45 284 103 374T259 511Q319 539 389 549T530 553T663 519T771 447T835 338Q850 285
843 232T808 136T735 66T630 40Q576 40 557 63T539 117Q517 84 484 66T412 47ZM450 123Q482 123 498 138T520 171T529 200Q535 234 524 255T477 277Q446 277 423 256T395 199Q391 165 404 144T450 123Z" />
<glyph unicode="A" glyph-name="A" horiz-adv-x="591" d="M18 0L180 563H409L577 0H428L391 141H204L168 0H18ZM297 505L231 247H364L297 505Z" />
<glyph unicode="B" glyph-name="B" horiz-adv-x="584" d="M50 0V563H293Q313 563 342 562T402 554T460 531T504 487T521 415Q521 383 508 356T462 312T364 290V286Q437 284 477 266T533 220T549 154Q549 108 531 79T484 33T420 10T352 2T293 0H50ZM187 342H275Q300
342 325 344T367 358T384 398Q384 425 369 436T328 449T275 451H187V342ZM188 111H280Q312 111 340 113T387 129T405 175Q405 207 388 220T342 235T280 238H188V111Z" />
<glyph unicode="C" glyph-name="C" horiz-adv-x="608" d="M303 -10Q223 -10 157 22T52 118T14 277Q15 370 53 436T158 538T306 573Q391 573 449 543T539 463T581 356H437Q432 394 409 412T357 435T306 441Q228 441 190 401T152 288Q152 209 189 165T305 121Q328
121 357 127T409 154T438 214H583Q573 155 540 104T449 21T303 -10Z" />
<glyph unicode="D" glyph-name="D" horiz-adv-x="625" d="M585 282Q585 171 541 110T414 24T221 0H60V563H221Q332 563 414 532T540 438T585 282ZM198 114H264Q318 114 356 127T415 177T436 283Q436 363 391 403T264 443H198V114Z" />
<glyph unicode="E" glyph-name="E" horiz-adv-x="523" d="M187 111H487V0H50V563H476V444H187V341H402V229H187V111Z" />
<glyph unicode="F" glyph-name="F" horiz-adv-x="470" d="M197 0H60V563H472V444H197V347H400V236H197V0Z" />
<glyph unicode="G" glyph-name="G" horiz-adv-x="636" d="M290 -10Q207 -10 144 22T48 119T16 278Q19 374 57 440T162 539T311 573Q435 573 497 523T582 377L447 356Q439 391 417 409T366 435T311 442Q227 442 190 399T154 289Q154 208 199 167T330 126Q355 126
382 131T432 151T467 192H376V292H593V0H500L470 72H468Q449 38 404 14T290 -10Z" />
<glyph unicode="H" glyph-name="H" horiz-adv-x="595" d="M190 0H50V563H190V336H405V563H545V0H405V230H190V0Z" />
<glyph unicode="I" glyph-name="I" horiz-adv-x="415" d="M347 119V0H63V119H136V444H63V563H347V444H275V119H347Z" />
<glyph unicode="J" glyph-name="J" horiz-adv-x="508" d="M243 -10Q168 -10 122 16T56 89T35 195H167Q167 161 181 136T238 110Q274 110 291 132T308 222V457H190V563H448V246Q448 188 441 141T412 60T351 8T243 -10Z" />
<glyph unicode="K" glyph-name="K" horiz-adv-x="604" d="M60 0V563H199V324L401 563H583V550L376 346L595 13V0H436L275 246L199 171V0H60Z" />
<glyph unicode="L" glyph-name="L" horiz-adv-x="473" d="M60 0V563H200V119H443V0H60Z" />
<glyph unicode="M" glyph-name="M" horiz-adv-x="766" d="M60 0V563H303L386 58H388L469 563H711V0H566L576 504H575L487 0H284L198 504H196L205 0H60Z" />
<glyph unicode="N" glyph-name="N" horiz-adv-x="630" d="M429 563H575V0H307L202 502H200V0H55V563H303L427 61H429V563Z" />
<glyph unicode="O" glyph-name="O" horiz-adv-x="619" d="M302 -14Q162 -14 88 65T14 280Q14 369 46 434T142 536T302 573Q442 573 515 494T588 280Q588 193 556 127T460 23T302 -14ZM300 121Q351 121 384 142T434 200T451 280Q451 324 435 361T385 420T300 442Q227
442 189 396T150 280Q150 238 166 202T216 143T300 121Z" />
<glyph unicode="P" glyph-name="P" horiz-adv-x="508" d="M190 0H50V563H288Q384 563 439 514T495 365Q495 281 438 233T288 184H190V0ZM267 451H190V282H267Q309 282 339 303T369 367Q369 410 340 430T267 451Z" />
<glyph unicode="Q" glyph-name="Q" horiz-adv-x="636" d="M400 -141Q379 -141 357 -140T314 -127T280 -89T263 -10Q149 5 90 82T30 280Q30 368 62 434T158 536T319 573Q413 573 477 537T573 435T606 280Q606 168 553 92T395 -7Q395 -29 403 -32T444 -36Q440 -36
457 -36T494 -35L492 -140Q489 -140 474 -140T440 -140T410 -141T400 -141ZM317 124Q391 124 427 168T463 285Q463 358 427 402T317 447Q246 447 209 405T172 285Q172 212 208 168T317 124Z" />
<glyph unicode="R" glyph-name="R" horiz-adv-x="578" d="M50 0V563H279Q389 563 453 524T517 393Q517 317 484 275T393 233Q421 233 435 221T456 189T467 149T478 114T500 94T545 101V25Q517 1 483 -6T419 -3T368 41T348 130Q348 154 345 173T326 206T279 223T190
223V0H50ZM190 321H260Q306 321 335 322T378 335T393 381Q393 418 376 432T325 449T242 451H190V321Z" />
<glyph unicode="S" glyph-name="S" horiz-adv-x="584" d="M282 -10Q234 -10 188 1T105 36T46 100T23 194H163Q163 188 167 176T185 149T224 126T293 116Q312 116 332 119T366 131T380 161Q380 182 361 194T310 213T241 229T166 249T99 281T52 334T38 416Q43 490
108 531T289 573Q351 573 405 551T494 484T529 370H394Q394 401 374 416T325 437T273 442Q236 442 212 433T187 398Q187 375 207 363T259 343T329 328T406 309T474 279T522 227T536 145Q531 72 463 31T282 -10Z" />
<glyph unicode="T" glyph-name="T" horiz-adv-x="480" d="M10 444V563H455V444H302V0H162V444H10Z" />
<glyph unicode="U" glyph-name="U" horiz-adv-x="614" d="M310 -14Q184 -14 120 52T55 240V563H205V241Q205 199 216 175T243 138T278 123T310 119Q333 119 357 126T399 159T416 241V563H566V240Q566 117 503 52T310 -14Z" />
<glyph unicode="V" glyph-name="V" horiz-adv-x="595" d="M442 563H595L421 0H189L15 563H168L304 57L442 563Z" />
<glyph unicode="W" glyph-name="W" horiz-adv-x="802" d="M634 563H782L678 0H455L402 387L355 0H131L20 563H168L242 57L327 560L326 563H476L567 57L634 563Z" />
<glyph unicode="X" glyph-name="X" horiz-adv-x="591" d="M16 0L209 295L29 563H193L303 376L413 563H575L397 295L591 0H429L303 210L178 0H16Z" />
<glyph unicode="Y" glyph-name="Y" horiz-adv-x="464" d="M163 0V194H162L-29 563H128L235 312L342 563H499L302 194V0H163Z" />
<glyph unicode="Z" glyph-name="Z" horiz-adv-x="583" d="M50 0V117L356 444H69V563H535V444L236 119H534V0H50Z" />
<glyph unicode="[" glyph-name="bracketleft" horiz-adv-x="326" d="M306 -199H35V603H306V473H175V-68L306 -69V-199Z" />
<glyph unicode="\" glyph-name="backslash" horiz-adv-x="399" d="M224 0L-30 563H100L354 0H224Z" />
<glyph unicode="]" glyph-name="bracketright" horiz-adv-x="326" d="M35 -199V-69L166 -68V473H35V603H306V-199H35Z" />
<glyph unicode="^" glyph-name="asciicircum" horiz-adv-x="480" d="M30 320V352L240 562L450 352V320H322L241 460H239L159 320H30Z" />
<glyph unicode="_" glyph-name="underscore" horiz-adv-x="617" d="M40 0V94H562V0H40Z" />
<glyph unicode="`" glyph-name="grave" horiz-adv-x="600" d="M125 632L33 724V746H148L187 649V632H125Z" />
<glyph unicode="a" glyph-name="a" horiz-adv-x="480" d="M174 -10Q89 -10 57 46T24 200Q24 265 38 313T85 387T174 414Q215 414 240 403T280 376T299 350T304 338H306V414H450V0H328L306 56H304Q305 56 299 46T279 23T239 0T174 -10ZM233 105Q267 105 282 118T302
154T306 199Q306 223 302 244T283 279T233 292Q199 292 184 279T164 244T160 199Q160 175 164 154T183 119T233 105Z" />
<glyph unicode="b" glyph-name="b" horiz-adv-x="513" d="M313 -10Q277 -10 253 0T213 23T192 46T185 56H183L161 0H39V563H183V338H185Q185 338 191 349T211 376T250 402T313 414Q405 414 440 358T475 198Q475 134 461 87T411 15T313 -10ZM261 105Q297 105 313
118T334 153T339 199Q339 223 335 244T314 279T261 292Q226 292 209 279T188 245T183 199Q183 175 187 154T209 119T261 105Z" />
<glyph unicode="c" glyph-name="c" d="M245 -10Q187 -10 138 13T58 83T28 200Q30 269 59 317T137 390T246 416Q316 416 362 389T432 322T456 240H329Q319 298 251 298Q206 298 185 274T164 212Q164 165 185 137T253 109Q280 109 302 124T329 173H456Q456 129 433
87T362 18T245 -10Z" />
<glyph unicode="d" glyph-name="d" horiz-adv-x="523" d="M200 -10Q138 -10 103 15T53 87T38 198Q38 301 73 357T200 414Q238 414 263 403T302 376T322 350T328 338H330V563H474V0H352L330 56H328Q328 56 322 46T300 23T261 0T200 -10ZM252 105Q288 105 304 118T325
153T330 199Q330 223 326 244T305 279T252 292Q217 292 200 279T179 245T174 199Q174 175 178 154T200 119T252 105Z" />
<glyph unicode="e" glyph-name="e" horiz-adv-x="474" d="M235 -10Q160 -10 114 20T47 97T23 197Q21 265 47 314T120 390T230 417Q289 417 335 393T408 323T435 215V189H155Q155 145 176 125T232 105Q261 105 278 118T299 153H434Q431 109 408 72T342 12T235 -10ZM157
245H295Q295 245 295 254T288 275T268 296T227 305Q200 305 185 296T165 275T158 254T157 245Z" />
<glyph unicode="f" glyph-name="f" horiz-adv-x="309" d="M69 0V319H20V414H69V459Q69 533 104 561T199 589H295V482H208V414H295V319H208V0H69Z" />
<glyph unicode="g" glyph-name="g" horiz-adv-x="496" d="M165 -199V-67H322V56H320Q320 56 314 46T293 23T255 0T195 -10Q133 -10 97 15T46 88T31 199Q31 302 67 358T195 414Q233 414 257 403T295 376T314 350T320 338H322V414H466V0Q466 -77 446 -120T385 -181T284
-199H165ZM244 105Q280 105 296 118T317 153T322 199Q322 223 318 244T297 279T244 292Q209 292 192 279T171 245T166 199Q166 175 170 154T192 119T244 105Z" />
<glyph unicode="h" glyph-name="h" horiz-adv-x="506" d="M45 0V563H189V338H191Q191 338 196 349T214 376T252 402T314 414Q358 414 386 398T429 355T451 298T459 242T461 198V0H325V199Q325 221 322 242T304 277T256 292Q223 292 209 278T192 242T189 199V0H45Z" />
<glyph unicode="i" glyph-name="i" horiz-adv-x="238" d="M120 461Q77 460 63 481T49 531Q49 559 63 579T120 599Q161 599 175 579T189 531Q189 501 175 482T120 461ZM50 0V414H190V0H50Z" />
<glyph unicode="j" glyph-name="j" horiz-adv-x="279" d="M156 430Q111 430 96 451T81 503Q81 533 96 554T156 575Q199 575 213 554T228 503Q228 472 214 451T156 430ZM84 414H224V-69Q224 -143 189 -171T94 -199H17V-92H84V414Z" />
<glyph unicode="k" glyph-name="k" horiz-adv-x="468" d="M175 0H35V563H175V252L303 417H471L311 245L474 1H309L214 140L175 98V0Z" />
<glyph unicode="l" glyph-name="l" horiz-adv-x="226" d="M45 0V563H181V0H45Z" />
<glyph unicode="m" glyph-name="m" horiz-adv-x="659" d="M35 0V414H158V338H160Q160 338 166 349T185 376T221 402T275 414Q318 414 342 392T377 338H379Q379 338 386 349T407 376T445 402T502 414Q540 414 563 398T600 355T618 299T623 242T624 198V0H508V199Q508
218 506 239T491 276T449 292Q424 292 412 281T396 252T391 215Q391 210 391 206T391 198V0H275V199Q275 218 273 239T258 276T216 292Q187 292 175 277T161 241T158 199V0H35Z" />
<glyph unicode="n" glyph-name="n" d="M35 0V412H156L179 338H181Q181 338 186 349T206 376T245 402T311 414Q356 414 383 398T425 357T445 302T450 245T451 198V0H315V199Q315 221 312 242T294 277T246 292Q213 292 199 278T182 242T179 199V0H35Z" />
<glyph unicode="o" glyph-name="o" horiz-adv-x="487" d="M239 -10Q166 -10 117 17T44 93T20 202Q19 264 43 311T116 387T239 415Q346 415 401 357T457 202Q457 142 434 94T362 18T239 -10ZM239 106Q276 106 294 121T317 159T323 207Q323 232 318 255T294 293T239
309Q202 309 184 294T160 255T154 207Q154 183 159 160T183 121T239 106Z" />
<glyph unicode="p" glyph-name="p" horiz-adv-x="510" d="M318 -10Q282 -10 259 0T221 23T201 46T195 56H193V-199H49V414H171L193 338H195Q195 338 200 349T218 376T256 402T318 414Q381 414 417 388T468 314T483 198Q483 99 447 45T318 -10ZM271 105Q307 105
323 118T344 153T349 199Q349 223 345 244T324 279T271 292Q236 292 219 279T198 245T193 199Q193 175 197 154T219 119T271 105Z" />
<glyph unicode="q" glyph-name="q" horiz-adv-x="510" d="M192 -10Q100 -10 64 44T27 198Q27 265 42 313T93 388T192 414Q230 414 254 403T291 376T310 350T315 338H317L339 414H461V-199H317V56H315Q315 56 309 46T289 23T252 0T192 -10ZM239 105Q275 105 291
118T312 153T317 199Q317 223 313 244T292 279T239 292Q204 292 187 279T166 245T161 199Q161 175 165 154T187 119T239 105Z" />
<glyph unicode="r" glyph-name="r" horiz-adv-x="374" d="M35 0V414H167L176 296Q182 322 199 349T248 395T332 414H341V259H331Q281 259 246 253T193 228T175 165V0H35Z" />
<glyph unicode="s" glyph-name="s" horiz-adv-x="427" d="M221 -10Q214 -10 192 -9T141 0T85 25T41 71T23 148H151Q151 147 151 138T157 118T176 99T217 90Q251 90 259 102T267 120Q267 135 250 144T206 160T149 177T91 202T47 243T30 307Q30 371 77 400T197 429Q287
429 343 388T402 266H276Q276 301 254 313T204 325Q175 325 166 316T157 296Q157 278 174 268T219 249T278 232T337 209T382 171T400 110Q400 52 353 21T221 -10Z" />
<glyph unicode="t" glyph-name="t" horiz-adv-x="334" d="M203 0Q143 0 108 28T73 130V319H15V414Q39 414 56 421T83 450T93 519H203V414H296V319H203V107H299V0H203Z" />
<glyph unicode="u" glyph-name="u" horiz-adv-x="476" d="M170 -10Q125 -10 98 6T56 47T36 102T31 159T30 206V414H166V205Q166 184 169 163T187 127T235 112Q268 112 282 126T299 162T302 205V414H446V0H325L302 66H300Q300 66 295 55T275 28T236 2T170 -10Z" />
<glyph unicode="v" glyph-name="v" horiz-adv-x="481" d="M314 414H450V395L322 0H129L0 394V414H134L226 116H228L314 414Z" />
<glyph unicode="w" glyph-name="w" horiz-adv-x="669" d="M91 0L9 395V416H147L191 116H193L264 416H383L458 116H460L505 416H642V395L556 0H363L325 175H323L288 0H91Z" />
<glyph unicode="x" glyph-name="x" horiz-adv-x="474" d="M-10 0L141 214L-1 414H150L229 291L307 414H459L318 214L468 0H318L229 134L141 0H-10Z" />
<glyph unicode="y" glyph-name="y" horiz-adv-x="474" d="M0 -199V-93H70Q85 -93 97 -91T122 -78T149 -37L161 -9L0 414H143L228 132L321 414H464L277 -48Q256 -99 238 -129T200 -174T155 -194T93 -199H0Z" />
<glyph unicode="z" glyph-name="z" horiz-adv-x="459" d="M35 0V100L255 316H49V417H414V319L202 102H414V0H35Z" />
<glyph unicode="{" glyph-name="braceleft" horiz-adv-x="392" d="M362 -196Q246 -221 186 -202T110 -121T113 38Q119 75 112 95T89 124T58 135T30 137V271Q41 271 57 273T89 283T111 312T113 370Q95 469 110 526T186 603T362 603V473Q307 485 282 480T249 457T245
418T252 372Q263 300 240 256T135 203Q216 194 240 151T252 36Q249 13 246 -10T249 -50T281 -72T362 -66V-196Z" />
<glyph unicode="|" glyph-name="bar" horiz-adv-x="260" d="M60 -151V601H200V-151H60Z" />
<glyph unicode="}" glyph-name="braceright" horiz-adv-x="402" d="M40 -196V-66Q95 -78 120 -73T153 -50T157 -10T150 36Q138 108 162 151T267 203Q186 211 163 255T150 372Q153 395 156 417T153 457T121 479T40 473V603Q139 609 195 601T276 567T302 492T289
370Q283 333 290 313T313 284T344 273T372 271V137Q361 137 345 135T313 125T291 96T289 38Q303 -36 303 -84T278 -159T196 -194T40 -196Z" />
<glyph unicode="~" glyph-name="asciitilde" horiz-adv-x="389" d="M254 200Q226 200 210 209T184 229T166 249T144 258Q128 258 126 245T123 205H45Q45 217 45 238T53 282T79 321T135 337Q163 337 179 328T206 308T225 288T246 279Q261 279 263 293T266 333H344Q344
314 343 292T333 248T307 214T254 200Z" />
<glyph unicode="&#xa0;" glyph-name="uni00A0" horiz-adv-x="200" />
<glyph unicode="&#xa1;" glyph-name="exclamdown" horiz-adv-x="228" d="M110 373Q153 373 168 352T183 299Q183 270 168 249T110 228Q66 228 51 249T35 299Q35 330 50 351T110 373ZM58 167Q58 167 73 164T109 161Q135 161 147 164T159 167Q170 74 179 5T189 -109T170
-176T108 -199Q65 -199 47 -177T29 -111T38 3T58 167Z" />
<glyph unicode="&#xa2;" glyph-name="cent" horiz-adv-x="479" d="M169 -108L177 -3Q111 12 66 62T21 200Q23 284 66 338T177 409L169 513H309L301 410Q349 399 380 375T427 317T449 250L322 226Q314 264 299 281T239 298Q194 298 176 274T157 212Q157 165 175
137T241 109Q278 109 296 128T322 186L449 163Q441 108 407 61T301 -3L309 -108H169Z" />
<glyph unicode="&#xa3;" glyph-name="sterling" horiz-adv-x="720" d="M139 -15L76 89Q93 102 113 119T147 158T162 211H53V310H129Q109 360 113 407T144 491T219 551T336 573Q421 573 469 545T540 470T566 371L434 350Q424 403 401 426T351 453T305 455Q280 451
261 436T238 389T256 310H413V210H289Q290 171 270 148T227 105Q265 125 298 123T361 111T413 93T455 96Q472 107 474 129T467 174L603 195Q626 96 592 43T475 -11Q427 -11 388 -1T311 17T235 21T145 -11Q145 -11 139 -15Z" />
<glyph unicode="&#xa4;" glyph-name="currency" horiz-adv-x="600" d="M468 9H434L393 68Q355 41 300 41Q243 41 204 69L162 9H131L185 86Q144 132 144 212Q144 302 194 347L147 412H181L216 362Q250 382 300 382Q348 382 382 363L416 412H451L404 347Q455 301
455 212Q455 133 414 86L468 9ZM300 62Q325 62 345 68T381 85Q385 88 388 91T394 97Q385 87 385 87T388 91T396 99T401 104Q433 144 433 212Q433 290 392 330Q384 338 370 345Q340 361 300 361Q258 361 228 345Q227 344 217 337T207 329Q166 291 166 212Q166 179
178 145T217 86Q233 75 253 69T300 62Z" />
<glyph unicode="&#xa5;" glyph-name="yen" horiz-adv-x="578" d="M104 75V150H222V193L104 192V267H183L30 563H187L294 312L401 563H558L400 267H483V196L361 195V194V150H483V75H361V0H222V75H104Z" />
<glyph unicode="&#xa6;" glyph-name="brokenbar" horiz-adv-x="260" d="M60 307V601H200V307H60ZM60 -151V143H200V-151H60Z" />
<glyph unicode="&#xa7;" glyph-name="section" horiz-adv-x="600" d="M418 223V221Q441 206 457 181T472 121Q469 65 421 33T304 1Q257 1 214 17T142 67T112 153H143Q143 151 144 138T153 107T178 72T226 43T306 31Q351 31 378 42T418 69T436 100T441 122Q442
160 420 181T362 215T286 236T209 260T151 300T131 371Q132 399 151 419T199 451V452Q168 469 149 494T131 556Q133 592 156 617T217 657T302 671Q349 671 386 655T446 606T466 525H436Q437 561 423 584T387 619T342 637T300 642Q241 642 203 617T162 554Q162 517
184 496T242 464T318 443T394 420T452 379T472 306Q471 278 456 258T418 223ZM162 369Q162 334 179 314T227 282T292 262T362 244Q373 242 377 241T383 239Q391 237 395 238T401 241Q427 258 434 278T441 307Q442 340 425 361T378 395T313 416T244 434Q230 437
223 438T202 432Q163 406 162 369Z" />
<glyph unicode="&#xa8;" glyph-name="dieresis" horiz-adv-x="600" d="M121 660Q76 660 61 682T45 736Q45 765 60 787T121 810Q166 810 180 788T195 736Q195 705 181 683T121 660ZM327 660Q282 660 267 682T251 736Q251 765 266 787T327 810Q372 810 386 788T401
736Q401 705 387 683T327 660Z" />
<glyph unicode="&#xa9;" glyph-name="copyright" horiz-adv-x="600" d="M328 -10Q267 -10 214 12T121 75T58 169T35 283Q35 342 57 394T120 487T214 550T328 573Q387 573 439 550T532 487T595 395T618 283Q618 222 595 169T532 76T440 13T328 -10ZM328 63Q428
63 486 121T544 281Q544 382 486 440T328 498Q225 498 167 440T109 281Q109 179 167 121T328 63ZM325 116Q280 116 243 134T184 189T162 279Q164 358 211 402T328 447Q378 447 410 429T461 383T486 323L405 308Q398 340 382 356T328 372Q284 372 265 349T245 286Q245
243 264 219T328 194Q360 194 379 212T405 271L486 245Q480 212 461 183T409 135T325 116Z" />
<glyph unicode="&#xaa;" glyph-name="ordfeminine" horiz-adv-x="350" d="M132 406Q74 406 52 444T30 549Q30 615 52 655T132 695Q169 695 188 682T214 656T221 643L222 695H321V413H237L222 450H221Q222 450 215 439T188 417T132 406ZM172 485Q207 485 214 504T222
548Q222 573 215 592T172 612Q138 612 130 592T122 548Q122 524 130 505T172 485Z" />
<glyph unicode="&#xab;" glyph-name="guillemotleft" horiz-adv-x="600" d="M338 544V452L137 295L338 128V43L28 295L338 544ZM528 544V442L327 295L528 138V43L218 295L528 544Z" />
<glyph unicode="&#xac;" glyph-name="logicalnot" horiz-adv-x="317" d="M40 181V267H262V103H175V181H40Z" />
<glyph unicode="&#xad;" glyph-name="uni00AD" horiz-adv-x="280" d="M285 178V272H507V178H285Z" />
<glyph unicode="&#xae;" glyph-name="registered" horiz-adv-x="408" d="M203 229Q155 229 116 252T54 314T30 400Q30 448 53 487T116 549T203 572Q250 572 288 549T350 487T373 400Q373 353 350 314T289 252T203 229ZM203 272Q263 272 296 310T330 400Q330 453
297 491T203 529Q142 529 108 491T74 400Q74 348 108 310T203 272ZM138 322V483H203Q236 483 254 472T273 435Q273 388 227 388Q243 388 249 381T257 365T263 352T280 352V330Q270 321 257 320T233 328T223 360Q223 373 217 381T178 386V322H138ZM178 414H198Q218
414 226 416T235 431Q235 447 225 449T194 451H178V414Z" />
<glyph unicode="&#xaf;" glyph-name="overscore" horiz-adv-x="382" d="M40 726V820H342V726H40Z" />
<glyph unicode="&#xb0;" glyph-name="degree" horiz-adv-x="295" d="M147 338Q86 338 58 370T30 454Q30 508 57 540T147 573Q208 573 237 541T267 454Q267 404 238 371T147 338ZM145 425Q164 425 171 434T179 457Q179 471 172 481T145 491Q128 491 120 481T112
457Q112 444 120 435T145 425Z" />
<glyph unicode="&#xb1;" glyph-name="plusminus" horiz-adv-x="317" d="M116 155V230H40V306H116V377H192V306H262V230H192V155H116ZM40 36V112H262V36H40Z" />
<glyph unicode="&#xb2;" glyph-name="uni00B2" horiz-adv-x="251" d="M15 414V470Q15 470 33 477T76 497T124 528T158 569Q173 600 160 617T124 634Q101 634 88 617T82 561L19 570Q10 628 44 659T131 691Q166 691 192 674T229 628T222 565Q209 540 189 523T146
494T106 478T81 472H236V414H15Z" />
<glyph unicode="&#xb3;" glyph-name="uni00B3" horiz-adv-x="254" d="M133 404Q78 404 46 430T15 509L79 519Q79 493 93 477T135 461Q155 461 166 472T177 498Q177 514 164 521T130 528H105V562H132Q147 562 161 567T176 588Q176 605 164 615T129 626Q106 626
93 612T80 579L21 589Q21 597 25 611T42 642T75 670T128 681Q180 681 207 661T235 605Q235 583 222 564T179 543Q207 542 223 524T239 482Q239 445 210 425T133 404Z" />
<glyph unicode="&#xb4;" glyph-name="acute" horiz-adv-x="600" d="M95 632H33V649L72 746H187V724L95 632Z" />
<glyph unicode="&#xb5;" glyph-name="uni00B5" horiz-adv-x="600" d="M92 -158L93 413H229V204Q229 183 232 162T250 126T298 112Q331 112 345 126T362 161T365 204V413H508V0H387L374 31H371Q358 15 347 2T301 -11Q273 -11 258 -2T232 20H229V-158H92Z" />
<glyph unicode="&#xb6;" glyph-name="paragraph" horiz-adv-x="547" d="M248 -88V315H221Q165 316 119 333T44 393T16 508Q16 579 43 621T117 682T220 701H336V700H531V610H480V-89H390V610H336V-88H248Z" />
<glyph unicode="&#xb7;" glyph-name="middot" horiz-adv-x="280" d="M136 184Q82 184 64 211T45 275Q45 310 63 337T136 364Q190 364 207 337T225 275Q225 238 208 211T136 184Z" />
<glyph unicode="&#xb8;" glyph-name="cedilla" horiz-adv-x="334" d="M40 -120L79 -56Q87 -62 107 -68T149 -78T187 -78T203 -58Q204 -48 192 -42T163 -37T135 -50L78 -24L124 77L184 54L148 -7Q164 5 188 8T236 5T277 -18T294 -64Q294 -98 270 -120T208 -149T125
-150T40 -120Z" />
<glyph unicode="&#xb9;" glyph-name="uni00B9" horiz-adv-x="194" d="M28 414V473H75V632Q71 605 58 592T32 573T15 568V644Q20 643 35 643T65 654T82 691H143V473H179V414H28Z" />
<glyph unicode="&#xba;" glyph-name="ordmasculine" horiz-adv-x="332" d="M166 415Q90 415 53 456T15 563Q14 626 52 666T166 708Q240 708 278 668T317 563Q317 499 281 457T166 415ZM166 495Q204 495 214 517T225 565Q225 582 221 598T205 626T166 637Q140 637
128 626T111 599T107 565Q107 549 111 533T127 506T166 495Z" />
<glyph unicode="&#xbb;" glyph-name="guillemotright" horiz-adv-x="530" d="M205 544L515 295L205 43V128L406 295L205 452V544ZM15 544L325 295L15 43V138L216 295L15 442V544Z" />
<glyph unicode="&#xbc;" glyph-name="onequarter" horiz-adv-x="756" d="M38 293V352H85V511Q81 484 68 471T42 452T25 447V523Q30 522 45 522T75 533T92 570H153V352H189V293H38ZM196 0L101 67L348 305L540 563L634 497L393 268L196 0ZM482 50V108Q518 123 540
152T573 216T584 277H659Q659 235 631 188T549 108H617V138H685V108H716V50H685V0H617V50H482Z" />
<glyph unicode="&#xbd;" glyph-name="onehalf" horiz-adv-x="778" d="M38 293V352H85V511Q81 484 68 471T42 452T25 447V523Q30 522 45 522T75 533T92 570H153V352H189V293H38ZM196 0L101 67L348 305L540 563L634 497L393 268L196 0ZM517 0V56Q517 56 535 63T578
83T626 114T660 155Q675 186 662 203T626 220Q603 220 590 203T584 147L521 156Q512 214 546 245T633 277Q668 277 694 260T731 214T724 151Q711 126 691 109T648 80T608 64T583 58H738V0H517Z" />
<glyph unicode="&#xbe;" glyph-name="threequarters" horiz-adv-x="756" d="M143 296Q88 296 56 322T25 401L89 411Q89 385 103 369T145 353Q165 353 176 364T187 390Q187 406 174 413T140 420H115V454H142Q157 454 171 459T186 480Q186 497 174 507T139 518Q116
518 103 504T90 471L31 481Q31 489 35 503T52 534T85 562T138 573Q190 573 217 553T245 497Q245 475 232 456T189 435Q217 434 233 416T249 374Q249 337 220 317T143 296ZM196 0L101 67L348 305L540 563L634 497L393 268L196 0ZM482 50V108Q518 123 540 152T573
216T584 277H659Q659 235 631 188T549 108H617V138H685V108H716V50H685V0H617V50H482Z" />
<glyph unicode="&#xbf;" glyph-name="questiondown" horiz-adv-x="453" d="M258 383Q305 383 321 360T338 306Q338 274 322 252T258 229Q212 229 196 251T180 306Q180 339 196 361T258 383ZM193 180H320Q320 154 300 127T254 72T207 20T183 -30Q181 -50 192 -64T233
-79Q260 -79 272 -68T289 -41T292 -12T291 6H422Q431 -25 427 -61T402 -128T342 -179T242 -199Q185 -199 140 -180T68 -128T42 -50Q42 -15 57 12T95 62T140 103T177 140T193 180Z" />
<glyph unicode="&#xc0;" glyph-name="Agrave" horiz-adv-x="591" d="M18 0L180 563H409L577 0H428L391 141H204L168 0H18ZM297 505L231 247H364L297 505ZM268 610L176 702V724H291L330 627V610H268Z" />
<glyph unicode="&#xc1;" glyph-name="Aacute" horiz-adv-x="591" d="M18 0L180 563H409L577 0H428L391 141H204L168 0H18ZM297 505L231 247H364L297 505ZM321 610H259V627L298 724H413V702L321 610Z" />
<glyph unicode="&#xc2;" glyph-name="Acircumflex" horiz-adv-x="591" d="M18 0L180 563H409L577 0H428L391 141H204L168 0H18ZM297 505L231 247H364L297 505ZM141 873V883L268 997H326L452 883V873H332L300 909H294L265 873H141Z" />
<glyph unicode="&#xc3;" glyph-name="Atilde" horiz-adv-x="591" d="M18 0L180 563H409L577 0H428L391 141H204L168 0H18ZM297 505L231 247H364L297 505ZM355 877Q327 877 311 886T285 906T267 926T245 935Q229 935 227 922T224 882H146Q146 894 146 915T154 959T180
998T236 1014Q264 1014 280 1005T307 985T326 965T347 956Q362 956 364 970T367 1010H445Q445 991 444 969T434 925T408 891T355 877Z" />
<glyph unicode="&#xc4;" glyph-name="Adieresis" horiz-adv-x="591" d="M18 0L180 563H409L577 0H428L391 141H204L168 0H18ZM297 505L231 247H364L297 505ZM195 881Q150 881 135 903T119 957Q119 986 134 1008T195 1031Q240 1031 254 1009T269 957Q269 926 255
904T195 881ZM401 881Q356 881 341 903T325 957Q325 986 340 1008T401 1031Q446 1031 460 1009T475 957Q475 926 461 904T401 881Z" />
<glyph unicode="&#xc5;" glyph-name="Aring" horiz-adv-x="591" d="M18 0L180 563H409L577 0H428L391 141H204L168 0H18ZM297 505L231 247H364L297 505ZM286 615Q230 615 205 644T179 721Q179 771 204 800T286 830Q342 830 369 801T396 721Q396 675 369 645T286
615ZM284 695Q301 695 308 703T315 724Q315 737 308 746T284 755Q268 755 261 746T254 724Q254 711 261 703T284 695Z" />
<glyph unicode="&#xc6;" glyph-name="AE" horiz-adv-x="877" d="M18 0L300 563H830V444H541V341H756V229H541V111H841V0H404V141H234L168 0H18ZM284 247H404V503L284 247Z" />
<glyph unicode="&#xc7;" glyph-name="Ccedilla" horiz-adv-x="608" d="M303 -10Q223 -10 157 22T52 118T14 277Q15 370 53 436T158 538T306 573Q391 573 449 543T539 463T581 356H437Q432 394 409 412T357 435T306 441Q228 441 190 401T152 288Q152 209 189 165T305
121Q328 121 357 127T409 154T438 214H583Q573 155 540 104T449 21T303 -10ZM187 -152L226 -88Q234 -94 254 -100T296 -110T334 -110T350 -90Q351 -80 339 -74T310 -69T282 -82L225 -56L271 45L331 22L295 -39Q311 -27 335 -24T383 -27T424 -50T441 -96Q441 -130
417 -152T355 -181T272 -182T187 -152Z" />
<glyph unicode="&#xc8;" glyph-name="Egrave" horiz-adv-x="523" d="M187 111H487V0H50V563H476V444H187V341H402V229H187V111ZM212 866L120 958V980H235L274 883V866H212Z" />
<glyph unicode="&#xc9;" glyph-name="Eacute" horiz-adv-x="523" d="M187 111H487V0H50V563H476V444H187V341H402V229H187V111ZM273 610H211V627L250 724H365V702L273 610Z" />
<glyph unicode="&#xca;" glyph-name="Ecircumflex" horiz-adv-x="523" d="M187 111H487V0H50V563H476V444H187V341H402V229H187V111ZM102 873V883L229 997H287L413 883V873H293L261 909H255L226 873H102Z" />
<glyph unicode="&#xcb;" glyph-name="Edieresis" horiz-adv-x="523" d="M187 111H487V0H50V563H476V444H187V341H402V229H187V111ZM167 881Q122 881 107 903T91 957Q91 986 106 1008T167 1031Q212 1031 226 1009T241 957Q241 926 227 904T167 881ZM373 881Q328
881 313 903T297 957Q297 986 312 1008T373 1031Q418 1031 432 1009T447 957Q447 926 433 904T373 881Z" />
<glyph unicode="&#xcc;" glyph-name="Igrave" horiz-adv-x="415" d="M347 119V0H63V119H136V444H63V563H347V444H275V119H347ZM158 866L66 958V980H181L220 883V866H158Z" />
<glyph unicode="&#xcd;" glyph-name="Iacute" horiz-adv-x="415" d="M347 119V0H63V119H136V444H63V563H347V444H275V119H347ZM226 610H164V627L203 724H318V702L226 610Z" />
<glyph unicode="&#xce;" glyph-name="Icircumflex" horiz-adv-x="415" d="M347 119V0H63V119H136V444H63V563H347V444H275V119H347ZM302 873V883L429 997H487L613 883V873H493L461 909H455L426 873H302Z" />
<glyph unicode="&#xcf;" glyph-name="Idieresis" horiz-adv-x="415" d="M347 119V0H63V119H136V444H63V563H347V444H275V119H347ZM357 880Q312 880 297 902T281 956Q281 985 296 1007T357 1030Q402 1030 416 1008T431 956Q431 925 417 903T357 880ZM563 880Q518
880 503 902T487 956Q487 985 502 1007T563 1030Q608 1030 622 1008T637 956Q637 925 623 903T563 880Z" />
<glyph unicode="&#xd0;" glyph-name="Eth" horiz-adv-x="600" d="M60 0V241H0V331H60V563H221Q332 563 414 532T540 438T585 282Q585 171 541 110T414 24T221 0H60ZM198 114H264Q318 114 356 127T415 177T436 283Q436 363 391 403T264 443H198V331H315V241H198V114Z" />
<glyph unicode="&#xd1;" glyph-name="Ntilde" horiz-adv-x="630" d="M429 563H575V0H307L202 502H200V0H55V563H303L427 61H429V563ZM360 877Q332 877 316 886T290 906T272 926T250 935Q234 935 232 922T229 882H151Q151 894 151 915T159 959T185 998T241 1014Q269
1014 285 1005T312 985T331 965T352 956Q367 956 369 970T372 1010H450Q450 991 449 969T439 925T413 891T360 877Z" />
<glyph unicode="&#xd2;" glyph-name="Ograve" horiz-adv-x="619" d="M302 -14Q162 -14 88 65T14 280Q14 369 46 434T142 536T302 573Q442 573 515 494T588 280Q588 193 556 127T460 23T302 -14ZM300 121Q351 121 384 142T434 200T451 280Q451 324 435 361T385
420T300 442Q227 442 189 396T150 280Q150 238 166 202T216 143T300 121ZM262 610L170 702V724H285L324 627V610H262Z" />
<glyph unicode="&#xd3;" glyph-name="Oacute" horiz-adv-x="619" d="M302 -14Q162 -14 88 65T14 280Q14 369 46 434T142 536T302 573Q442 573 515 494T588 280Q588 193 556 127T460 23T302 -14ZM300 121Q351 121 384 142T434 200T451 280Q451 324 435 361T385
420T300 442Q227 442 189 396T150 280Q150 238 166 202T216 143T300 121ZM347 610H285V627L324 724H439V702L347 610Z" />
<glyph unicode="&#xd4;" glyph-name="Ocircumflex" horiz-adv-x="619" d="M302 -14Q162 -14 88 65T14 280Q14 369 46 434T142 536T302 573Q442 573 515 494T588 280Q588 193 556 127T460 23T302 -14ZM300 121Q351 121 384 142T434 200T451 280Q451 324 435 361T385
420T300 442Q227 442 189 396T150 280Q150 238 166 202T216 143T300 121ZM146 873V883L273 997H331L457 883V873H337L305 909H299L270 873H146Z" />
<glyph unicode="&#xd5;" glyph-name="Otilde" horiz-adv-x="619" d="M302 -14Q162 -14 88 65T14 280Q14 369 46 434T142 536T302 573Q442 573 515 494T588 280Q588 193 556 127T460 23T302 -14ZM300 121Q351 121 384 142T434 200T451 280Q451 324 435 361T385
420T300 442Q227 442 189 396T150 280Q150 238 166 202T216 143T300 121ZM363 883Q335 883 319 892T293 912T275 932T253 941Q237 941 235 928T232 888H154Q154 900 154 921T162 965T188 1004T244 1020Q272 1020 288 1011T315 991T334 971T355 962Q370 962 372
976T375 1016H453Q453 997 452 975T442 931T416 897T363 883Z" />
<glyph unicode="&#xd6;" glyph-name="Odieresis" horiz-adv-x="619" d="M302 -14Q162 -14 88 65T14 280Q14 369 46 434T142 536T302 573Q442 573 515 494T588 280Q588 193 556 127T460 23T302 -14ZM300 121Q351 121 384 142T434 200T451 280Q451 324 435 361T385
420T300 442Q227 442 189 396T150 280Q150 238 166 202T216 143T300 121ZM210 881Q165 881 150 903T134 957Q134 986 149 1008T210 1031Q255 1031 269 1009T284 957Q284 926 270 904T210 881ZM416 881Q371 881 356 903T340 957Q340 986 355 1008T416 1031Q461 1031
475 1009T490 957Q490 926 476 904T416 881Z" />
<glyph unicode="&#xd7;" glyph-name="multiply" horiz-adv-x="326" d="M291 281L225 214L291 148L230 87L164 153L96 85L35 147L102 214L35 282L96 343L164 276L230 342L291 281Z" />
<glyph unicode="&#xd8;" glyph-name="Oslash" horiz-adv-x="600" d="M81 -27L124 35Q70 72 42 134T14 280Q14 369 46 434T142 536T302 573Q400 573 467 532L511 595L541 578L495 512Q541 474 564 415T588 280Q588 193 556 127T460 24T302 -14Q216 -14 153 17L111
-44L81 -27ZM150 280Q150 241 163 208T205 152L388 417Q371 429 349 435T300 442Q227 442 189 396T150 280ZM300 121Q351 121 384 142T434 200T451 280Q451 313 442 342T414 394L234 134Q263 121 300 121Z" />
<glyph unicode="&#xd9;" glyph-name="Ugrave" horiz-adv-x="614" d="M310 -14Q184 -14 120 52T55 240V563H205V241Q205 199 216 175T243 138T278 123T310 119Q333 119 357 126T399 159T416 241V563H566V240Q566 117 503 52T310 -14ZM272 610L180 702V724H295L334
627V610H272Z" />
<glyph unicode="&#xda;" glyph-name="Uacute" horiz-adv-x="614" d="M310 -14Q184 -14 120 52T55 240V563H205V241Q205 199 216 175T243 138T278 123T310 119Q333 119 357 126T399 159T416 241V563H566V240Q566 117 503 52T310 -14ZM337 610H275V627L314 724H429V702L337
610Z" />
<glyph unicode="&#xdb;" glyph-name="Ucircumflex" horiz-adv-x="614" d="M310 -14Q184 -14 120 52T55 240V563H205V241Q205 199 216 175T243 138T278 123T310 119Q333 119 357 126T399 159T416 241V563H566V240Q566 117 503 52T310 -14ZM155 873V883L282 997H340L466
883V873H346L314 909H308L279 873H155Z" />
<glyph unicode="&#xdc;" glyph-name="Udieresis" horiz-adv-x="614" d="M310 -14Q184 -14 120 52T55 240V563H205V241Q205 199 216 175T243 138T278 123T310 119Q333 119 357 126T399 159T416 241V563H566V240Q566 117 503 52T310 -14ZM210 881Q165 881 150 903T134
957Q134 986 149 1008T210 1031Q255 1031 269 1009T284 957Q284 926 270 904T210 881ZM416 881Q371 881 356 903T340 957Q340 986 355 1008T416 1031Q461 1031 475 1009T490 957Q490 926 476 904T416 881Z" />
<glyph unicode="&#xdd;" glyph-name="Yacute" horiz-adv-x="464" d="M163 0V194H162L-29 563H128L235 312L342 563H499L302 194V0H163ZM257 610H195V627L234 724H349V702L257 610Z" />
<glyph unicode="&#xde;" glyph-name="Thorn" horiz-adv-x="500" d="M190 0H50V563H190V471H280Q376 471 431 422T487 273Q487 189 430 141T280 92H190V0ZM259 359H190V190H259Q301 190 331 211T361 275Q361 318 332 338T259 359Z" />
<glyph unicode="&#xdf;" glyph-name="germandbls" horiz-adv-x="637" d="M429 -10Q368 -10 329 6T268 50T238 108T229 169H348Q348 169 349 160T355 140T373 120T410 111Q445 111 459 131T474 171Q474 197 455 214T409 243T354 268T307 295T288 334Q288 355 299
365T326 382T359 394T386 413T397 451H195V0H55V563H323Q347 563 381 563T449 555T504 531T527 478Q527 447 514 429T482 399T443 380T410 363T397 336Q397 319 418 308T472 287T536 260T590 216T612 143Q612 95 585 61T517 9T429 -10Z" />
<glyph unicode="&#xe0;" glyph-name="agrave" horiz-adv-x="480" d="M174 -10Q89 -10 57 46T24 200Q24 265 38 313T85 387T174 414Q215 414 240 403T280 376T299 350T304 338H306V414H450V0H328L306 56H304Q305 56 299 46T279 23T239 0T174 -10ZM233 105Q267 105
282 118T302 154T306 199Q306 223 302 244T283 279T233 292Q199 292 184 279T164 244T160 199Q160 175 164 154T183 119T233 105ZM204 461L112 553V575H227L266 478V461H204Z" />
<glyph unicode="&#xe1;" glyph-name="aacute" horiz-adv-x="480" d="M174 -10Q89 -10 57 46T24 200Q24 265 38 313T85 387T174 414Q215 414 240 403T280 376T299 350T304 338H306V414H450V0H328L306 56H304Q305 56 299 46T279 23T239 0T174 -10ZM233 105Q267 105
282 118T302 154T306 199Q306 223 302 244T283 279T233 292Q199 292 184 279T164 244T160 199Q160 175 164 154T183 119T233 105ZM272 461H210V478L249 575H364V553L272 461Z" />
<glyph unicode="&#xe2;" glyph-name="acircumflex" horiz-adv-x="480" d="M174 -10Q89 -10 57 46T24 200Q24 265 38 313T85 387T174 414Q215 414 240 403T280 376T299 350T304 338H306V414H450V0H328L306 56H304Q305 56 299 46T279 23T239 0T174 -10ZM233 105Q267
105 282 118T302 154T306 199Q306 223 302 244T283 279T233 292Q199 292 184 279T164 244T160 199Q160 175 164 154T183 119T233 105ZM84 464V474L211 588H269L395 474V464H275L243 500H237L208 464H84Z" />
<glyph unicode="&#xe3;" glyph-name="atilde" horiz-adv-x="480" d="M174 -10Q89 -10 57 46T24 200Q24 265 38 313T85 387T174 414Q215 414 240 403T280 376T299 350T304 338H306V414H450V0H328L306 56H304Q305 56 299 46T279 23T239 0T174 -10ZM233 105Q267 105
282 118T302 154T306 199Q306 223 302 244T283 279T233 292Q199 292 184 279T164 244T160 199Q160 175 164 154T183 119T233 105ZM292 471Q264 471 248 480T222 500T204 520T182 529Q166 529 164 516T161 476H83Q83 488 83 509T91 553T117 592T173 608Q201 608
217 599T244 579T263 559T284 550Q299 550 301 564T304 604H382Q382 585 381 563T371 519T345 485T292 471Z" />
<glyph unicode="&#xe4;" glyph-name="adieresis" horiz-adv-x="545" d="M152 456Q107 456 92 478T76 532Q76 561 91 583T152 606Q197 606 211 584T226 532Q226 501 212 479T152 456ZM358 456Q313 456 298 478T282 532Q282 561 297 583T358 606Q403 606 417 584T432
532Q432 501 418 479T358 456ZM198 -10Q136 -10 95 19T33 98T12 207Q12 268 33 317T95 395T198 424Q241 424 274 408T330 368V414H469V147Q469 132 470 115T481 91T520 96L518 21Q518 21 509 13T480 -2T428 -10Q376 -10 357 12T332 57Q311 28 278 9T198 -10ZM235
96Q274 96 292 113T315 156T320 208Q320 236 315 262T292 305T235 322Q197 322 179 305T156 262T151 208Q151 182 156 156T179 113T235 96ZM518 21V21Q518 21 518 21Z" />
<glyph unicode="&#xe5;" glyph-name="aring" horiz-adv-x="480" d="M174 -10Q89 -10 57 46T24 200Q24 265 38 313T85 387T174 414Q215 414 240 403T280 376T299 350T304 338H306V414H450V0H328L306 56H304Q305 56 299 46T279 23T239 0T174 -10ZM233 105Q267 105
282 118T302 154T306 199Q306 223 302 244T283 279T233 292Q199 292 184 279T164 244T160 199Q160 175 164 154T183 119T233 105ZM237 728Q181 728 156 757T130 834Q130 884 155 913T237 943Q293 943 320 914T347 834Q347 788 320 758T237 728ZM235 808Q252 808
259 816T266 837Q266 850 259 859T235 868Q219 868 212 859T205 837Q205 824 212 816T235 808Z" />
<glyph unicode="&#xe6;" glyph-name="ae" horiz-adv-x="726" d="M141 0Q85 0 51 30T16 110Q16 152 39 175T100 212T180 235Q223 245 244 252T273 267T280 289Q280 305 267 315T232 325Q217 325 202 319T177 296T172 251H42Q42 316 69 354T141 409T233 426Q268
426 302 418T362 391Q387 408 420 417T498 427Q552 427 596 401T666 329T692 225V199H414Q414 159 436 140T496 120Q528 120 542 134T563 171L696 144Q684 106 660 73T596 20T497 0Q407 0 358 39T292 135Q291 126 284 104T260 58T214 17T141 0ZM414 267H552Q552
267 552 276T549 299T532 321T492 331Q465 331 449 322T426 299T416 277T414 267ZM201 97Q220 100 238 119T268 166T280 226Q274 219 255 213T224 202Q198 192 177 173T157 127Q159 107 174 102T201 97Z" />
<glyph unicode="&#xe7;" glyph-name="ccedilla" d="M245 -10Q187 -10 138 13T58 83T28 200Q30 269 59 317T137 390T246 416Q316 416 362 389T432 322T456 240H329Q319 298 251 298Q206 298 185 274T164 212Q164 165 185 137T253 109Q280 109 302 124T329 173H456Q456
129 433 87T362 18T245 -10ZM105 106L144 170Q152 164 172 158T214 148T252 148T268 168Q269 178 257 184T228 189T200 176L143 202L189 303L249 280L213 219Q229 231 253 234T301 231T342 208T359 162Q359 128 335 106T273 77T190 76T105 106Z" />
<glyph unicode="&#xe8;" glyph-name="egrave" horiz-adv-x="474" d="M235 -10Q160 -10 114 20T47 97T23 197Q21 265 47 314T120 390T230 417Q289 417 335 393T408 323T435 215V189H155Q155 145 176 125T232 105Q261 105 278 118T299 153H434Q431 109 408 72T342
12T235 -10ZM157 245H295Q295 245 295 254T288 275T268 296T227 305Q200 305 185 296T165 275T158 254T157 245ZM204 461L112 553V575H227L266 478V461H204Z" />
<glyph unicode="&#xe9;" glyph-name="eacute" horiz-adv-x="474" d="M235 -10Q160 -10 114 20T47 97T23 197Q21 265 47 314T120 390T230 417Q289 417 335 393T408 323T435 215V189H155Q155 145 176 125T232 105Q261 105 278 118T299 153H434Q431 109 408 72T342
12T235 -10ZM157 245H295Q295 245 295 254T288 275T268 296T227 305Q200 305 185 296T165 275T158 254T157 245ZM269 461H207V478L246 575H361V553L269 461Z" />
<glyph unicode="&#xea;" glyph-name="ecircumflex" horiz-adv-x="474" d="M235 -10Q160 -10 114 20T47 97T23 197Q21 265 47 314T120 390T230 417Q289 417 335 393T408 323T435 215V189H155Q155 145 176 125T232 105Q261 105 278 118T299 153H434Q431 109 408
72T342 12T235 -10ZM157 245H295Q295 245 295 254T288 275T268 296T227 305Q200 305 185 296T165 275T158 254T157 245ZM75 456V466L202 580H260L386 466V456H266L234 492H228L199 456H75Z" />
<glyph unicode="&#xeb;" glyph-name="edieresis" horiz-adv-x="474" d="M235 -10Q160 -10 114 20T47 97T23 197Q21 265 47 314T120 390T230 417Q289 417 335 393T408 323T435 215V189H155Q155 145 176 125T232 105Q261 105 278 118T299 153H434Q431 109 408 72T342
12T235 -10ZM157 245H295Q295 245 295 254T288 275T268 296T227 305Q200 305 185 296T165 275T158 254T157 245ZM128 456Q83 456 68 478T52 532Q52 561 67 583T128 606Q173 606 187 584T202 532Q202 501 188 479T128 456ZM334 456Q289 456 274 478T258 532Q258
561 273 583T334 606Q379 606 393 584T408 532Q408 501 394 479T334 456Z" />
<glyph unicode="&#xec;" glyph-name="igrave" horiz-adv-x="241" d="M98 461L6 553V575H121L160 478V461H98ZM51 0V414H191V0H51Z" />
<glyph unicode="&#xed;" glyph-name="iacute" horiz-adv-x="238" d="M139 461H77V478L116 575H231V553L139 461ZM40 0V417H180V0H40Z" />
<glyph unicode="&#xee;" glyph-name="icircumflex" horiz-adv-x="289" d="M-6 456V466L121 580H179L305 466V456H185L153 492H147L118 456H-6ZM80 0V417H220V0H80Z" />
<glyph unicode="&#xef;" glyph-name="idieresis" horiz-adv-x="296" d="M51 456Q6 456 -9 478T-25 532Q-25 561 -10 583T51 606Q96 606 110 584T125 532Q125 501 111 479T51 456ZM257 456Q212 456 197 478T181 532Q181 561 196 583T257 606Q302 606 316 584T331
532Q331 501 317 479T257 456ZM83 0V417H223V0H83Z" />
<glyph unicode="&#xf0;" glyph-name="eth" horiz-adv-x="538" d="M258 -10Q186 -10 138 19T65 94T38 192T55 290T114 365T213 394Q258 394 289 381T339 349T367 317T376 303H378Q366 345 330 382T255 449L203 418L153 455L202 485Q181 498 168 505T154 513L261
630Q307 606 346 572L399 604L449 567L388 530Q441 469 469 397T498 252T473 121T394 26T258 -10ZM384 181Q384 224 361 250T305 286T239 289T188 257T174 192Q179 158 199 138T248 110T306 107T356 131T384 181Z" />
<glyph unicode="&#xf1;" glyph-name="ntilde" d="M35 0V412H156L179 338H181Q181 338 186 349T206 376T245 402T311 414Q356 414 383 398T425 357T445 302T450 245T451 198V0H315V199Q315 221 312 242T294 277T246 292Q213 292 199 278T182 242T179 199V0H35ZM313
471Q285 471 269 480T243 500T225 520T203 529Q187 529 185 516T182 476H104Q104 488 104 509T112 553T138 592T194 608Q222 608 238 599T265 579T284 559T305 550Q320 550 322 564T325 604H403Q403 585 402 563T392 519T366 485T313 471Z" />
<glyph unicode="&#xf2;" glyph-name="ograve" horiz-adv-x="487" d="M239 -10Q166 -10 117 17T44 93T20 202Q19 264 43 311T116 387T239 415Q346 415 401 357T457 202Q457 142 434 94T362 18T239 -10ZM239 106Q276 106 294 121T317 159T323 207Q323 232 318 255T294
293T239 309Q202 309 184 294T160 255T154 207Q154 183 159 160T183 121T239 106ZM204 461L112 553V575H227L266 478V461H204Z" />
<glyph unicode="&#xf3;" glyph-name="oacute" horiz-adv-x="487" d="M239 -10Q166 -10 117 17T44 93T20 202Q19 264 43 311T116 387T239 415Q346 415 401 357T457 202Q457 142 434 94T362 18T239 -10ZM239 106Q276 106 294 121T317 159T323 207Q323 232 318 255T294
293T239 309Q202 309 184 294T160 255T154 207Q154 183 159 160T183 121T239 106ZM269 461H207V478L246 575H361V553L269 461Z" />
<glyph unicode="&#xf4;" glyph-name="ocircumflex" horiz-adv-x="487" d="M239 -10Q166 -10 117 17T44 93T20 202Q19 264 43 311T116 387T239 415Q346 415 401 357T457 202Q457 142 434 94T362 18T239 -10ZM239 106Q276 106 294 121T317 159T323 207Q323 232 318
255T294 293T239 309Q202 309 184 294T160 255T154 207Q154 183 159 160T183 121T239 106ZM75 456V466L202 580H260L386 466V456H266L234 492H228L199 456H75Z" />
<glyph unicode="&#xf5;" glyph-name="otilde" horiz-adv-x="487" d="M239 -10Q166 -10 117 17T44 93T20 202Q19 264 43 311T116 387T239 415Q346 415 401 357T457 202Q457 142 434 94T362 18T239 -10ZM239 106Q276 106 294 121T317 159T323 207Q323 232 318 255T294
293T239 309Q202 309 184 294T160 255T154 207Q154 183 159 160T183 121T239 106ZM295 471Q267 471 251 480T225 500T207 520T185 529Q169 529 167 516T164 476H86Q86 488 86 509T94 553T120 592T176 608Q204 608 220 599T247 579T266 559T287 550Q302 550 304
564T307 604H385Q385 585 384 563T374 519T348 485T295 471Z" />
<glyph unicode="&#xf6;" glyph-name="odieresis" horiz-adv-x="487" d="M239 -10Q166 -10 117 17T44 93T20 202Q19 264 43 311T116 387T239 415Q346 415 401 357T457 202Q457 142 434 94T362 18T239 -10ZM239 106Q276 106 294 121T317 159T323 207Q323 232 318
255T294 293T239 309Q202 309 184 294T160 255T154 207Q154 183 159 160T183 121T239 106ZM128 456Q83 456 68 478T52 532Q52 561 67 583T128 606Q173 606 187 584T202 532Q202 501 188 479T128 456ZM334 456Q289 456 274 478T258 532Q258 561 273 583T334 606Q379
606 393 584T408 532Q408 501 394 479T334 456Z" />
<glyph unicode="&#xf7;" glyph-name="divide" horiz-adv-x="317" d="M150 307Q127 307 116 319T105 351Q104 370 115 382T150 395Q172 395 183 383T195 351Q195 332 184 320T150 307ZM40 178V272H262V178H40ZM150 51Q127 51 116 63T105 95Q104 114 115 126T150
139Q172 139 183 127T195 95Q195 76 184 64T150 51Z" />
<glyph unicode="&#xf8;" glyph-name="oslash" horiz-adv-x="479" d="M62 -27L98 30Q59 58 40 102T20 202Q19 264 43 311T116 387T239 415Q290 415 331 401L368 460L398 443L362 386Q409 360 433 313T457 202Q457 142 434 94T362 18T239 -10Q175 -10 127 12L92
-44L62 -27ZM154 207Q154 190 156 173T167 140L271 305Q257 309 239 309Q202 309 184 294T160 255T154 207ZM239 106Q276 106 294 121T317 159T323 207Q323 229 319 251T300 287L192 116Q211 106 239 106Z" />
<glyph unicode="&#xf9;" glyph-name="ugrave" horiz-adv-x="476" d="M170 -10Q125 -10 98 6T56 47T36 102T31 159T30 206V414H166V205Q166 184 169 163T187 127T235 112Q268 112 282 126T299 162T302 205V414H446V0H325L302 66H300Q300 66 295 55T275 28T236 2T170
-10ZM214 461L122 553V575H237L276 478V461H214Z" />
<glyph unicode="&#xfa;" glyph-name="uacute" horiz-adv-x="476" d="M170 -10Q125 -10 98 6T56 47T36 102T31 159T30 206V414H166V205Q166 184 169 163T187 127T235 112Q268 112 282 126T299 162T302 205V414H446V0H325L302 66H300Q300 66 295 55T275 28T236 2T170
-10ZM273 461H211V478L250 575H365V553L273 461Z" />
<glyph unicode="&#xfb;" glyph-name="ucircumflex" horiz-adv-x="476" d="M170 -10Q125 -10 98 6T56 47T36 102T31 159T30 206V414H166V205Q166 184 169 163T187 127T235 112Q268 112 282 126T299 162T302 205V414H446V0H325L302 66H300Q300 66 295 55T275 28T236
2T170 -10ZM78 456V466L205 580H263L389 466V456H269L237 492H231L202 456H78Z" />
<glyph unicode="&#xfc;" glyph-name="udieresis" horiz-adv-x="476" d="M170 -10Q125 -10 98 6T56 47T36 102T31 159T30 206V414H166V205Q166 184 169 163T187 127T235 112Q268 112 282 126T299 162T302 205V414H446V0H325L302 66H300Q300 66 295 55T275 28T236
2T170 -10ZM129 456Q84 456 69 478T53 532Q53 561 68 583T129 606Q174 606 188 584T203 532Q203 501 189 479T129 456ZM335 456Q290 456 275 478T259 532Q259 561 274 583T335 606Q380 606 394 584T409 532Q409 501 395 479T335 456Z" />
<glyph unicode="&#xfd;" glyph-name="yacute" horiz-adv-x="474" d="M0 -199V-93H70Q85 -93 97 -91T122 -78T149 -37L161 -9L0 414H143L228 132L321 414H464L277 -48Q256 -99 238 -129T200 -174T155 -194T93 -199H0ZM242 461H180V478L219 575H334V553L242 461Z" />
<glyph unicode="&#xfe;" glyph-name="thorn" horiz-adv-x="512" d="M50 -199V563H194V304Q194 305 201 321T224 359T266 397T332 413Q384 413 416 383T462 306T477 206Q477 153 463 103T417 22T331 -10Q298 -10 273 2T230 32T204 62T194 78V246Q192 236 191 224T190
197Q190 183 190 170T194 147V-199H50ZM255 105Q286 105 300 118T319 153T323 197Q323 221 319 242T301 278T257 292Q227 292 213 280T194 246V147Q199 127 212 116T255 105Z" />
<glyph unicode="&#xff;" glyph-name="ydieresis" horiz-adv-x="474" d="M0 -199V-93H70Q85 -93 97 -91T122 -78T149 -37L161 -9L0 414H143L228 132L321 414H464L277 -48Q256 -99 238 -129T200 -174T155 -194T93 -199H0ZM130 456Q85 456 70 478T54 532Q54 561 69
583T130 606Q175 606 189 584T204 532Q204 501 190 479T130 456ZM336 456Q291 456 276 478T260 532Q260 561 275 583T336 606Q381 606 395 584T410 532Q410 501 396 479T336 456Z" />
<glyph unicode="&#x2013;" glyph-name="endash" horiz-adv-x="437" d="M40 178V272H382V178H40Z" />
<glyph unicode="&#x2014;" glyph-name="emdash" horiz-adv-x="617" d="M40 178V272H562V178H40Z" />
<glyph unicode="&#x2018;" glyph-name="quoteleft" horiz-adv-x="279" d="M127 265Q88 265 72 285T55 335V335Q55 336 55 337V337Q55 339 55 339Q55 352 58 378T69 435T95 496T143 544T219 563V449Q179 449 157 437T123 407H124Q165 407 182 386T199 336Q199 306
183 286T127 265Z" />
<glyph unicode="&#x2019;" glyph-name="quoteright" horiz-adv-x="264" d="M45 265V379Q85 379 107 391T141 421H140Q99 421 82 442T65 492Q65 522 81 542T137 563Q176 563 192 543T209 493V493Q209 492 209 491V491Q209 489 209 489Q209 476 206 450T195 393T169
332T121 284T45 265Z" />
<glyph unicode="&#x201a;" glyph-name="quotesinglbase" horiz-adv-x="259" d="M50 -103V11Q90 11 112 23T146 53H145Q104 53 87 74T70 124Q70 154 86 174T142 195Q181 195 197 175T214 125V125Q214 124 214 123V123Q214 121 214 121Q214 108 211 82T200 25T174
-36T126 -84T50 -103Z" />
<glyph unicode="&#x201c;" glyph-name="quotedblleft" horiz-adv-x="464" d="M55 265V379Q95 379 117 391T151 421H150Q109 421 92 442T75 492Q75 522 91 542T147 563Q186 563 202 543T219 493V493Q219 492 219 491V491Q219 489 219 489Q219 476 216 450T205 393T179
332T131 284T55 265ZM250 265V379Q290 379 312 391T346 421H345Q304 421 287 442T270 492Q270 522 286 542T342 563Q381 563 397 543T414 493V493Q414 492 414 491V491Q414 489 414 489Q414 476 411 450T400 393T374 332T326 284T250 265Z" />
<glyph unicode="&#x201d;" glyph-name="quotedblright" horiz-adv-x="464" d="M322 265Q283 265 267 285T250 335V335Q250 336 250 337V337Q250 339 250 339Q250 352 253 378T264 435T290 496T338 544T414 563V449Q374 449 352 437T318 407H319Q360 407 377 386T394
336Q394 306 378 286T322 265ZM127 265Q88 265 72 285T55 335V335Q55 336 55 337V337Q55 339 55 339Q55 352 58 378T69 435T95 496T143 544T219 563V449Q179 449 157 437T123 407H124Q165 407 182 386T199 336Q199 306 183 286T127 265Z" />
<glyph unicode="&#x201e;" glyph-name="quotedblbase" horiz-adv-x="420" d="M30 -103V11Q70 11 92 23T126 53H125Q84 53 67 74T50 124Q50 154 66 174T122 195Q161 195 177 175T194 125V125Q194 124 194 123V123Q194 121 194 121Q194 108 191 82T180 25T154 -36T106
-84T30 -103ZM225 -103V11Q265 11 287 23T321 53H320Q279 53 262 74T245 124Q245 154 261 174T317 195Q356 195 372 175T389 125V125Q389 124 389 123V123Q389 121 389 121Q389 108 386 82T375 25T349 -36T301 -84T225 -103Z" />
<glyph unicode="&#x2022;" glyph-name="bullet" horiz-adv-x="300" d="M136 184Q82 184 64 211T45 275Q45 310 63 337T136 364Q190 364 207 337T225 275Q225 238 208 211T136 184Z" />
<glyph unicode="&#x2039;" glyph-name="guilsinglleft" horiz-adv-x="425" d="M385 427V321L136 238L385 156V49L40 238L385 427Z" />
<glyph unicode="&#x203a;" glyph-name="guilsinglright" horiz-adv-x="435" d="M45 427L390 238L45 49V156L294 238L45 321V427Z" />
</font>
</defs>
</svg>
