<?xml version="1.0" standalone="no"?>
<!DOCTYPE svg PUBLIC "-//W3C//DTD SVG 1.1//EN" "http://www.w3.org/Graphics/SVG/1.1/DTD/svg11.dtd">
<svg xmlns="http://www.w3.org/2000/svg">
<defs >
<font id="DarkerGrotesque" horiz-adv-x="425" ><font-face
    font-family="Darker Grotesque Light"
    units-per-em="1000"
    panose-1="0 0 0 0 0 0 0 0 0 0"
    ascent="1060"
    descent="-296"
    alphabetic="0" />
<glyph unicode=" " glyph-name="space" horiz-adv-x="255" />
<glyph unicode="!" glyph-name="exclam" horiz-adv-x="155" d="M75 110Q73 229 70 309T65 440T63 517T69 553T85 563Q94 563 98 554T103 518T103 441T99 310T95 110Q95 110 91 110T85 111Q81 111 78 111T75 110ZM85 -9Q73 -9 69 -2T65 17Q65 27 69 34T85 41Q97
41 101 34T105 17Q105 6 101 -1T85 -9Z" />
<glyph unicode="&quot;" glyph-name="quotedbl" horiz-adv-x="214" d="M33 432V462H44Q67 462 70 476T74 505Q39 497 39 535Q39 546 44 554T65 563Q82 563 86 554T91 524Q91 478 82 455T47 432H33ZM126 432V462H137Q160 462 163 476T167 505Q132 497 132 535Q132
546 137 554T158 563Q175 563 179 554T184 524Q184 478 175 455T140 432H126Z" />
<glyph unicode="#" glyph-name="numbersign" horiz-adv-x="693" d="M122 0L194 186H40V211H204L268 377H95V402H277L333 563H360L297 402H479L534 563H561L498 402H648V377H489L424 211H596V186H415L350 0H323L396 186H214L149 0H122ZM223 211H405L470 377H288L223 211Z" />
<glyph unicode="$" glyph-name="dollar" horiz-adv-x="519" d="M264 -110V-14Q209 -12 160 7T79 66T46 166H73Q73 164 74 148T85 108T115 63T176 26T277 11Q337 11 371 26T423 62T445 102T450 128Q451 170 431 196T377 237T301 263T219 285T144 314T89 360T70
435Q71 477 98 507T168 554T264 573V673H289V573Q341 570 382 550T447 491T469 398H442Q444 444 426 473T381 518T324 541T272 548Q196 548 148 516T97 435Q96 394 116 369T170 329T245 304T326 283T401 254T455 206T474 128Q473 85 448 54T381 6T289 -14V-110H264Z"
/>
<glyph unicode="%" glyph-name="percent" horiz-adv-x="541" d="M121 325Q74 325 52 358T30 449Q30 505 51 539T121 573Q169 573 190 539T212 449Q212 394 191 360T121 325ZM78 0L58 15L267 292L456 562L476 548L279 284L78 0ZM121 344Q159 344 174 373T190 448Q190
495 175 524T121 553Q84 553 68 525T52 448Q52 403 68 374T121 344ZM420 -10Q373 -10 351 23T329 114Q329 170 350 204T420 238Q468 238 489 204T511 114Q511 59 490 25T420 -10ZM420 9Q458 9 473 38T489 113Q489 160 474 189T420 218Q383 218 367 190T351 113Q351
68 367 39T420 9Z" />
<glyph unicode="&amp;" glyph-name="ampersand" horiz-adv-x="624" d="M594 -1Q556 13 524 32T448 82Q412 38 362 16T259 -9T159 6T84 61T55 153Q55 197 75 227T127 281T195 322Q171 356 154 391T137 458Q137 496 155 521T203 558T265 571T327 560T374 525T393
468Q393 437 373 411T326 365T272 332T234 312Q256 283 292 247T369 177T443 119Q465 155 477 199T488 286T466 354L487 372Q505 349 511 315T513 243T496 168T464 104Q506 75 537 57T604 24L594 -1ZM220 325Q220 325 235 331T271 350T315 379T352 418T367 465Q367
498 347 517T296 542T235 540T184 511T163 455Q163 430 178 396T220 325ZM426 97Q389 124 348 161T270 237T208 307Q158 282 121 247T84 156Q84 108 109 77T174 30T261 17T351 39T426 97Z" />
<glyph unicode="&apos;" glyph-name="quotesingle" horiz-adv-x="124" d="M33 432V462H44Q67 462 70 476T74 505Q39 497 39 535Q39 546 44 554T65 563Q82 563 86 554T91 524Q91 478 82 455T47 432H33Z" />
<glyph unicode="(" glyph-name="parenleft" horiz-adv-x="255" d="M232 -199Q232 -199 213 -184T167 -137T111 -58T64 54T45 200Q45 282 64 346T111 459T166 539T213 587T232 603L250 581Q247 578 228 564T181 520T128 447T85 342T67 200Q67 119 85 57T131 -49T185
-121T231 -162T250 -175L232 -199Z" />
<glyph unicode=")" glyph-name="parenright" horiz-adv-x="245" d="M13 -199L-5 -175Q-5 -175 13 -162T59 -121T114 -49T159 57T178 200Q178 280 161 341T117 447T64 520T18 563T-5 581L13 603Q13 603 32 587T79 540T134 460T181 347T200 200Q200 119 181 55T135
-57T79 -136T32 -183T13 -199Z" />
<glyph unicode="*" glyph-name="asterisk" horiz-adv-x="373" d="M348 436L198 394L295 276L270 258L186 384L102 258L78 276L175 394L25 436L36 464L178 408L171 563H202L195 408L338 464L348 436Z" />
<glyph unicode="+" glyph-name="plus" horiz-adv-x="330" d="M151 91V210H35V236H151V351H177V236H295V210H177V91H151Z" />
<glyph unicode="," glyph-name="comma" horiz-adv-x="148" d="M45 -74V-44H56Q79 -44 82 -30T86 -1Q51 -9 51 29Q51 40 56 48T77 57Q94 57 98 48T103 18Q103 -28 94 -51T59 -74H45Z" />
<glyph unicode="-" glyph-name="hyphen" horiz-adv-x="317" d="M40 211V237H262V211H40Z" />
<glyph unicode="." glyph-name="period" horiz-adv-x="138" d="M59 0Q45 0 40 8T35 29Q35 41 40 50T59 59Q73 59 78 50T83 29Q83 17 78 9T59 0Z" />
<glyph unicode="/" glyph-name="slash" horiz-adv-x="319" d="M25 0L279 563H309L55 0H25Z" />
<glyph unicode="0" glyph-name="zero" horiz-adv-x="482" d="M241 -14Q129 -14 77 65T25 280Q25 369 47 434T117 536T241 573Q316 573 364 537T434 435T457 280Q457 193 435 127T364 23T241 -14ZM241 10Q339 10 384 83T430 280Q430 362 411 422T350 515T241 549Q144
549 98 479T52 280Q52 199 71 138T132 44T241 10Z" />
<glyph unicode="1" glyph-name="one" horiz-adv-x="283" d="M248 25V0H55V25H141V493Q125 459 99 442T50 419T20 413V437Q25 437 44 443T85 463T124 501T141 563H165V25H248Z" />
<glyph unicode="2" glyph-name="two" horiz-adv-x="464" d="M35 0V22Q36 23 55 38T107 79T176 138T251 207T317 278T363 345Q389 399 379 443T329 514T227 541Q163 540 122 505T77 404H53Q57 478 104 520T230 563Q302 563 347 531T403 447T385 334Q369 303 334
263T255 183T172 108T103 51T69 25H419V0H35Z" />
<glyph unicode="3" glyph-name="three" horiz-adv-x="467" d="M234 -10Q188 -10 142 10T64 70T30 171H55Q59 116 86 82T154 31T234 15Q281 15 321 31T385 77T410 151Q410 190 395 215T357 255T312 275T277 281H183V300H277Q336 300 364 331T392 409Q392 476 349
512T232 549Q186 549 156 534T106 497T78 452T67 412H42Q43 428 53 454T85 508T143 554T232 573Q315 573 367 530T419 409Q419 360 394 333T330 291Q371 277 403 242T435 152Q435 104 409 68T337 11T234 -10Z" />
<glyph unicode="4" glyph-name="four" horiz-adv-x="471" d="M20 128V153Q65 175 108 219T186 320T242 440T264 563H290Q290 483 258 406T172 263T57 153H329V281H355V153H441V128H355V0H329V128H20Z" />
<glyph unicode="5" glyph-name="five" horiz-adv-x="493" d="M245 -10Q176 -10 122 22T46 128H74Q74 126 80 109T105 70T156 32T245 15Q305 15 345 38T406 99T430 176Q433 219 414 258T356 322T255 348Q209 348 177 337T126 312T97 286T88 273L67 282L94 563H427V537H119L95
310Q95 310 104 319T132 341T181 363T255 373Q325 373 370 344T436 270T454 175Q451 128 427 86T357 17T245 -10Z" />
<glyph unicode="6" glyph-name="six" horiz-adv-x="507" d="M265 -10Q186 -10 138 27T69 125T48 254Q48 312 62 368T105 471T181 545T293 573Q334 573 362 562T409 536T435 510T443 498L419 486Q419 486 406 501T366 532T293 548Q228 548 183 517T111 433T77 316T79
186Q82 216 96 249T136 310T200 356T291 370Q353 369 393 341T451 270T467 178T441 87T373 17T265 -10ZM265 14Q320 14 358 37T418 96T442 174T430 253T379 316T287 344Q220 347 176 318T109 243T87 151Q101 90 146 52T265 14Z" />
<glyph unicode="7" glyph-name="seven" horiz-adv-x="438" d="M158 0H131Q131 116 159 210T242 384T370 539H35V563H403V541Q374 513 333 469T252 360T185 206T158 0Z" />
<glyph unicode="8" glyph-name="eight" horiz-adv-x="519" d="M256 -10Q195 -10 146 8T69 61T40 150Q40 204 76 244T170 298Q131 309 110 330T81 375T73 422Q73 466 97 500T162 553T256 573Q311 573 352 553T416 499T440 422Q440 400 432 376T404 330T343 298Q402
283 438 244T474 150Q474 96 445 61T367 8T256 -10ZM256 307Q326 307 370 332T414 417Q414 476 369 511T256 547Q186 547 142 511T98 417Q98 376 120 352T178 318T256 307ZM256 17Q345 17 396 55T447 155Q447 220 396 254T256 288Q168 288 118 254T67 155Q67 94
117 56T256 17Z" />
<glyph unicode="9" glyph-name="nine" horiz-adv-x="512" d="M253 -10Q202 -10 167 3T109 35T77 67T65 82L87 93Q87 92 96 80T125 53T176 25T253 13Q318 13 357 42T416 120T440 232T442 361Q436 321 412 282T346 216T247 189Q181 189 137 216T72 285T50 376T74
466T142 536T255 563Q333 563 382 524T452 416T465 262Q459 182 439 121T375 25T253 -10ZM248 213Q331 213 377 263T436 387Q418 458 373 498T255 539Q196 539 157 516T97 455T77 376T95 297T152 237T248 213Z" />
<glyph unicode=":" glyph-name="colon" horiz-adv-x="158" d="M78 293Q65 293 60 301T55 321Q55 332 60 341T78 350Q92 350 96 341T101 321Q101 309 97 301T78 293ZM78 57Q65 57 60 65T55 85Q55 96 60 105T78 114Q92 114 96 105T101 85Q101 73 97 65T78 57Z" />
<glyph unicode=";" glyph-name="semicolon" horiz-adv-x="143" d="M72 345Q59 345 54 353T49 373Q49 384 54 393T72 402Q86 402 90 393T95 373Q95 361 91 353T72 345ZM40 -74V-44H51Q74 -44 77 -30T81 -1Q46 -9 46 29Q46 40 51 48T72 57Q89 57 93 48T98 18Q98
-28 89 -51T54 -74H40Z" />
<glyph unicode="&lt;" glyph-name="less" horiz-adv-x="376" d="M336 363V333L78 223L336 113V81L40 223L336 363Z" />
<glyph unicode="=" glyph-name="equal" horiz-adv-x="357" d="M40 265V289H302V265H40ZM40 157V181H302V157H40Z" />
<glyph unicode="&gt;" glyph-name="greater" horiz-adv-x="381" d="M40 363L336 223L40 81V113L298 223L40 333V363Z" />
<glyph unicode="?" glyph-name="question" horiz-adv-x="424" d="M217 115H195Q196 161 213 191T256 244T306 288T348 337T365 404Q365 466 324 502T218 539Q144 539 106 494T67 380H40Q40 460 87 512T218 564Q264 564 303 545T365 491T389 404Q389 359 372 330T330
280T280 237T237 188T217 115ZM208 -9Q196 -9 193 -2T189 17Q189 27 192 34T208 41Q220 41 223 34T227 17Q227 6 224 -1T208 -9Z" />
<glyph unicode="@" glyph-name="at" horiz-adv-x="673" d="M304 30Q245 30 217 73T198 181Q205 224 226 257T277 310T343 329Q380 329 405 312T441 267L448 316H471L436 97Q434 73 442 58T471 43Q513 43 542 73T586 150T599 248T574 340Q549 385 507 413T415 453T313
460T218 430Q153 396 115 329T71 177Q67 104 92 50T163 -38T270 -84T397 -85T527 -39L540 -60Q471 -99 399 -111T262 -109T147 -58T70 39T46 179Q51 270 94 341T207 450Q256 476 312 482T422 475T522 431T596 351Q616 315 621 272T618 185T589 105T539 47T468 25Q440
25 426 43T415 91Q395 63 367 47T304 30ZM305 49Q351 49 376 69T412 117T428 166L430 181L433 202Q437 250 418 279T347 309Q300 309 263 275T217 178Q210 122 231 86T305 49Z" />
<glyph unicode="A" glyph-name="A" horiz-adv-x="516" d="M20 0L236 563H280L498 0H470L396 194H121L46 0H20ZM259 550L132 221H385L259 550Z" />
<glyph unicode="B" glyph-name="B" horiz-adv-x="513" d="M65 0V563H248Q305 563 352 552T427 508T455 413Q455 381 443 353T399 309T307 291V288Q377 288 414 268T464 216T478 145Q478 99 460 70T412 26T343 6T264 0H65ZM92 303H247Q304 303 344 310T405 341T426
413Q426 470 402 496T337 529T248 537H92V303ZM92 25H264Q317 25 359 33T425 68T450 145Q450 200 423 228T350 266T247 277H92V25Z" />
<glyph unicode="C" glyph-name="C" horiz-adv-x="590" d="M297 -10Q221 -10 161 23T65 121T30 282Q30 380 64 444T159 541T301 573Q393 573 459 523T545 370H517Q501 456 444 502T301 549Q190 549 124 481T57 282Q57 149 122 82T297 14Q392 14 449 61T521 190H550Q531
91 465 41T297 -10Z" />
<glyph unicode="D" glyph-name="D" horiz-adv-x="569" d="M539 282Q539 171 498 110T384 24T213 0H70V563H213Q311 563 384 532T498 438T539 282ZM97 25H213Q280 25 335 35T429 74T490 152T511 282Q511 370 474 426T370 510T213 538H97V25Z" />
<glyph unicode="E" glyph-name="E" horiz-adv-x="457" d="M87 25H422V0H60V563H413V537H87V298H352V272H87V25Z" />
<glyph unicode="F" glyph-name="F" horiz-adv-x="483" d="M102 0H75V563H453V537H102V316H385V290H102V0Z" />
<glyph unicode="G" glyph-name="G" horiz-adv-x="596" d="M291 -14Q211 -14 153 21T62 122T30 279Q30 417 101 495T298 573Q396 573 461 524T543 380L518 379Q481 548 298 548Q180 548 120 479T54 279Q54 153 117 82T293 10Q392 10 452 66T517 226H329V251H555V0H533L525
150H523Q519 128 504 100T462 46T392 3T291 -14Z" />
<glyph unicode="H" glyph-name="H" horiz-adv-x="574" d="M102 0H75V563H102V306H474V563H499V0H474V281H102V0Z" />
<glyph unicode="I" glyph-name="I" horiz-adv-x="305" d="M240 24V0H55V24H135V538H55V563H240V538H161V24H240Z" />
<glyph unicode="J" glyph-name="J" horiz-adv-x="394" d="M187 -10Q174 -10 151 -6T103 12T62 52T45 124H69Q69 101 78 76T114 32T187 14Q246 14 274 44T303 142V538H196V562H329V142Q329 67 293 29T187 -10Z" />
<glyph unicode="K" glyph-name="K" horiz-adv-x="527" d="M75 -1V563H103V243L446 563H481V554L223 316L493 9V0H460L204 298L103 205V-1H75Z" />
<glyph unicode="L" glyph-name="L" horiz-adv-x="465" d="M70 0V563H96V24H443V0H70Z" />
<glyph unicode="M" glyph-name="M" horiz-adv-x="671" d="M55 0V563H101L333 15H335L565 563H611V0H585V543H583L354 0H312L83 543H81V0H55Z" />
<glyph unicode="N" glyph-name="N" horiz-adv-x="557" d="M472 563H497V0H450L82 550H80V0H55V563H100L470 13H472V563Z" />
<glyph unicode="O" glyph-name="O" horiz-adv-x="597" d="M291 -14Q161 -14 93 65T25 280Q25 369 54 434T143 536T291 573Q422 573 489 494T557 280Q557 193 527 127T438 23T291 -14ZM291 11Q410 11 470 84T531 280Q531 402 472 475T291 548Q173 548 112 478T51
280Q51 158 110 85T291 11Z" />
<glyph unicode="P" glyph-name="P" horiz-adv-x="479" d="M96 0H70V563H272Q454 563 454 393Q454 311 407 268T272 224H96V0ZM272 537H96V251H272Q429 251 429 393Q429 467 391 502T272 537Z" />
<glyph unicode="Q" glyph-name="Q" horiz-adv-x="601" d="M358 -102Q331 -102 312 -83T293 -14Q169 -10 104 69T38 280Q38 369 67 434T156 536T304 573Q392 573 451 537T540 436T570 282Q570 196 542 131T457 27T317 -14Q317 -24 319 -39T330 -65T358 -77Q380
-77 392 -65T404 -53L412 -75Q412 -75 406 -81T388 -95T358 -102ZM304 11Q423 11 483 84T544 280Q544 402 485 475T304 548Q186 548 125 478T64 281Q64 158 123 85T304 11Z" />
<glyph unicode="R" glyph-name="R" horiz-adv-x="508" d="M68 0V563H232Q303 563 351 550T424 503T449 407Q449 372 435 340T391 287T313 266Q355 266 378 251T412 210T424 156T426 99T427 50T439 19T473 17V-8Q473 -8 463 -9T438 -8T413 11T402 59Q402 125 397
164T376 222T327 247T237 254T95 253V0H68ZM95 278H257Q342 278 383 306T424 407Q424 464 402 491T337 528T232 537H95V278Z" />
<glyph unicode="S" glyph-name="S" horiz-adv-x="496" d="M263 -14Q206 -14 154 4T68 63T33 166H60Q60 164 61 148T72 108T102 63T163 26T264 11Q324 11 358 26T410 62T432 102T437 128Q438 170 418 196T364 237T288 263T206 285T131 314T76 360T57 435Q59 478
87 509T161 556T260 573Q316 573 361 553T432 495T456 398H429Q431 444 413 473T368 518T311 541T259 548Q183 548 135 516T84 435Q83 394 103 369T157 329T232 304T313 283T388 254T442 206T461 128Q460 83 433 52T361 3T263 -14Z" />
<glyph unicode="T" glyph-name="T" horiz-adv-x="434" d="M10 538V563H425V538H231V0H205V538H10Z" />
<glyph unicode="U" glyph-name="U" horiz-adv-x="558" d="M274 -14Q168 -14 109 52T50 240V563H75V240Q75 130 127 71T274 11Q374 11 424 69T474 240V563H498V240Q498 117 441 52T274 -14Z" />
<glyph unicode="V" glyph-name="V" horiz-adv-x="477" d="M428 563H457L246 0H200L-10 563H18L223 16L428 563Z" />
<glyph unicode="W" glyph-name="W" horiz-adv-x="857" d="M403 563H432L616 16L807 563H837L640 0H594L417 523L231 0H185L0 563H29L209 16L403 563Z" />
<glyph unicode="X" glyph-name="X" horiz-adv-x="528" d="M30 0L244 300L53 563H88L259 322L430 563H465L276 300L490 0H456L259 278L61 0H30Z" />
<glyph unicode="Y" glyph-name="Y" horiz-adv-x="413" d="M186 0V213L-5 563H24L201 241L376 563H404L213 213V0H186Z" />
<glyph unicode="Z" glyph-name="Z" horiz-adv-x="525" d="M30 0V23L447 537H68V563H481V540L64 26H478V0H30Z" />
<glyph unicode="[" glyph-name="bracketleft" horiz-adv-x="214" d="M204 -199H35V603H204V578H56V-175H204V-199Z" />
<glyph unicode="\" glyph-name="backslash" horiz-adv-x="299" d="M299 0L45 563H75L329 0H299Z" />
<glyph unicode="]" glyph-name="bracketright" horiz-adv-x="233" d="M35 -199V-175H192V578H44V603H213V-199H35Z" />
<glyph unicode="^" glyph-name="asciicircum" horiz-adv-x="365" d="M25 320V334L182 562L340 334V320H307L183 518H181L57 320H25Z" />
<glyph unicode="_" glyph-name="underscore" horiz-adv-x="477" d="M20 0V26H422V0H20Z" />
<glyph unicode="`" glyph-name="grave" horiz-adv-x="600" d="M109 632L38 733V744H68L125 638V632H109Z" />
<glyph unicode="a" glyph-name="a" horiz-adv-x="400" d="M185 -9Q129 -9 91 19T34 95T15 200Q15 260 35 307T93 381T185 409Q239 409 276 383T332 312H333V404H360V0H339L334 90H332Q313 46 276 19T185 -9ZM193 19Q261 19 296 66T332 199Q332 291 295 336T193
381Q119 381 82 330T44 200Q44 118 82 69T193 19Z" />
<glyph unicode="b" glyph-name="b" horiz-adv-x="457" d="M239 -10Q198 -10 169 5T121 41T92 81T79 107H77L72 0H50V563H77L78 288H80Q83 296 92 314T119 354T166 389T238 404Q296 404 337 376T401 301T424 198Q424 140 402 93T338 18T239 -10ZM242 18Q295 18
329 44T380 111T397 198Q397 244 379 284T324 350T234 376Q193 376 158 356T102 295T80 198Q80 140 103 100T163 39T242 18Z" />
<glyph unicode="c" glyph-name="c" horiz-adv-x="435" d="M215 -10Q130 -10 78 44T25 192Q27 254 51 302T118 377T218 404Q286 404 334 367T395 269H369Q358 319 317 348T218 377Q169 377 132 354T74 288T52 191Q52 112 96 65T215 17Q274 17 316 46T369 125H395Q382
64 333 27T215 -10Z" />
<glyph unicode="d" glyph-name="d" horiz-adv-x="469" d="M235 -10Q178 -10 137 18T73 94T50 198Q50 255 73 302T137 376T236 404Q278 404 307 390T355 354T382 315T394 288H396L397 563H424V0H402L397 107H395Q392 100 382 81T353 41T305 5T235 -10ZM232 18Q274
18 311 38T371 99T394 198Q394 255 373 295T316 355T240 376Q187 376 151 351T96 285T77 198Q77 153 93 112T144 44T232 18Z" />
<glyph unicode="e" glyph-name="e" horiz-adv-x="439" d="M217 -10Q154 -10 112 21T50 101T30 202Q31 253 52 299T114 375T217 404Q290 404 338 355T393 226Q394 220 394 214T394 201H57Q57 117 98 66T217 15Q273 15 314 44T366 125H393Q380 64 332 27T217 -10ZM60
226H366Q365 257 349 292T301 353T217 379Q150 379 109 336T60 226Z" />
<glyph unicode="f" glyph-name="f" horiz-adv-x="247" d="M80 -4V379H10V404H80V516Q80 531 84 547T114 563H247V538H108V404H237V379H108V-4H80Z" />
<glyph unicode="g" glyph-name="g" horiz-adv-x="433" d="M125 -152V-127H351V107H349Q346 100 336 81T307 41T259 5T189 -10Q132 -10 91 18T27 94T4 198Q4 255 26 302T91 376T190 404Q232 404 261 390T309 354T336 315T348 288H350L351 404H378V-105Q378 -120
374 -136T344 -152H125ZM186 18Q228 18 265 38T325 99T348 198Q348 255 327 295T270 355T194 376Q141 376 105 351T50 285T31 198Q31 153 47 112T98 44T186 18Z" />
<glyph unicode="h" glyph-name="h" horiz-adv-x="426" d="M40 0V563H66V290H68Q71 298 79 316T105 355T151 389T222 404Q273 404 304 387T352 341T375 276T381 202V0H355V202Q355 285 326 331T224 378Q172 378 137 353T84 285T66 190V0H40Z" />
<glyph unicode="i" glyph-name="i" horiz-adv-x="146" d="M74 446Q62 446 58 453T54 472Q54 482 58 489T74 496Q86 496 90 489T94 472Q94 461 90 454T74 446ZM60 0V404H86V0H60Z" />
<glyph unicode="j" glyph-name="j" horiz-adv-x="151" d="M86 466Q74 466 70 473T66 492Q66 502 70 509T86 516Q98 516 102 509T106 492Q106 481 102 474T86 466ZM72 404H99V-105Q99 -120 95 -136T65 -152H1V-127H72V404Z" />
<glyph unicode="k" glyph-name="k" horiz-adv-x="409" d="M82 -1H55V563H82V150L351 404H390L201 225L394 -2H358L182 207L82 113V-1Z" />
<glyph unicode="l" glyph-name="l" horiz-adv-x="137" d="M55 0V563H82V0H55Z" />
<glyph unicode="m" glyph-name="m" horiz-adv-x="661" d="M40 0V404H61L66 290H68Q71 301 79 319T102 357T143 390T207 404Q249 404 274 388T314 345T334 290H336Q339 301 348 319T373 357T416 390T482 404Q522 404 547 389T587 349T607 297T614 244T616 202V0H590V202Q590
220 588 249T576 307T543 357T478 378Q433 378 403 353T357 285T341 190V0H315V202Q315 220 313 249T301 307T268 357T203 378Q158 378 128 353T82 285T66 190V0H40Z" />
<glyph unicode="n" glyph-name="n" horiz-adv-x="426" d="M40 0V404H61L66 290H68Q71 298 79 316T105 355T151 389T222 404Q273 404 304 387T352 341T375 276T381 202V0H355V202Q355 285 326 331T224 378Q172 378 137 353T84 285T66 190V0H40Z" />
<glyph unicode="o" glyph-name="o" horiz-adv-x="442" d="M214 -10Q122 -10 76 48T30 196Q30 288 76 346T214 404Q303 404 350 347T397 196Q397 138 378 91T318 17T214 -10ZM214 16Q274 16 307 43T355 111T369 196Q369 240 355 282T308 351T214 378Q155 378 121
351T72 282T58 196Q58 153 72 112T120 43T214 16Z" />
<glyph unicode="p" glyph-name="p" horiz-adv-x="457" d="M239 -10Q198 -10 169 5T121 41T92 81T79 107H77V-152H50V404H72L78 288H80Q83 296 92 314T119 354T166 389T238 404Q296 404 337 376T401 301T424 197Q424 139 401 92T337 18T239 -10ZM242 18Q295 18
329 44T380 111T397 198Q397 244 379 284T324 350T234 376Q193 376 158 356T102 295T80 198Q80 140 103 100T163 39T242 18Z" />
<glyph unicode="q" glyph-name="q" horiz-adv-x="457" d="M218 -10Q161 -10 120 18T56 93T33 197Q33 255 56 302T121 376T219 404Q261 404 290 390T338 354T365 315T377 288H379L385 404H407V-152H380V107H378Q375 100 365 81T336 41T288 5T218 -10ZM215 18Q257
18 294 38T354 99T377 198Q377 255 356 295T299 355T223 376Q170 376 134 351T79 285T60 198Q60 153 76 112T127 44T215 18Z" />
<glyph unicode="r" glyph-name="r" horiz-adv-x="266" d="M55 0V404H76L81 305Q92 350 130 377T231 404H256V374H231Q166 374 135 354T93 300T81 226V202V0H55Z" />
<glyph unicode="s" glyph-name="s" horiz-adv-x="390" d="M189 -10Q141 -10 111 3T65 37T43 76T35 109T34 123H62Q62 122 64 105T77 67T114 29T190 13Q224 13 256 21T309 47T329 97Q329 133 308 152T254 180T185 196T117 214T64 247T45 311Q46 355 89 384T201
414Q223 414 250 409T301 391T341 352T353 284H325Q327 318 314 338T280 370T236 384T195 388Q145 388 108 369T71 311Q71 279 91 262T144 237T213 221T281 202T334 165T355 97Q355 58 332 35T271 1T189 -10Z" />
<glyph unicode="t" glyph-name="t" horiz-adv-x="247" d="M109 0Q84 0 80 16T75 47V379H7V404Q35 404 49 406T69 417T74 448T75 509H102V404H197V379H102V25H197V0H109Z" />
<glyph unicode="u" glyph-name="u" horiz-adv-x="430" d="M199 -10Q137 -10 102 16T52 88T38 192V404H65V192Q65 142 76 102T116 39T199 16Q250 16 281 40T329 102T348 184L349 404H375V0H354L349 103H347Q339 78 320 52T271 8T199 -10Z" />
<glyph unicode="v" glyph-name="v" horiz-adv-x="379" d="M336 404H364V392L197 0H157L-10 392V404H18L177 21H179L336 404Z" />
<glyph unicode="w" glyph-name="w" horiz-adv-x="571" d="M123 0L0 392V404H24L140 24H142L264 404H290L414 24H416L529 404H553V392L434 0H393L278 356H276L162 0H123Z" />
<glyph unicode="x" glyph-name="x" horiz-adv-x="390" d="M20 0L168 208L26 404H60L185 231L311 404H345L202 208L354 0H318L185 185L53 0H20Z" />
<glyph unicode="y" glyph-name="y" horiz-adv-x="374" d="M-5 -174V-149H44Q63 -149 74 -136T103 -85L161 40L2 404H31L176 72L329 404H359L126 -93Q110 -127 98 -144T73 -168T41 -174H-5Z" />
<glyph unicode="z" glyph-name="z" horiz-adv-x="416" d="M35 0V21L341 377H48V404H381V380L73 27H381V0H35Z" />
<glyph unicode="{" glyph-name="braceleft" horiz-adv-x="248" d="M228 -196Q173 -202 142 -194T99 -160T86 -85T94 38Q100 95 96 126T82 171T59 187T35 190V218Q46 218 59 221T82 237T96 281T94 370Q88 444 88 492T99 566T142 601T228 603V579Q173 591 146 584T110
551T106 479T118 372Q126 324 127 292T113 240T58 203Q98 188 113 168T127 116T118 36Q110 -27 106 -71T110 -142T145 -176T228 -172V-196Z" />
<glyph unicode="|" glyph-name="bar" horiz-adv-x="147" d="M60 -151V601H87V-151H60Z" />
<glyph unicode="}" glyph-name="braceright" horiz-adv-x="263" d="M35 -196V-172Q90 -184 117 -177T153 -143T157 -72T145 36Q137 84 136 115T150 167T205 203Q165 219 150 239T136 292T145 372Q153 434 157 479T153 550T118 584T35 579V603Q91 609 121 601T164
567T176 492T169 370Q163 313 167 282T181 237T204 221T228 218V190Q217 190 204 187T181 171T167 127T169 38Q176 -36 176 -84T165 -159T122 -194T35 -196Z" />
<glyph unicode="~" glyph-name="asciitilde" horiz-adv-x="287" d="M195 190Q172 190 159 201T137 226T119 252T92 263Q70 263 65 244T60 200H35Q34 232 45 257T92 283Q116 283 128 272T149 247T167 221T195 210Q218 210 222 230T227 274H252Q254 255 250 236T233
203T195 190Z" />
<glyph unicode="&#xa0;" glyph-name="uni00A0" horiz-adv-x="255" />
<glyph unicode="&#xa1;" glyph-name="exclamdown" horiz-adv-x="155" d="M85 373Q97 373 101 366T105 347Q105 337 101 330T85 323Q73 323 69 330T65 347Q65 358 69 365T85 373ZM75 254Q75 254 78 254T85 253Q89 253 91 253T94 254Q96 135 99 55T103 -76T105 -153T100
-189T85 -199Q75 -199 71 -190T65 -154T65 -77T70 54T75 254Z" />
<glyph unicode="&#xa2;" glyph-name="cent" horiz-adv-x="435" d="M203 -80V-10Q123 -6 74 48T25 192Q26 251 48 297T110 372T203 403V474H228V404Q292 401 337 365T395 269H369Q358 319 317 348T218 377Q169 377 132 354T74 288T52 191Q52 112 96 65T215 17Q274
17 316 46T369 125H395Q382 67 337 31T228 -10V-80H203Z" />
<glyph unicode="&#xa3;" glyph-name="sterling" horiz-adv-x="561" d="M68 -12L54 9Q112 54 129 106T123 224H30V249H113Q109 258 104 267Q76 323 74 377T93 476T158 546T262 572Q349 572 403 522T458 384H431Q431 384 430 401T422 443T397 492T347 534T262 551Q208
551 171 528T115 465T99 378T126 278Q133 263 139 249H400V224H148Q166 164 155 123T117 41Q155 58 193 55T268 42T340 24T409 20T474 54Q499 77 504 111T497 184L521 192Q535 149 531 118T515 67T491 34Q458 3 425 -5T359 -7T293 11T224 29T151 30T74 -7Q73 -8
72 -9T68 -12Z" />
<glyph unicode="&#xa4;" glyph-name="currency" horiz-adv-x="500" d="M419 -1H385L344 58Q306 31 251 31Q194 31 155 59L113 -1H82L136 76Q95 122 95 202Q95 292 145 337L98 402H132L167 352Q201 372 251 372Q299 372 333 353L367 402H402L355 337Q406 291 406
202Q406 123 365 76L419 -1ZM251 52Q276 52 296 58T332 75Q336 78 339 81T345 87Q336 77 336 77T339 81T347 89T352 94Q384 134 384 202Q384 280 343 320Q335 328 321 335Q291 351 251 351Q209 351 179 335Q178 334 168 327T158 319Q117 281 117 202Q117 169 129
135T168 76Q184 65 204 59T251 52Z" />
<glyph unicode="&#xa5;" glyph-name="yen" horiz-adv-x="412" d="M69 121V145H186V195H69V219H182L-5 563H24L200 241L376 563H404L217 219H331V195H213V145H331V121H213V0H186V121H69Z" />
<glyph unicode="&#xa6;" glyph-name="brokenbar" horiz-adv-x="147" d="M60 281V601H87V281H60ZM60 -151V169H87V-151H60Z" />
<glyph unicode="&#xa7;" glyph-name="section" horiz-adv-x="600" d="M418 223V221Q441 206 457 181T472 121Q469 65 421 33T304 1Q257 1 214 17T142 67T112 153H143Q143 151 144 138T153 107T178 72T226 43T306 31Q351 31 378 42T418 69T436 100T441 122Q442
160 420 181T362 215T286 236T209 260T151 300T131 371Q132 399 151 419T199 451V452Q168 469 149 494T131 556Q133 592 156 617T217 657T302 671Q349 671 386 655T446 606T466 525H436Q437 561 423 584T387 619T342 637T300 642Q241 642 203 617T162 554Q162 517
184 496T242 464T318 443T394 420T452 379T472 306Q471 278 456 258T418 223ZM162 369Q162 334 179 314T227 282T292 262T362 244Q373 242 377 241T383 239Q391 237 395 238T401 241Q427 258 434 278T441 307Q442 340 425 361T378 395T313 416T244 434Q230 437
223 438T202 432Q163 406 162 369Z" />
<glyph unicode="&#xa8;" glyph-name="dieresis" horiz-adv-x="600" d="M79 693Q59 693 52 703T45 727Q45 740 52 750T79 760Q99 760 105 750T112 727Q112 714 106 704T79 693ZM211 693Q191 693 184 703T177 727Q177 740 184 750T211 760Q231 760 237 750T244 727Q244
714 238 704T211 693Z" />
<glyph unicode="&#xa9;" glyph-name="copyright" horiz-adv-x="653" d="M328 -10Q267 -10 214 12T121 75T58 169T35 283Q35 342 57 394T120 487T214 550T328 573Q387 573 439 550T532 487T595 395T618 283Q618 222 595 169T532 76T440 13T328 -10ZM328 14Q382
14 430 35T516 93T574 179T595 283Q595 337 574 385T516 471T431 529T328 550Q273 550 224 529T138 471T80 386T59 283Q59 228 80 179T138 93T224 35T328 14ZM330 114Q262 114 217 157T172 283Q172 364 217 407T332 450Q388 450 427 419T475 328L449 326Q439 373
410 398T332 424Q272 424 236 387T200 283Q200 213 235 176T330 138Q382 138 411 165T451 235L480 233Q469 176 431 145T330 114Z" />
<glyph unicode="&#xaa;" glyph-name="ordfeminine" horiz-adv-x="243" d="M122 401Q71 401 45 438T19 527Q19 582 46 618T122 654Q155 654 177 638T211 595L212 651H228V406H216L213 461H211Q200 434 178 418T122 401ZM127 418Q168 418 189 446T211 527Q211 583
189 610T127 637Q82 637 59 606T36 527Q36 478 60 448T127 418Z" />
<glyph unicode="&#xab;" glyph-name="guillemotleft" horiz-adv-x="460" d="M295 494V452L54 295L295 138V93L15 295L295 494ZM445 494V452L204 295L445 138V93L165 295L445 494Z" />
<glyph unicode="&#xac;" glyph-name="logicalnot" horiz-adv-x="317" d="M40 211V237H262V123H235V211H40Z" />
<glyph unicode="&#xad;" glyph-name="uni00AD" horiz-adv-x="280" d="M285 211V237H507V211H285Z" />
<glyph unicode="&#xae;" glyph-name="registered" horiz-adv-x="408" d="M203 229Q155 229 116 252T54 314T30 400Q30 448 53 487T116 549T203 572Q250 572 288 549T350 487T373 400Q373 353 350 314T289 252T203 229ZM203 250Q244 250 278 270T332 325T352 400Q352
442 332 476T278 531T203 551Q161 551 127 531T73 477T52 400Q52 359 72 325T127 271T203 250ZM137 311V500H199Q236 500 255 488T275 445Q275 425 264 410T227 394Q249 394 255 382T263 355T266 331T284 327V312Q279 308 269 307T251 313T243 339Q243 366 239
377T217 390T160 391V311H137ZM160 409H203Q229 409 241 415T254 443Q254 468 239 474T194 480H160V409Z" />
<glyph unicode="&#xaf;" glyph-name="overscore" horiz-adv-x="302" d="M40 734V760H262V734H40Z" />
<glyph unicode="&#xb0;" glyph-name="degree" horiz-adv-x="297" d="M123 388Q74 388 52 413T30 479Q30 522 51 547T123 573Q171 573 194 548T217 479Q217 440 194 414T123 388ZM123 409Q164 409 179 429T195 480Q195 511 180 532T123 554Q82 554 66 532T50 480Q50
449 68 429T123 409Z" />
<glyph unicode="&#xb1;" glyph-name="plusminus" horiz-adv-x="317" d="M141 131V210H40V236H141V321H167V236H262V210H167V131H141ZM40 56V82H262V56H40Z" />
<glyph unicode="&#xb2;" glyph-name="uni00B2" horiz-adv-x="228" d="M15 404V427Q15 427 34 440T81 476T134 522T171 570Q189 605 172 631T113 658Q85 658 66 641T48 589L23 591Q22 633 48 657T116 681Q152 681 175 665T205 622T196 564Q186 543 163 521T115
478T69 444T45 428H213V404H15Z" />
<glyph unicode="&#xb3;" glyph-name="uni00B3" horiz-adv-x="231" d="M118 394Q79 394 48 416T15 485L41 488Q43 452 66 435T118 418Q147 418 169 433T191 475Q191 496 180 507T155 523T131 528H93V544H132Q156 544 170 556T184 589Q184 617 166 632T116 648Q91
648 76 638T54 613T46 588L21 591Q22 601 30 620T59 655T116 671Q158 671 183 651T209 594Q209 571 197 557T164 536Q185 531 200 514T216 471Q216 436 188 415T118 394Z" />
<glyph unicode="&#xb4;" glyph-name="acute" horiz-adv-x="600" d="M54 632H38V638L95 744H125V733L54 632Z" />
<glyph unicode="&#xb5;" glyph-name="uni00B5" horiz-adv-x="430" d="M41 -152V404H68V192Q68 142 79 103T119 40T202 17Q252 17 283 41T331 103T350 184L351 404H377V1H356L351 104H349Q341 79 322 53T273 9T202 -9Q152 -9 120 8T70 56H68V-152H41Z" />
<glyph unicode="&#xb6;" glyph-name="paragraph" horiz-adv-x="485" d="M223 -94V309H213Q159 311 114 329T43 389T16 502Q16 569 41 610T108 672T203 695V695H469V646H394V-94H341L340 646H277V-94H223Z" />
<glyph unicode="&#xb7;" glyph-name="middot" horiz-adv-x="177" d="M84 201Q61 201 53 212T45 240Q45 255 53 266T84 278Q107 278 114 267T122 240Q122 224 115 213T84 201Z" />
<glyph unicode="&#xb8;" glyph-name="cedilla" horiz-adv-x="234" d="M30 -116L45 -98Q60 -116 83 -124T129 -132T167 -120T180 -88Q178 -66 161 -60T120 -60T76 -80L61 -64L98 9L119 0L78 -62Q90 -48 111 -41T153 -35T189 -49T204 -87Q204 -114 186 -131T139
-153T82 -149T30 -116Z" />
<glyph unicode="&#xb9;" glyph-name="uni00B9" horiz-adv-x="156" d="M31 401V426H75V637Q68 618 55 608T31 595T15 591V620Q19 620 34 624T63 640T77 678H101V426H141V401H31Z" />
<glyph unicode="&#xba;" glyph-name="ordmasculine" horiz-adv-x="280" d="M141 404Q78 404 47 443T15 544Q15 606 46 646T141 686Q201 686 233 647T265 544Q265 484 235 444T141 404ZM141 421Q181 421 204 439T236 486T246 544Q246 574 237 602T204 649T141 668Q100
668 77 650T44 603T34 544Q34 515 43 487T76 440T141 421Z" />
<glyph unicode="&#xbb;" glyph-name="guillemotright" horiz-adv-x="460" d="M165 494L445 295L165 93V138L406 295L165 452V494ZM15 494L295 295L15 93V138L256 295L15 452V494Z" />
<glyph unicode="&#xbc;" glyph-name="onequarter" horiz-adv-x="634" d="M36 287V312H80V523Q73 504 60 494T36 481T20 477V506Q24 506 39 510T68 526T82 564H106V312H146V287H36ZM135 0L115 15L324 292L513 562L533 548L336 284L135 0ZM385 59V84Q417 99 442
131T484 202T500 277H530Q530 222 497 170T416 84H532V138H560V84H599V59H560V0H532V59H385Z" />
<glyph unicode="&#xbd;" glyph-name="onehalf" horiz-adv-x="666" d="M36 287V312H80V523Q73 504 60 494T36 481T20 477V506Q24 506 39 510T68 526T82 564H106V312H146V287H36ZM135 0L115 15L324 292L513 562L533 548L336 284L135 0ZM433 0V23Q433 23 452 36T499
72T552 118T589 166Q607 201 590 227T531 254Q503 254 484 237T466 185L441 187Q440 229 466 253T534 277Q570 277 593 261T623 218T614 160Q604 139 581 117T533 74T487 40T463 24H631V0H433Z" />
<glyph unicode="&#xbe;" glyph-name="threequarters" horiz-adv-x="634" d="M123 296Q84 296 53 318T20 387L46 390Q48 354 71 337T123 320Q152 320 174 335T196 377Q196 398 185 409T160 425T136 430H98V446H137Q161 446 175 458T189 491Q189 519 171 534T121
550Q96 550 81 540T59 515T51 490L26 493Q27 503 35 522T64 557T121 573Q163 573 188 553T214 496Q214 473 202 459T169 438Q190 433 205 416T221 373Q221 338 193 317T123 296ZM135 0L115 15L324 292L513 562L533 548L336 284L135 0ZM385 59V84Q417 99 442 131T484
202T500 277H530Q530 222 497 170T416 84H532V138H560V84H599V59H560V0H532V59H385Z" />
<glyph unicode="&#xbf;" glyph-name="questiondown" horiz-adv-x="424" d="M221 374Q233 374 236 367T240 348Q240 338 237 331T221 324Q209 324 206 331T202 348Q202 359 205 366T221 374ZM212 250H234Q233 204 216 174T173 121T123 77T81 28T64 -39Q64 -100
105 -137T211 -174Q285 -174 323 -129T362 -15H389Q389 -95 342 -147T211 -199Q165 -199 126 -180T64 -125T40 -39Q40 6 57 35T99 85T149 128T193 177T212 250Z" />
<glyph unicode="&#xc0;" glyph-name="Agrave" horiz-adv-x="516" d="M20 0L236 563H280L498 0H470L396 194H121L46 0H20ZM259 550L132 221H385L259 550ZM240 610L169 711V722H199L256 616V610H240Z" />
<glyph unicode="&#xc1;" glyph-name="Aacute" horiz-adv-x="516" d="M20 0L236 563H280L498 0H470L396 194H121L46 0H20ZM259 550L132 221H385L259 550ZM268 610H252V616L309 722H339V711L268 610Z" />
<glyph unicode="&#xc2;" glyph-name="Acircumflex" horiz-adv-x="516" d="M20 0L236 563H280L498 0H470L396 194H121L46 0H20ZM259 550L132 221H385L259 550ZM152 879V885L252 983H266L367 885V879H336L260 961H258L183 879H152Z" />
<glyph unicode="&#xc3;" glyph-name="Atilde" horiz-adv-x="516" d="M20 0L236 563H280L498 0H470L396 194H121L46 0H20ZM259 550L132 221H385L259 550ZM308 618Q288 618 275 626T253 644T235 663T211 671Q194 671 190 657T186 618H161Q160 651 170 671T211 691Q232
691 244 683T265 665T283 646T308 638Q326 638 329 652T333 692H358Q360 659 349 639T308 618Z" />
<glyph unicode="&#xc4;" glyph-name="Adieresis" horiz-adv-x="516" d="M20 0L236 563H280L498 0H470L396 194H121L46 0H20ZM259 550L132 221H385L259 550ZM194 876Q174 876 167 886T160 910Q160 923 167 933T194 943Q214 943 220 933T227 910Q227 897 221 887T194
876ZM326 876Q306 876 299 886T292 910Q292 923 299 933T326 943Q346 943 352 933T359 910Q359 897 353 887T326 876Z" />
<glyph unicode="&#xc5;" glyph-name="Aring" horiz-adv-x="516" d="M20 0L236 563H280L498 0H470L396 194H121L46 0H20ZM259 550L132 221H385L259 550ZM258 597Q221 597 198 619T175 678Q175 716 197 738T258 761Q296 761 319 739T342 678Q342 643 319 620T258
597ZM258 616Q287 616 303 634T320 679Q320 705 304 723T258 742Q229 742 212 724T195 679Q195 652 213 634T258 616Z" />
<glyph unicode="&#xc6;" glyph-name="AE" horiz-adv-x="816" d="M20 0L406 563H772V537H446V298H711V272H446V25H781V0H419V194H182V195L48 0H20ZM200 221H419V538L200 221Z" />
<glyph unicode="&#xc7;" glyph-name="Ccedilla" horiz-adv-x="590" d="M297 -10Q221 -10 161 23T65 121T30 282Q30 380 64 444T159 541T301 573Q393 573 459 523T545 370H517Q501 456 444 502T301 549Q190 549 124 481T57 282Q57 149 122 82T297 14Q392 14 449
61T521 190H550Q531 91 465 41T297 -10ZM213 -116L228 -98Q243 -116 266 -124T312 -132T350 -120T363 -88Q361 -66 344 -60T303 -60T259 -80L244 -64L281 9L302 0L261 -62Q273 -48 294 -41T336 -35T372 -49T387 -87Q387 -114 369 -131T322 -153T265 -149T213 -116Z"
/>
<glyph unicode="&#xc8;" glyph-name="Egrave" horiz-adv-x="457" d="M87 25H422V0H60V563H413V537H87V298H352V272H87V25ZM213 866L142 967V978H172L229 872V866H213Z" />
<glyph unicode="&#xc9;" glyph-name="Eacute" horiz-adv-x="457" d="M87 25H422V0H60V563H413V537H87V298H352V272H87V25ZM227 610H211V616L268 722H298V711L227 610Z" />
<glyph unicode="&#xca;" glyph-name="Ecircumflex" horiz-adv-x="457" d="M87 25H422V0H60V563H413V537H87V298H352V272H87V25ZM128 639V645L228 743H242L343 645V639H312L236 721H234L159 639H128Z" />
<glyph unicode="&#xcb;" glyph-name="Edieresis" horiz-adv-x="457" d="M87 25H422V0H60V563H413V537H87V298H352V272H87V25ZM170 876Q150 876 143 886T136 910Q136 923 143 933T170 943Q190 943 196 933T203 910Q203 897 197 887T170 876ZM302 876Q282 876 275
886T268 910Q268 923 275 933T302 943Q322 943 328 933T335 910Q335 897 329 887T302 876Z" />
<glyph unicode="&#xcc;" glyph-name="Igrave" horiz-adv-x="305" d="M240 24V0H55V24H135V538H55V563H240V538H161V24H240ZM129 866L58 967V978H88L145 872V866H129Z" />
<glyph unicode="&#xcd;" glyph-name="Iacute" horiz-adv-x="305" d="M240 24V0H55V24H135V538H55V563H240V538H161V24H240ZM146 866H130V872L187 978H217V967L146 866Z" />
<glyph unicode="&#xce;" glyph-name="Icircumflex" horiz-adv-x="305" d="M240 24V0H55V24H135V538H55V563H240V538H161V24H240ZM298 639V645L398 743H412L513 645V639H482L406 721H404L329 639H298Z" />
<glyph unicode="&#xcf;" glyph-name="Idieresis" horiz-adv-x="305" d="M240 24V0H55V24H135V538H55V563H240V538H161V24H240ZM84 876Q64 876 57 886T50 910Q50 923 57 933T84 943Q104 943 110 933T117 910Q117 897 111 887T84 876ZM216 876Q196 876 189 886T182
910Q182 923 189 933T216 943Q236 943 242 933T249 910Q249 897 243 887T216 876Z" />
<glyph unicode="&#xd0;" glyph-name="Eth" horiz-adv-x="600" d="M70 0V274H0V299H70V563H213Q311 563 384 532T498 438T539 282Q539 171 498 110T384 24T213 0H70ZM97 25H213Q280 25 335 35T429 74T490 152T511 282Q511 370 474 426T370 510T213 538H97V299H293V274H97V25Z"
/>
<glyph unicode="&#xd1;" glyph-name="Ntilde" horiz-adv-x="557" d="M472 563H497V0H450L82 550H80V0H55V563H100L470 13H472V563ZM331 618Q311 618 298 626T276 644T258 663T234 671Q217 671 213 657T209 618H184Q183 651 193 671T234 691Q255 691 267 683T288
665T306 646T331 638Q349 638 352 652T356 692H381Q383 659 372 639T331 618Z" />
<glyph unicode="&#xd2;" glyph-name="Ograve" horiz-adv-x="597" d="M291 -14Q161 -14 93 65T25 280Q25 369 54 434T143 536T291 573Q422 573 489 494T557 280Q557 193 527 127T438 23T291 -14ZM291 11Q410 11 470 84T531 280Q531 402 472 475T291 548Q173 548
112 478T51 280Q51 158 110 85T291 11ZM283 610L212 711V722H242L299 616V610H283Z" />
<glyph unicode="&#xd3;" glyph-name="Oacute" horiz-adv-x="597" d="M291 -14Q161 -14 93 65T25 280Q25 369 54 434T143 536T291 573Q422 573 489 494T557 280Q557 193 527 127T438 23T291 -14ZM291 11Q410 11 470 84T531 280Q531 402 472 475T291 548Q173 548
112 478T51 280Q51 158 110 85T291 11ZM292 610H276V616L333 722H363V711L292 610Z" />
<glyph unicode="&#xd4;" glyph-name="Ocircumflex" horiz-adv-x="597" d="M291 -14Q161 -14 93 65T25 280Q25 369 54 434T143 536T291 573Q422 573 489 494T557 280Q557 193 527 127T438 23T291 -14ZM291 11Q410 11 470 84T531 280Q531 402 472 475T291 548Q173
548 112 478T51 280Q51 158 110 85T291 11ZM187 639V645L287 743H301L402 645V639H371L295 721H293L218 639H187Z" />
<glyph unicode="&#xd5;" glyph-name="Otilde" horiz-adv-x="597" d="M291 -14Q161 -14 93 65T25 280Q25 369 54 434T143 536T291 573Q422 573 489 494T557 280Q557 193 527 127T438 23T291 -14ZM291 11Q410 11 470 84T531 280Q531 402 472 475T291 548Q173 548
112 478T51 280Q51 158 110 85T291 11ZM340 618Q320 618 307 626T285 644T267 663T243 671Q226 671 222 657T218 618H193Q192 651 202 671T243 691Q264 691 276 683T297 665T315 646T340 638Q358 638 361 652T365 692H390Q392 659 381 639T340 618Z" />
<glyph unicode="&#xd6;" glyph-name="Odieresis" horiz-adv-x="597" d="M291 -14Q161 -14 93 65T25 280Q25 369 54 434T143 536T291 573Q422 573 489 494T557 280Q557 193 527 127T438 23T291 -14ZM291 11Q410 11 470 84T531 280Q531 402 472 475T291 548Q173
548 112 478T51 280Q51 158 110 85T291 11ZM229 620Q209 620 202 630T195 654Q195 667 202 677T229 687Q249 687 255 677T262 654Q262 641 256 631T229 620ZM361 620Q341 620 334 630T327 654Q327 667 334 677T361 687Q381 687 387 677T394 654Q394 641 388 631T361
620Z" />
<glyph unicode="&#xd7;" glyph-name="multiply" horiz-adv-x="306" d="M271 318L174 221L271 123L251 101L152 200L57 104L35 126L131 221L36 316L58 338L152 243L249 340L271 318Z" />
<glyph unicode="&#xd8;" glyph-name="Oslash" horiz-adv-x="600" d="M90 -22L128 33Q77 71 51 134T25 280Q25 369 54 434T143 536T291 573Q345 573 388 559T463 519L512 589L532 577L481 503Q557 425 557 280Q557 193 527 127T438 23T291 -14Q208 -14 148 21L110
-34L90 -22ZM51 280Q51 204 73 146T143 54L449 498Q420 522 381 535T291 548Q173 548 112 478T51 280ZM291 11Q410 11 470 84T531 280Q531 344 515 395T466 482L162 41Q215 11 291 11Z" />
<glyph unicode="&#xd9;" glyph-name="Ugrave" horiz-adv-x="558" d="M274 -14Q168 -14 109 52T50 240V563H75V240Q75 130 127 71T274 11Q374 11 424 69T474 240V563H498V240Q498 117 441 52T274 -14ZM256 610L185 711V722H215L272 616V610H256Z" />
<glyph unicode="&#xda;" glyph-name="Uacute" horiz-adv-x="558" d="M274 -14Q168 -14 109 52T50 240V563H75V240Q75 130 127 71T274 11Q374 11 424 69T474 240V563H498V240Q498 117 441 52T274 -14ZM277 610H261V616L318 722H348V711L277 610Z" />
<glyph unicode="&#xdb;" glyph-name="Ucircumflex" horiz-adv-x="558" d="M274 -14Q168 -14 109 52T50 240V563H75V240Q75 130 127 71T274 11Q374 11 424 69T474 240V563H498V240Q498 117 441 52T274 -14ZM169 879V885L269 983H283L384 885V879H353L277 961H275L200
879H169Z" />
<glyph unicode="&#xdc;" glyph-name="Udieresis" horiz-adv-x="558" d="M274 -14Q168 -14 109 52T50 240V563H75V240Q75 130 127 71T274 11Q374 11 424 69T474 240V563H498V240Q498 117 441 52T274 -14ZM211 620Q191 620 184 630T177 654Q177 667 184 677T211
687Q231 687 237 677T244 654Q244 641 238 631T211 620ZM343 620Q323 620 316 630T309 654Q309 667 316 677T343 687Q363 687 369 677T376 654Q376 641 370 631T343 620Z" />
<glyph unicode="&#xdd;" glyph-name="Yacute" horiz-adv-x="413" d="M186 0V213L-5 563H24L201 241L376 563H404L213 213V0H186ZM201 610H185V616L242 722H272V711L201 610Z" />
<glyph unicode="&#xde;" glyph-name="Thorn" horiz-adv-x="474" d="M96 0H70V563H96V451H267Q449 451 449 281Q449 199 402 156T267 112H96V0ZM267 425H96V139H267Q424 139 424 281Q424 355 386 390T267 425Z" />
<glyph unicode="&#xdf;" glyph-name="germandbls" horiz-adv-x="473" d="M274 -10Q220 -10 178 16T121 90H146Q146 89 152 78T172 52T211 26T274 15Q318 15 353 31T408 76T429 142Q429 182 408 206T357 246T296 272T244 297T223 334Q223 352 236 364T268 385T306
404T339 430T352 471Q352 515 314 526T208 538H80V0H55V563H208Q232 563 261 562T317 554T361 530T378 478Q378 447 365 428T332 396T293 376T260 358T246 335Q246 318 267 307T318 286T380 259T432 215T453 142Q453 99 430 65T366 10T274 -10Z" />
<glyph unicode="&#xe0;" glyph-name="agrave" horiz-adv-x="400" d="M185 -9Q129 -9 91 19T34 95T15 200Q15 260 35 307T93 381T185 409Q239 409 276 383T332 312H333V404H360V0H339L334 90H332Q313 46 276 19T185 -9ZM193 19Q261 19 296 66T332 199Q332 291 295
336T193 381Q119 381 82 330T44 200Q44 118 82 69T193 19ZM204 444L133 545V556H163L220 450V444H204Z" />
<glyph unicode="&#xe1;" glyph-name="aacute" horiz-adv-x="400" d="M185 -9Q129 -9 91 19T34 95T15 200Q15 260 35 307T93 381T185 409Q239 409 276 383T332 312H333V404H360V0H339L334 90H332Q313 46 276 19T185 -9ZM193 19Q261 19 296 66T332 199Q332 291 295
336T193 381Q119 381 82 330T44 200Q44 118 82 69T193 19ZM207 444H191V450L248 556H278V545L207 444Z" />
<glyph unicode="&#xe2;" glyph-name="acircumflex" horiz-adv-x="400" d="M185 -9Q129 -9 91 19T34 95T15 200Q15 260 35 307T93 381T185 409Q239 409 276 383T332 312H333V404H360V0H339L334 90H332Q313 46 276 19T185 -9ZM193 19Q261 19 296 66T332 199Q332
291 295 336T193 381Q119 381 82 330T44 200Q44 118 82 69T193 19ZM85 461V467L185 565H199L300 467V461H269L193 543H191L116 461H85Z" />
<glyph unicode="&#xe3;" glyph-name="atilde" horiz-adv-x="400" d="M185 -9Q129 -9 91 19T34 95T15 200Q15 260 35 307T93 381T185 409Q239 409 276 383T332 312H333V404H360V0H339L334 90H332Q313 46 276 19T185 -9ZM193 19Q261 19 296 66T332 199Q332 291 295
336T193 381Q119 381 82 330T44 200Q44 118 82 69T193 19ZM248 726Q228 726 215 734T193 752T175 771T151 779Q134 779 130 765T126 726H101Q100 759 110 779T151 799Q172 799 184 791T205 773T223 754T248 746Q266 746 269 760T273 800H298Q300 767 289 747T248
726Z" />
<glyph unicode="&#xe4;" glyph-name="adieresis" horiz-adv-x="448" d="M143 456Q123 456 116 466T109 490Q109 503 116 513T143 523Q163 523 169 513T176 490Q176 477 170 467T143 456ZM275 456Q255 456 248 466T241 490Q241 503 248 513T275 523Q295 523 301
513T308 490Q308 477 302 467T275 456ZM203 -9Q145 -9 106 19T48 95T28 200Q28 259 48 306T107 381T203 409Q260 409 298 383T356 311V404H383V67Q383 39 392 28T413 16T435 20T447 26L455 4Q452 2 440 -3T410 -9Q391 -8 374 7T356 67V89Q336 44 298 18T203 -9ZM211
19Q276 19 316 67T356 200Q356 287 315 334T211 381Q135 381 96 331T57 200Q57 118 97 69T211 19Z" />
<glyph unicode="&#xe5;" glyph-name="aring" horiz-adv-x="400" d="M185 -9Q129 -9 91 19T34 95T15 200Q15 260 35 307T93 381T185 409Q239 409 276 383T332 312H333V404H360V0H339L334 90H332Q313 46 276 19T185 -9ZM193 19Q261 19 296 66T332 199Q332 291 295
336T193 381Q119 381 82 330T44 200Q44 118 82 69T193 19ZM193 465Q156 465 133 487T110 546Q110 584 132 606T193 629Q231 629 254 607T277 546Q277 511 254 488T193 465ZM193 484Q222 484 238 502T255 547Q255 573 239 591T193 610Q164 610 147 592T130 547Q130
520 148 502T193 484Z" />
<glyph unicode="&#xe6;" glyph-name="ae" horiz-adv-x="734" d="M152 0Q97 0 65 28T32 102Q32 138 49 160T94 197T155 219T221 235Q266 245 289 252T321 268T329 291Q329 323 312 344T267 377T207 389Q178 389 150 379T102 348T78 295H51Q58 335 82 361T140 400T209
413Q259 413 302 389T354 314Q376 358 416 386T517 414Q590 414 638 365T693 236L694 211H357Q357 127 398 76T517 25Q573 25 614 54T666 135H693Q680 74 632 37T517 0Q464 0 426 22T365 81T334 161Q329 112 303 76T238 20T152 0ZM360 236H666Q665 267 649 302T601
363T517 389Q450 389 409 346T360 236ZM152 26Q212 26 250 55T307 134T326 243Q313 233 287 227T227 212Q182 202 144 191T82 160T59 103Q59 69 84 48T152 26Z" />
<glyph unicode="&#xe7;" glyph-name="ccedilla" horiz-adv-x="435" d="M215 -10Q130 -10 78 44T25 192Q27 254 51 302T118 377T218 404Q286 404 334 367T395 269H369Q358 319 317 348T218 377Q169 377 132 354T74 288T52 191Q52 112 96 65T215 17Q274 17 316 46T369
125H395Q382 64 333 27T215 -10ZM135 -116L150 -98Q165 -116 188 -124T234 -132T272 -120T285 -88Q283 -66 266 -60T225 -60T181 -80L166 -64L203 9L224 0L183 -62Q195 -48 216 -41T258 -35T294 -49T309 -87Q309 -114 291 -131T244 -153T187 -149T135 -116Z" />
<glyph unicode="&#xe8;" glyph-name="egrave" horiz-adv-x="439" d="M217 -10Q154 -10 112 21T50 101T30 202Q31 253 52 299T114 375T217 404Q290 404 338 355T393 226Q394 220 394 214T394 201H57Q57 117 98 66T217 15Q273 15 314 44T366 125H393Q380 64 332
27T217 -10ZM60 226H366Q365 257 349 292T301 353T217 379Q150 379 109 336T60 226ZM204 444L133 545V556H163L220 450V444H204Z" />
<glyph unicode="&#xe9;" glyph-name="eacute" horiz-adv-x="439" d="M217 -10Q154 -10 112 21T50 101T30 202Q31 253 52 299T114 375T217 404Q290 404 338 355T393 226Q394 220 394 214T394 201H57Q57 117 98 66T217 15Q273 15 314 44T366 125H393Q380 64 332
27T217 -10ZM60 226H366Q365 257 349 292T301 353T217 379Q150 379 109 336T60 226ZM207 444H191V450L248 556H278V545L207 444Z" />
<glyph unicode="&#xea;" glyph-name="ecircumflex" horiz-adv-x="439" d="M217 -10Q154 -10 112 21T50 101T30 202Q31 253 52 299T114 375T217 404Q290 404 338 355T393 226Q394 220 394 214T394 201H57Q57 117 98 66T217 15Q273 15 314 44T366 125H393Q380 64
332 27T217 -10ZM60 226H366Q365 257 349 292T301 353T217 379Q150 379 109 336T60 226ZM106 461V467L206 565H220L321 467V461H290L214 543H212L137 461H106Z" />
<glyph unicode="&#xeb;" glyph-name="edieresis" horiz-adv-x="439" d="M217 -10Q154 -10 112 21T50 101T30 202Q31 253 52 299T114 375T217 404Q290 404 338 355T393 226Q394 220 394 214T394 201H57Q57 117 98 66T217 15Q273 15 314 44T366 125H393Q380 64 332
27T217 -10ZM60 226H366Q365 257 349 292T301 353T217 379Q150 379 109 336T60 226ZM147 456Q127 456 120 466T113 490Q113 503 120 513T147 523Q167 523 173 513T180 490Q180 477 174 467T147 456ZM279 456Q259 456 252 466T245 490Q245 503 252 513T279 523Q299
523 305 513T312 490Q312 477 306 467T279 456Z" />
<glyph unicode="&#xec;" glyph-name="igrave" horiz-adv-x="140" d="M59 452L-12 553V564H18L75 458V452H59ZM57 0V404H83V0H57Z" />
<glyph unicode="&#xed;" glyph-name="iacute" horiz-adv-x="131" d="M66 456H50V462L107 568H137V557L66 456ZM45 0V404H71V0H45Z" />
<glyph unicode="&#xee;" glyph-name="icircumflex" horiz-adv-x="160" d="M-35 461V467L65 565H79L180 467V461H149L73 543H71L-4 461H-35ZM60 0V404H86V0H60Z" />
<glyph unicode="&#xef;" glyph-name="idieresis" horiz-adv-x="189" d="M19 456Q-1 456 -8 466T-15 490Q-15 503 -8 513T19 523Q39 523 45 513T52 490Q52 477 46 467T19 456ZM151 456Q131 456 124 466T117 490Q117 503 124 513T151 523Q171 523 177 513T184 490Q184
477 178 467T151 456ZM72 0V404H98V0H72Z" />
<glyph unicode="&#xf0;" glyph-name="eth" horiz-adv-x="472" d="M244 -10Q180 -10 136 18T67 92T41 188T56 284T114 357T215 386Q258 386 290 370T345 329T382 281T402 240T409 223H410Q404 285 378 350T310 466L243 426L231 447L294 485Q270 511 243 530T187
560L195 583Q231 570 262 549T319 500L401 550L413 528L335 481Q378 428 402 363T431 232T417 112T356 24T244 -10ZM403 155Q402 218 377 261T313 329T231 358T149 347T88 293T65 195Q66 141 88 103T146 42T221 14T299 21T365 68T403 155Z" />
<glyph unicode="&#xf1;" glyph-name="ntilde" horiz-adv-x="426" d="M40 0V404H61L66 290H68Q71 298 79 316T105 355T151 389T222 404Q273 404 304 387T352 341T375 276T381 202V0H355V202Q355 285 326 331T224 378Q172 378 137 353T84 285T66 190V0H40ZM273 726Q253
726 240 734T218 752T200 771T176 779Q159 779 155 765T151 726H126Q125 759 135 779T176 799Q197 799 209 791T230 773T248 754T273 746Q291 746 294 760T298 800H323Q325 767 314 747T273 726Z" />
<glyph unicode="&#xf2;" glyph-name="ograve" horiz-adv-x="442" d="M214 -10Q122 -10 76 48T30 196Q30 288 76 346T214 404Q303 404 350 347T397 196Q397 138 378 91T318 17T214 -10ZM214 16Q274 16 307 43T355 111T369 196Q369 240 355 282T308 351T214 378Q155
378 121 351T72 282T58 196Q58 153 72 112T120 43T214 16ZM204 444L133 545V556H163L220 450V444H204Z" />
<glyph unicode="&#xf3;" glyph-name="oacute" horiz-adv-x="442" d="M214 -10Q122 -10 76 48T30 196Q30 288 76 346T214 404Q303 404 350 347T397 196Q397 138 378 91T318 17T214 -10ZM214 16Q274 16 307 43T355 111T369 196Q369 240 355 282T308 351T214 378Q155
378 121 351T72 282T58 196Q58 153 72 112T120 43T214 16ZM207 444H191V450L248 556H278V545L207 444Z" />
<glyph unicode="&#xf4;" glyph-name="ocircumflex" horiz-adv-x="442" d="M214 -10Q122 -10 76 48T30 196Q30 288 76 346T214 404Q303 404 350 347T397 196Q397 138 378 91T318 17T214 -10ZM214 16Q274 16 307 43T355 111T369 196Q369 240 355 282T308 351T214
378Q155 378 121 351T72 282T58 196Q58 153 72 112T120 43T214 16ZM106 461V467L206 565H220L321 467V461H290L214 543H212L137 461H106Z" />
<glyph unicode="&#xf5;" glyph-name="otilde" horiz-adv-x="442" d="M214 -10Q122 -10 76 48T30 196Q30 288 76 346T214 404Q303 404 350 347T397 196Q397 138 378 91T318 17T214 -10ZM214 16Q274 16 307 43T355 111T369 196Q369 240 355 282T308 351T214 378Q155
378 121 351T72 282T58 196Q58 153 72 112T120 43T214 16ZM262 726Q242 726 229 734T207 752T189 771T165 779Q148 779 144 765T140 726H115Q114 759 124 779T165 799Q186 799 198 791T219 773T237 754T262 746Q280 746 283 760T287 800H312Q314 767 303 747T262
726Z" />
<glyph unicode="&#xf6;" glyph-name="odieresis" horiz-adv-x="442" d="M214 -10Q122 -10 76 48T30 196Q30 288 76 346T214 404Q303 404 350 347T397 196Q397 138 378 91T318 17T214 -10ZM214 16Q274 16 307 43T355 111T369 196Q369 240 355 282T308 351T214 378Q155
378 121 351T72 282T58 196Q58 153 72 112T120 43T214 16ZM147 456Q127 456 120 466T113 490Q113 503 120 513T147 523Q167 523 173 513T180 490Q180 477 174 467T147 456ZM279 456Q259 456 252 466T245 490Q245 503 252 513T279 523Q299 523 305 513T312 490Q312
477 306 467T279 456Z" />
<glyph unicode="&#xf7;" glyph-name="divide" horiz-adv-x="317" d="M152 274Q139 274 132 283T124 306Q124 320 131 329T152 338Q166 338 173 329T181 306Q181 293 174 284T152 274ZM40 211V237H262V211H40ZM152 111Q139 111 132 120T124 143Q124 157 131 166T152
175Q166 175 173 166T181 143Q181 130 174 121T152 111Z" />
<glyph unicode="&#xf8;" glyph-name="oslash" horiz-adv-x="437" d="M57 -22L91 32Q61 60 46 102T30 196Q30 288 76 346T214 404Q270 404 310 380L344 434L365 422L330 367Q397 312 397 196Q397 138 378 91T318 17T214 -10Q153 -10 110 18L78 -34L57 -22ZM58 196Q58
158 69 121T106 56L296 358Q280 367 260 372T214 378Q155 378 121 351T72 282T58 196ZM214 16Q274 16 307 43T355 111T369 196Q369 237 357 277T316 343L125 41Q142 29 164 23T214 16Z" />
<glyph unicode="&#xf9;" glyph-name="ugrave" horiz-adv-x="430" d="M199 -10Q137 -10 102 16T52 88T38 192V404H65V192Q65 142 76 102T116 39T199 16Q250 16 281 40T329 102T348 184L349 404H375V0H354L349 103H347Q339 78 320 52T271 8T199 -10ZM192 452L121
553V564H151L208 458V452H192Z" />
<glyph unicode="&#xfa;" glyph-name="uacute" horiz-adv-x="430" d="M199 -10Q137 -10 102 16T52 88T38 192V404H65V192Q65 142 76 102T116 39T199 16Q250 16 281 40T329 102T348 184L349 404H375V0H354L349 103H347Q339 78 320 52T271 8T199 -10ZM205 456H189V462L246
568H276V557L205 456Z" />
<glyph unicode="&#xfb;" glyph-name="ucircumflex" horiz-adv-x="430" d="M199 -10Q137 -10 102 16T52 88T38 192V404H65V192Q65 142 76 102T116 39T199 16Q250 16 281 40T329 102T348 184L349 404H375V0H354L349 103H347Q339 78 320 52T271 8T199 -10ZM99 461V467L199
565H213L314 467V461H283L207 543H205L130 461H99Z" />
<glyph unicode="&#xfc;" glyph-name="udieresis" horiz-adv-x="430" d="M199 -10Q137 -10 102 16T52 88T38 192V404H65V192Q65 142 76 102T116 39T199 16Q250 16 281 40T329 102T348 184L349 404H375V0H354L349 103H347Q339 78 320 52T271 8T199 -10ZM142 456Q122
456 115 466T108 490Q108 503 115 513T142 523Q162 523 168 513T175 490Q175 477 169 467T142 456ZM274 456Q254 456 247 466T240 490Q240 503 247 513T274 523Q294 523 300 513T307 490Q307 477 301 467T274 456Z" />
<glyph unicode="&#xfd;" glyph-name="yacute" horiz-adv-x="374" d="M-5 -174V-149H44Q63 -149 74 -136T103 -85L161 40L2 404H31L176 72L329 404H359L126 -93Q110 -127 98 -144T73 -168T41 -174H-5ZM187 456H171V462L228 568H258V557L187 456Z" />
<glyph unicode="&#xfe;" glyph-name="thorn" horiz-adv-x="457" d="M50 -199V563H77L78 288Q80 294 89 312T116 352T164 388T238 404Q300 404 341 374T403 298T424 199Q424 147 404 99T343 21T239 -10Q198 -10 169 4T121 39T92 78T78 105V-199H50ZM242 15Q295
15 329 42T380 111T397 198Q397 244 379 285T324 352T234 379Q193 379 159 358T104 301T78 217V179Q82 132 105 95T163 37T242 15ZM77 286Q77 286 77 286V286ZM77 107V107Q76 109 76 109T77 107Z" />
<glyph unicode="&#xff;" glyph-name="ydieresis" horiz-adv-x="374" d="M-5 -174V-149H44Q63 -149 74 -136T103 -85L161 40L2 404H31L176 72L329 404H359L126 -93Q110 -127 98 -144T73 -168T41 -174H-5ZM119 456Q99 456 92 466T85 490Q85 503 92 513T119 523Q139
523 145 513T152 490Q152 477 146 467T119 456ZM251 456Q231 456 224 466T217 490Q217 503 224 513T251 523Q271 523 277 513T284 490Q284 477 278 467T251 456Z" />
<glyph unicode="&#x2013;" glyph-name="endash" horiz-adv-x="397" d="M40 211V237H342V211H40Z" />
<glyph unicode="&#x2014;" glyph-name="emdash" horiz-adv-x="497" d="M40 211V237H442V211H40Z" />
<glyph unicode="&#x2018;" glyph-name="quoteleft" horiz-adv-x="163" d="M46 432Q30 432 25 441T20 462Q20 461 20 464Q20 465 20 465Q20 471 22 486T33 520T58 550T103 563V534Q69 534 56 520T38 490Q42 491 46 491Q62 491 67 483T72 462Q72 450 67 441T46 432Z" />
<glyph unicode="&#x2019;" glyph-name="quoteright" horiz-adv-x="128" d="M15 432V461Q49 461 62 475T80 505Q76 504 72 504Q56 504 51 512T46 533Q46 545 51 554T72 563Q88 563 93 554T98 533Q98 533 98 533T98 531Q98 530 98 530Q98 524 96 509T85 475T60 445T15 432Z" />
<glyph unicode="&#x201a;" glyph-name="quotesinglbase" horiz-adv-x="183" d="M45 -72V-43Q79 -43 92 -29T110 1Q106 0 102 0Q86 0 81 8T76 29Q76 41 81 50T102 59Q118 59 123 50T128 29Q128 28 128 27Q128 26 128 26Q128 20 126 5T115 -29T90 -59T45 -72Z" />
<glyph unicode="&#x201c;" glyph-name="quotedblleft" horiz-adv-x="255" d="M20 432V461Q54 461 67 475T85 505Q81 504 77 504Q61 504 56 512T51 533Q51 545 56 554T77 563Q93 563 98 554T103 533Q103 533 103 533T103 531Q103 530 103 530Q103 524 101 509T90
475T65 445T20 432ZM112 432V461Q146 461 159 475T177 505Q173 504 169 504Q153 504 148 512T143 533Q143 545 148 554T169 563Q185 563 190 554T195 533Q195 533 195 533T195 531Q195 530 195 530Q195 524 193 509T182 475T157 445T112 432Z" />
<glyph unicode="&#x201d;" glyph-name="quotedblright" horiz-adv-x="255" d="M138 432Q122 432 117 441T112 462Q112 463 112 464Q112 465 112 465Q112 471 114 486T125 520T150 550T195 563V534Q161 534 148 520T130 490Q134 491 138 491Q154 491 159 483T164
462Q164 450 159 441T138 432ZM46 432Q30 432 25 441T20 462Q20 461 20 464Q20 465 20 465Q20 471 22 486T33 520T58 550T103 563V534Q69 534 56 520T38 490Q42 491 46 491Q62 491 67 483T72 462Q72 450 67 441T46 432Z" />
<glyph unicode="&#x201e;" glyph-name="quotedblbase" horiz-adv-x="275" d="M45 -72V-43Q79 -43 92 -29T110 1Q106 0 102 0Q86 0 81 8T76 29Q76 41 81 50T102 59Q118 59 123 50T128 29Q128 28 128 27Q128 26 128 26Q128 20 126 5T115 -29T90 -59T45 -72ZM137
-72V-43Q171 -43 184 -29T202 1Q198 0 194 0Q178 0 173 8T168 29Q168 41 173 50T194 59Q210 59 215 50T220 29Q220 28 220 27Q220 26 220 26Q220 20 218 5T207 -29T182 -59T137 -72Z" />
<glyph unicode="&#x2022;" glyph-name="bullet" horiz-adv-x="187" d="M84 201Q61 201 53 212T45 240Q45 255 53 266T84 278Q107 278 114 267T122 240Q122 224 115 213T84 201Z" />
<glyph unicode="&#x2039;" glyph-name="guilsinglleft" horiz-adv-x="376" d="M336 363V333L78 223L336 113V81L40 223L336 363Z" />
<glyph unicode="&#x203a;" glyph-name="guilsinglright" horiz-adv-x="381" d="M40 363L336 223L40 81V113L298 223L40 333V363Z" />
</font>
</defs>
</svg>
